
<svg xmlns="http://www.w3.org/2000/svg" version="1.1" xmlns:xlink="http://www.w3.org/1999/xlink" preserveAspectRatio="none" x="0px" y="0px" width="512px" height="512px" viewBox="0 0 512 512">
<defs>
<g id="Layer1_0_FILL">
<path fill="#000000" stroke="none" d="
M 390.35 213.25
Q 382.85 173.7 344.85 165.95
L 321.2 165.95 321.2 133.2
Q 316.65 115.65 299.25 110.95
L 296.85 110.95 296.85 102.2
Q 293.85 89.4 284.4 85.95
L 273.75 15.4
Q 264.55 5.25 255.35 5.9 246.15 5.25 236.95 15.4
L 226.25 85.95
Q 216.8 89.4 213.8 102.2
L 213.8 110.95 211.2 110.95
Q 193.75 115.65 189.2 133.2
L 189.2 165.95 165.85 165.95
Q 127.8 173.7 120.35 213.25
L 120.35 459.35
Q 126.55 496.8 163.85 505.85
L 346.8 505.85
Q 384.1 496.8 390.35 459.35
L 390.35 213.25
M 337.4 180.4
Q 351.65 182.05 360.75 189.35 364.6 192.4 367.55 196.5 373.6 204.95 375.65 217.75
L 375.65 266.45 134.55 266.45 134.55 217.75
Q 136.6 204.95 142.65 196.5 145.6 192.4 149.45 189.35 158.55 182.05 172.85 180.4
L 337.4 180.4
M 255.45 20.65
Q 258.95 20.5 259.8 24.9
L 269.5 85.95 241.4 85.95 251.1 24.9
Q 251.9 20.5 255.45 20.65
M 203.6 138.2
Q 206.1 128.35 215.55 125.45
L 295.1 125.45
Q 304.55 128.35 307.05 138.2
L 307.05 165.95 203.6 165.95 203.6 138.2
M 228.5 105.8
Q 228.15 102.25 232.7 100.7
L 278.45 100.7
Q 282.4 102.05 282.7 104.85
L 282.7 110.95 228.5 110.95 228.5 105.8
M 134.55 453.35
L 134.55 412.8 375.65 412.8 375.65 453.35
Q 370.45 487.05 336.95 491.35
L 173.3 491.35
Q 139.8 487.05 134.55 453.35
M 134.55 280.95
L 375.65 280.95 375.65 398.3 134.55 398.3 134.55 280.95 Z"/>
</g>

<g id="Layer0_0_FILL">
<path fill="#FFFFFF" stroke="none" d="
M 390.35 213.25
Q 382.85 173.7 344.85 165.95
L 321.2 165.95 321.2 133.2
Q 316.65 115.65 299.25 110.95
L 296.85 110.95 296.85 102.2
Q 293.85 89.4 284.4 85.95
L 273.75 15.4
Q 264.55 5.25 255.35 5.9 246.15 5.25 236.95 15.4
L 226.25 85.95
Q 216.8 89.4 213.8 102.2
L 213.8 110.95 211.2 110.95
Q 193.75 115.65 189.2 133.2
L 189.2 165.95 165.85 165.95
Q 127.8 173.7 120.35 213.25
L 120.35 459.35
Q 126.55 496.8 163.85 505.85
L 346.8 505.85
Q 384.1 496.8 390.35 459.35
L 390.35 213.25
M 337.4 180.4
Q 351.65 182.05 360.75 189.35 364.6 192.4 367.55 196.5 373.6 204.95 375.65 217.75
L 375.65 266.45 134.55 266.45 134.55 217.75
Q 136.6 204.95 142.65 196.5 145.6 192.4 149.45 189.35 158.55 182.05 172.85 180.4
L 337.4 180.4
M 251.1 24.9
Q 251.9 20.5 255.45 20.65 258.95 20.5 259.8 24.9
L 269.5 85.95 241.4 85.95 251.1 24.9
M 228.5 110.95
L 228.5 105.8
Q 228.15 102.25 232.7 100.7
L 278.45 100.7
Q 282.4 102.05 282.7 104.85
L 282.7 110.95 228.5 110.95
M 203.6 138.2
Q 206.1 128.35 215.55 125.45
L 295.1 125.45
Q 304.55 128.35 307.05 138.2
L 307.05 165.95 203.6 165.95 203.6 138.2
M 134.55 453.35
L 134.55 412.8 375.65 412.8 375.65 453.35
Q 370.45 487.05 336.95 491.35
L 173.3 491.35
Q 139.8 487.05 134.55 453.35
M 375.65 280.95
L 375.65 398.3 134.55 398.3 134.55 280.95 375.65 280.95 Z"/>
</g>
</defs>

<g transform="matrix( 1, 0, 0, 1, 0,0) ">
<use xlink:href="#Layer1_0_FILL"/>
</g>

<g transform="matrix( 1, 0, 0, 1, 0,0) ">
<use xlink:href="#Layer0_0_FILL"/>
</g>
</svg>
