
<svg xmlns="http://www.w3.org/2000/svg" version="1.1" xmlns:xlink="http://www.w3.org/1999/xlink" preserveAspectRatio="none" x="0px" y="0px" width="512px" height="512px" viewBox="0 0 512 512">
<defs>
<g id="Layer0_0_FILL">
<path fill="#FFFFFF" stroke="none" d="
M 36.7 263
Q 36.55 263.1 36.45 263.25
L 15.35 284.4
Q 15.3 284.45 15.25 284.5 11 288.75 10.95 294.65 10.95 300.75 15.2 305 19.45 309.25 25.35 309.15 31.35 309.2 35.6 304.95 35.65 304.9 35.7 304.8 35.85 304.7 35.95 304.55
L 56.25 284.25
Q 56.5 284 56.85 283.65 56.95 283.5 57.1 283.4 61.3 279.15 61.3 273.15 61.35 267.2 57.15 262.95 52.9 258.7 46.9 258.7 40.95 258.75 36.7 263
M 21.05 181.35
Q 21 181.35 20.9 181.35 14.95 181.35 10.75 185.55 6.5 189.8 6.5 195.8 6.5 201.8 10.75 206.05 14.95 210.3 20.9 210.3 21 210.3 21.1 210.3 21.3 210.3 21.45 210.3
L 50.1 210.25
Q 50.5 210.3 50.95 210.3 51.15 210.3 51.35 210.3 57.35 210.3 61.55 206.05 65.75 201.8 65.75 195.8 65.75 189.8 61.55 185.55 57.35 181.35 51.35 181.35 51.15 181.35 50.95 181.35
L 21.05 181.35
M 35.7 87.25
Q 35.65 87.2 35.6 87.15 31.35 82.9 25.4 82.9 19.45 82.85 15.2 87.1 10.95 91.35 11 97.35 11 103.3 15.25 107.55 15.3 107.6 15.35 107.7 15.5 107.8 15.6 107.95
L 35.85 128.25
Q 36.1 128.5 36.45 128.85 36.55 129 36.7 129.1 40.95 133.35 46.95 133.35 52.9 133.4 57.15 129.15 61.35 124.9 61.35 118.9 61.3 112.9 57.1 108.65 56.95 108.55 56.85 108.4
L 35.7 87.25
M 451.65 273.15
Q 451.65 279.15 455.9 283.4 456.05 283.5 456.15 283.65 456.5 284 456.75 284.25
L 477.05 304.55
Q 477.15 304.7 477.3 304.8 477.35 304.9 477.4 304.95 481.65 309.2 487.6 309.15 493.55 309.25 497.8 305 502.05 300.75 502.05 294.65 502 288.75 497.75 284.5 497.7 284.45 497.65 284.4
L 476.55 263.25
Q 476.45 263.1 476.3 263 472.05 258.75 466.1 258.7 460.1 258.7 455.85 262.95 451.6 267.2 451.65 273.15
M 431.95 181.7
Q 431.95 108.9 380.55 57.45 329.25 6 256.7 6 184.05 6 132.75 57.45 81.4 108.9 81.4 181.7 81.4 249.85 126.45 299.35 153.4 333.8 154.5 373.1
L 154.5 407.65
Q 159.6 437.45 184.45 443.45 196.1 501.15 256.7 506 317.35 501.15 328.95 443.45
L 329 443.45
Q 353.9 437.45 359 407.65
L 359 373.1
Q 360.1 333.8 386.95 299.25 431.95 249.8 431.95 181.7
M 359 78
Q 401.45 121.4 401.45 182.75 401.45 244.1 359 287.45
L 359 287.7
Q 335.8 317.8 329.75 357.85
L 183.7 357.85
Q 177.65 317.8 154.5 287.7 154.4 287.6 154.25 287.45 111.85 244.1 111.85 182.75 111.85 121.4 154.25 78 196.65 34.6 256.65 34.6 316.6 34.6 359 78
M 297.55 446.45
Q 283.4 477.2 257.2 477.2 230.05 477.2 215.85 446.45
L 297.55 446.45
M 197.45 416.9
Q 184.75 415.25 183.7 403.95
L 183.7 388.4 329.75 388.4 329.75 403.95
Q 328.7 415.25 316.05 416.9
L 197.45 416.9
M 358.8 196.15
Q 359 196.15 359.2 196.15 365.2 196.15 369.35 191.9 373.45 187.85 373.6 182.1
L 373.6 169.6
Q 356.75 80.9 270.8 64.15
L 256.1 64.15
Q 250.4 64.3 246.3 68.4 242.1 72.65 242.1 78.65 242.1 78.85 242.1 79.05 242.25 84.8 246.3 88.85 250.4 92.95 256.1 93.1 331.95 100.1 344.75 182.1 344.9 187.85 348.95 191.9 353.05 196 358.8 196.15
M 492.05 181.35
Q 491.95 181.35 491.9 181.35
L 462.05 181.35
Q 461.85 181.35 461.65 181.35 455.65 181.35 451.4 185.55 447.2 189.8 447.2 195.8 447.2 201.8 451.4 206.05 455.65 210.3 461.65 210.3 461.85 210.3 462.05 210.3 462.5 210.3 462.9 210.25
L 491.5 210.3
Q 491.65 210.3 491.85 210.3 491.95 210.3 492.05 210.3 498.05 210.3 502.25 206.05 506.5 201.8 506.5 195.8 506.5 189.8 502.25 185.55 498.05 181.35 492.05 181.35
M 497.8 87.1
Q 493.55 82.85 487.55 82.9 481.65 82.9 477.4 87.15 477.35 87.2 477.3 87.25
L 456.15 108.4
Q 456.05 108.55 455.9 108.65 451.65 112.9 451.6 118.9 451.6 124.9 455.85 129.15 460.1 133.4 466.05 133.35 472.05 133.35 476.3 129.1 476.45 129 476.55 128.85 476.9 128.5 477.15 128.25
L 497.4 107.95
Q 497.5 107.8 497.65 107.7 497.7 107.6 497.75 107.55 502 103.3 502 97.35 502.05 91.35 497.8 87.1 Z"/>
</g>
</defs>

<g transform="matrix( 1, 0, 0, 1, 0,0) ">
<use xlink:href="#Layer0_0_FILL"/>
</g>
</svg>
