
<svg xmlns="http://www.w3.org/2000/svg" version="1.1" xmlns:xlink="http://www.w3.org/1999/xlink" preserveAspectRatio="none" x="0px" y="0px" width="512px" height="512px" viewBox="0 0 512 512">
<defs>
<g id="Layer0_0_FILL">
<path fill="#FFFFFF" stroke="none" d="
M 435.35 126.6
Q 433.4 117.05 421.9 113.25
L 348.35 113.25 348.35 86.85
Q 331.7 11.15 257.5 6
L 255.25 6
Q 180.25 11.15 163.65 86.85
L 163.65 113.25 89.8 113.25
Q 78.35 117.05 76.5 126.6
L 38.5 490.55
Q 39.35 503.9 52.6 506 256.05 500.75 459.4 506 472.3 503.95 473.5 491.3
L 435.35 126.6
M 256 35.45
Q 303.4 38.3 318.05 86.85
L 318.05 113.25 193.9 113.25 193.9 86.85
Q 208.6 38.3 256 35.45 Z"/>
</g>
</defs>

<g transform="matrix( 1, 0, 0, 1, 0,0) ">
<use xlink:href="#Layer0_0_FILL"/>
</g>
</svg>
