
<svg xmlns="http://www.w3.org/2000/svg" version="1.1" xmlns:xlink="http://www.w3.org/1999/xlink" preserveAspectRatio="none" x="0px" y="0px" width="512px" height="512px" viewBox="0 0 512 512">
<defs>
<image id="bolsa_de_la_compra_png" x="0" y="0" width="512" height="512" xlink:href="./images/bolsa_de_la_compra_png.png"/>

<g id="Layer1_0_FILL">
<path fill="#000000" stroke="none" d="
M 435.9 126.85
Q 433.95 117.25 422.5 113.45
L 349 113.45 349 87
Q 332.4 11.15 258.25 6
L 256 6
Q 181.11171875 11.154296875 164.5 87
L 164.5 113.45 90.75 113.45
Q 79.295703125 117.2673828125 77.45 126.85
L 39.45 491.4
Q 40.33046875 504.782421875 53.6 506.9 256.775 501.6375 459.95 506.9 472.8244140625 504.8595703125 474 492.2
L 435.9 126.85
M 334.8 191.35
Q 344.4 191.1 349 180.5
L 349 144.45 406.5 144.45 441 475.95 72.55 475.95 107.05 144.45 164.5 144.45 164.5 180.5
Q 169.756640625 191.9537109375 179.65 191.35 180.103125 191.3611328125 180.55 191.35 190.16328125 191.11640625 194.75 180.5
L 194.7 180.45
Q 194.7357421875 180.433203125 194.75 180.4
L 194.75 144.45 318.75 144.45 318.75 180.5
Q 324 191.95 333.9 191.35 334.35 191.35 334.8 191.35
M 256.75 35.5
Q 304.1 38.35 318.75 87
L 318.75 113.45 194.75 113.45 194.75 87
Q 209.397265625 38.3552734375 256.75 35.5 Z"/>
</g>

<g id="Layer0_0_FILL">
<path fill="#000000" stroke="none" d="
M 435.9 126.85
Q 433.95 117.25 422.5 113.45
L 349 113.45 349 87
Q 332.4 11.15 258.25 6
L 256 6
Q 181.11171875 11.154296875 164.5 87
L 164.5 113.45 90.75 113.45
Q 79.295703125 117.2673828125 77.45 126.85
L 39.45 491.4
Q 40.33046875 504.782421875 53.6 506.9 256.775 501.6375 459.95 506.9 472.8244140625 504.8595703125 474 492.2
L 435.9 126.85
M 334.8 191.35
Q 344.4 191.1 349 180.5
L 349 144.45 406.5 144.45 441 475.95 72.55 475.95 107.05 144.45 164.5 144.45 164.5 180.5
Q 169.756640625 191.9537109375 179.65 191.35 180.103125 191.3611328125 180.55 191.35 190.16328125 191.11640625 194.75 180.5
L 194.7 180.45
Q 194.7357421875 180.433203125 194.75 180.4
L 194.75 144.45 318.75 144.45 318.75 180.5
Q 324 191.95 333.9 191.35 334.35 191.35 334.8 191.35
M 256.75 35.5
Q 304.1 38.35 318.75 87
L 318.75 113.45 194.75 113.45 194.75 87
Q 209.397265625 38.3552734375 256.75 35.5 Z"/>
</g>

<path id="Layer1_0_1_STROKES" stroke="#00FFFF" stroke-width="1" stroke-linejoin="round" stroke-linecap="round" fill="none" d="
M 193.89487380981444 180.15004806518553
L 193.9199020385742 180.1750030517578"/>

<path id="Layer0_0_1_STROKES" stroke="#00FFFF" stroke-width="1" stroke-linejoin="round" stroke-linecap="round" fill="none" d="
M 193.89190254211425 180.15004806518553
L 193.91693038940429 180.1750030517578"/>
</defs>

<g transform="matrix( 0.9765625, 0, 0, 0.9765625, 6,6) ">
<use xlink:href="#bolsa_de_la_compra_png"/>
</g>

<g transform="matrix( 1.001129150390625, 0, 0, 0.998199462890625, -1.05,0) ">
<use xlink:href="#Layer1_0_FILL"/>

<use xlink:href="#Layer1_0_1_STROKES" transform="matrix( 0.998870849609375, 0, 0, 1.001800537109375, 1,0) "/>
</g>

<g transform="matrix( 1.0011138916015625, 0, 0, 0.998199462890625, -1.05,0) ">
<use xlink:href="#Layer0_0_FILL"/>

<use xlink:href="#Layer0_0_1_STROKES" transform="matrix( 0.9988861083984375, 0, 0, 1.001800537109375, 1,0) "/>
</g>
</svg>
