
<svg xmlns="http://www.w3.org/2000/svg" version="1.1" xmlns:xlink="http://www.w3.org/1999/xlink" preserveAspectRatio="none" x="0px" y="0px" width="512px" height="512px" viewBox="0 0 512 512">
<defs>
<image id="carrito_de_compras_png" x="0" y="0" width="512" height="512" xlink:href="./images/carrito_de_compras_png.png"/>

<g id="Layer1_0_FILL">
<path fill="#000000" stroke="none" d="
M 446.55 432.4
Q 446.55 414.35 433.75 401.5 421 388.75 402.95 388.75 384.9 388.75 372.1 401.5 359.35 414.35 359.35 432.4 359.35 450.45 372.1 463.2 384.9 476 402.95 476 421 476 433.75 463.2 446.55 450.45 446.55 432.4
M 240.4 432.4
Q 240.4 414.35 227.55 401.5 214.8 388.75 196.75 388.75 178.7 388.75 165.9 401.5 153.15 414.35 153.15 432.4 153.15 450.45 165.9 463.2 178.7 476 196.75 476 214.8 476 227.55 463.2 240.4 450.45 240.4 432.4
M 505.9 112.35
Q 507.05 99.55 494.6 95.3
L 134.25 95.3 123.3 50.2
Q 120.35 38.15 109.4 36
L 17.45 36
Q 5.85 41.15 6 51
L 6 51.05
Q 5.85 60.9 17.45 66
L 97.2 66 149.7 303.8
Q 124.4 315.05 123.6 344.15 124.6 379.85 162.5 388.65
L 435.6 388.65
Q 447.2 383.55 447.05 373.7
L 447.05 373.65
Q 447.2 363.8 435.6 358.7
L 167 358.7
Q 155.4 355.6 153.4 344.15 155.4 332.65 167 329.55
L 435.4 329.55
Q 437 329.2 438.4 328.55 443.25 326.3 446.2 320.35
L 505.9 112.35 Z"/>
</g>

<g id="Layer0_0_FILL">
<path fill="#FFFFFF" stroke="none" d="
M 446.55 432.4
Q 446.55 414.35 433.75 401.5 421 388.75 402.95 388.75 384.9 388.75 372.1 401.5 359.35 414.35 359.35 432.4 359.35 450.45 372.1 463.2 384.9 476 402.95 476 421 476 433.75 463.2 446.55 450.45 446.55 432.4
M 240.4 432.4
Q 240.4 414.35 227.55 401.5 214.8 388.75 196.75 388.75 178.7 388.75 165.9 401.5 153.15 414.35 153.15 432.4 153.15 450.45 165.9 463.2 178.7 476 196.75 476 214.8 476 227.55 463.2 240.4 450.45 240.4 432.4
M 505.9 112.35
Q 507.05 99.55 494.6 95.3
L 134.25 95.3 123.3 50.2
Q 120.35 38.15 109.4 36
L 17.45 36
Q 5.85 41.15 6 51
L 6 51.05
Q 5.85 60.9 17.45 66
L 97.2 66 149.7 303.8
Q 124.4 315.05 123.6 344.15 124.6 379.85 162.5 388.65
L 435.6 388.65
Q 447.2 383.55 447.05 373.7
L 447.05 373.65
Q 447.2 363.8 435.6 358.7
L 167 358.7
Q 155.4 355.6 153.4 344.15 155.4 332.65 167 329.55
L 435.4 329.55
Q 437 329.2 438.4 328.55 443.25 326.3 446.2 320.35
L 505.9 112.35 Z"/>
</g>

<path id="Layer1_0_1_STROKES" stroke="#00FFFF" stroke-width="1" stroke-linejoin="round" stroke-linecap="round" fill="none" d="
M 447.05 373.7
L 447.05 373.65"/>

<path id="Layer0_0_1_STROKES" stroke="#00FFFF" stroke-width="1" stroke-linejoin="round" stroke-linecap="round" fill="none" d="
M 447.05 373.7
L 447.05 373.65"/>
</defs>

<g transform="matrix( 0.9765625, 0, 0, 0.9765625, 6,6) ">
<use xlink:href="#carrito_de_compras_png"/>
</g>

<g transform="matrix( 1, 0, 0, 1, 0,0) ">
<use xlink:href="#Layer1_0_FILL"/>

<use xlink:href="#Layer1_0_1_STROKES"/>
</g>

<g transform="matrix( 1, 0, 0, 1, 0,0) ">
<use xlink:href="#Layer0_0_FILL"/>

<use xlink:href="#Layer0_0_1_STROKES"/>
</g>
</svg>
