
<svg xmlns="http://www.w3.org/2000/svg" version="1.1" xmlns:xlink="http://www.w3.org/1999/xlink" preserveAspectRatio="none" x="0px" y="0px" width="512px" height="512px" viewBox="0 0 512 512">
<defs>
<g id="Layer0_0_FILL">
<path fill="#FFFFFF" stroke="none" d="
M 504 25.45
L 493.9 12.1
Q 481.75 2.8 467.05 7.7
L 391.45 64.4
Q 387.15 68.65 391.65 74.85
L 398.75 84.2 379.95 98.05
Q 371.3 105.05 370.3 113.8
L 370.3 141.25
Q 370.25 143 367.35 145.8
L 348.85 159.85 310.55 108.45
Q 303.55 101.1 294.6 101.65 286.2 102.2 280.3 109.75
L 216.45 228.4
Q 214.25 232.45 212.1 236.55
L 210.65 239.25 13.7 239.25
Q 6.75 240.55 6.5 247.8
L 6.5 330.35
Q 6.75 337.6 13.7 338.9
L 73.25 338.9 73.25 406.35 13.7 406.35
Q 6.75 407.65 6.5 414.9
L 6.5 497.45
Q 6.75 504.7 13.7 506
L 418 506
Q 425 504.7 425.25 497.45
L 425.25 422.45 485.65 422.45
Q 491.75 420.85 492 414.1
L 492 331.35
Q 491.75 324.1 484.75 322.8
L 425.25 322.8 425.25 247.8
Q 425.2 245.95 424.7 244.5 423.2 240.2 418 239.25
L 399.2 239.25
Q 402.7 233.2 396 223.1
L 358.9 173.3 378.35 158.5
Q 386.05 153.15 387.25 142.2
L 387.25 117
Q 387.25 114.1 389.8 112.2
L 408.7 97.35 417.55 109.05
Q 422.45 113.1 426.95 109.55
L 498.65 55.75
Q 510.9 41.75 504 25.45
M 489.4 34.75
Q 490.85 40.05 487.35 43.15
L 487.3 43.2 424.45 90.4 410.3 71.05 473.15 23.85 473.2 23.85
Q 477.6 21.25 481.85 24.35
L 489.4 34.75
M 344.9 183.9
L 345 183.85 375.8 225.1
Q 379.45 229.95 383.15 234.9 383.4 235.25 383.65 235.6
L 384.2 236.35 211.75 273.8 295.75 117.75 295.75 117.8 334.95 170.35 300.5 196.35
Q 295.75 202.3 299.85 208.15 305.1 213.85 310.8 209.75
L 310.85 209.75 310.9 209.7 344.9 183.9
M 408 256.25
L 408 322.8 291.35 322.8 291.35 273.65 370.9 256.25 408 256.25
M 358.1 339.8
L 474.75 339.8 474.75 406.35 358.1 406.35 358.1 339.8
M 24 272.3
L 24 256.25 140.4 256.25 140.35 322.8 24 322.8 24 289.3 43.85 289.3
Q 49 285.95 49.4 280.8 49 275.65 43.85 272.3
L 24 272.3
M 157.9 322.8
L 157.9 256.25 201.5 256.25
Q 193.35 273.1 200.95 282 208.25 291.5 221.35 288.9
L 274.25 277.35 274.25 322.8 157.9 322.8
M 90.75 339.8
L 207.15 339.8 207.1 406.35 90.75 406.35 90.75 339.8
M 291.85 489.9
L 291.85 423.35 408.25 423.35 408 489.9 291.85 489.9
M 274.05 423.35
L 273.8 489.9 157.65 489.9 157.65 423.35 274.05 423.35
M 140.4 423.35
L 140.15 489.9 24 489.9 24 423.35 140.4 423.35
M 341.05 406.35
L 224.2 406.35 224.2 338.9 341 338.9 341.05 406.35
M 115.65 280.8
Q 115.25 275.65 110.1 272.3
L 70.75 272.3
Q 65.6 275.65 65.2 280.8 65.6 285.95 70.75 289.3
L 110.1 289.3
Q 115.25 285.95 115.65 280.8 Z"/>
</g>
</defs>

<g transform="matrix( 1, 0, 0, 1, 0,0) ">
<use xlink:href="#Layer0_0_FILL"/>
</g>
</svg>
