
<svg xmlns="http://www.w3.org/2000/svg" version="1.1" xmlns:xlink="http://www.w3.org/1999/xlink" preserveAspectRatio="none" x="0px" y="0px" width="512px" height="512px" viewBox="0 0 512 512">
<defs>
<g id="Layer0_0_FILL">
<path fill="#FFFFFF" stroke="none" d="
M 506.5 229.45
Q 506.1 228 505.6 226.65 505.55 226.5 505.5 226.35 498 205.5 475.5 199.55
L 312.95 199.55 312.95 37
Q 306.6 12.9 283.05 6
L 229.95 6
Q 206.4 12.9 200.05 37
L 200.05 199.55 37.5 199.55
Q 13.4 205.9 6.5 229.45
L 6.5 282.55
Q 13.4 306.1 37.5 312.45
L 200.05 312.45 200.05 475
Q 206 497.5 226.9 505 227 505.05 227.15 505.1 228.5 505.6 229.95 506
L 283.05 506
Q 284.5 505.6 285.85 505.1 286 505.05 286.15 505 307 497.5 312.95 475
L 312.95 312.45 475.5 312.45
Q 498 306.5 505.5 285.6 505.55 285.5 505.6 285.35 506.1 284 506.5 282.55
L 506.5 229.45
M 475.4 243.95
Q 475.6 244.5 475.75 245.1
L 475.75 266.95
Q 475.6 267.55 475.4 268.15 475.35 268.2 475.35 268.25 472.25 276.85 463 279.3
L 290.65 279.3
Q 281.2 284.5 279.8 291.2
L 279.8 462.45
Q 277.35 471.7 268.75 474.8 268.7 474.8 268.65 474.85 268.05 475.05 267.45 475.2
L 245.6 475.2
Q 245 475.05 244.45 474.85 244.4 474.8 244.3 474.8 235.7 471.7 233.25 462.45
L 233.25 291.15
Q 231.85 284.5 222.5 279.3
L 50 279.3
Q 40.8 276.85 37.7 268.25 37.7 268.2 37.65 268.15 37.45 267.55 37.3 266.95
L 37.3 245.1
Q 37.45 244.5 37.65 243.95 37.7 243.9 37.7 243.8 40.8 235.2 50 232.75
L 222.4 232.75
Q 231.85 227.55 233.25 220.85
L 233.25 49.45
Q 235.7 40.25 244.3 37.15 244.4 37.15 244.45 37.1 245 36.9 245.6 36.75
L 267.45 36.75
Q 268.05 36.9 268.65 37.1 268.7 37.15 268.75 37.15 277.35 40.25 279.8 49.45
L 279.8 220.85
Q 281.2 227.55 290.65 232.75
L 463 232.75
Q 472.25 235.2 475.35 243.8 475.35 243.9 475.4 243.95 Z"/>
</g>
</defs>

<g transform="matrix( 1, 0, 0, 1, 0,0) ">
<use xlink:href="#Layer0_0_FILL"/>
</g>
</svg>
