
<svg xmlns="http://www.w3.org/2000/svg" version="1.1" xmlns:xlink="http://www.w3.org/1999/xlink" preserveAspectRatio="none" x="0px" y="0px" width="1440px" height="480px" viewBox="0 0 1440 480">
<defs>
<image id="express_jpg" x="0" y="0" width="221" height="55" xlink:href="./images/express_jpg.jpg"/>

<g id="Layer3_0_FILL">
<path fill="#E74228" stroke="none" d="
M 1102.05 294.35
L 1041.05 301.85
Q 1049.4767578125 397.3181640625 1098.55 417.3
L 1164 417.3
Q 1207.3501953125 402.5017578125 1218.5 340.35 1228.7033203125 280.66015625 1209 243.4 1152.5248046875 263.0099609375 1096.05 259.9
L 1145.55 283.4
Q 1178.5578125 301.11328125 1161 338.35 1150.7716796875 357.593359375 1127.55 350.85 1106.2099609375 343.602734375 1102.05 294.35
M 1157.55 171.9
L 1213 165.9
Q 1218.8234375 101.7712890625 1168.55 69.35
L 1100.55 69.35
Q 1029.41484375 106.712890625 1068.55 228.9 1168.6498046875 232.5654296875 1193 215.4 1173.1240234375 196.2759765625 1141.55 186.9 1112.5298828125 179.7955078125 1105.05 162.9 1103.0724609375 127.326171875 1129.55 124.95 1158.473828125 129.521484375 1157.55 171.9
M 1409.4 243.4
Q 1401.55 224.75 1393.4 215.4 1385.369921875 207.6927734375 1375.45 201.55 1304.1515625 220.5341796875 1267.05 222.85 1267.9740234375 225.85390625 1268.95 228.9 1279.25 247.85 1296.45 259.9
L 1345.95 283.4
Q 1378.95 301.1 1361.4 338.35 1351.15 357.6 1327.95 350.85 1306.6 343.6 1302.45 294.35
L 1241.45 301.85
Q 1249.9 397.3 1298.95 417.3
L 1364.4 417.3
Q 1407.75 402.5 1418.9 340.35 1429.1 280.65 1409.4 243.4
M 1368.95 69.35
L 1300.95 69.35
Q 1236.5017578125 103.1818359375 1262.55 206.6 1293.7638671875 196.3880859375 1344.85 187.8 1343.4138671875 187.3361328125 1341.95 186.9 1312.95 179.8 1305.45 162.9 1303.45 127.35 1329.95 124.95 1358.85 129.5 1357.95 171.9
L 1413.4 165.9
Q 1419.2 101.75 1368.95 69.35 Z"/>
</g>

<g id="Layer3_1_FILL">
<path fill="#E74228" stroke="none" d="
M 185.6 149.15
L 185.6 69.35 25.35 69.35 25.35 288.35 87.2 288.35 87.2 269.1 178.8 269.1 178.8 197.95 87.2 197.95 87.2 149.15 185.6 149.15 Z"/>
</g>

<g id="Layer3_2_FILL">
<path fill="#E74228" stroke="none" d="
M 87.2 339.55
L 87.2 315.15 25.35 315.15 25.35 417.3 190.8 417.3 190.8 339.55 87.2 339.55 Z"/>
</g>

<g id="Layer3_3_FILL">
<path fill="#E74228" stroke="none" d="
M 608.4 175.15
Q 609.7453125 90.076171875 559.1 69.35
L 437.55 69.35 437.55 243.5 598 243.5 600.4 234.15
Q 607.9419921875 205.2505859375 608.4 175.15
M 535.1 137.15
Q 549.8087890625 148.5380859375 551.5 177.15 551.098828125 213.6685546875 530.7 219.95
L 495.5 219.95 495.5 137.15 535.1 137.15 Z"/>
</g>

<g id="Layer3_4_FILL">
<path fill="#E74228" stroke="none" d="
M 572.9 279.95
Q 579.6271484375 274.106640625 583.5 264.35
L 437.55 264.35 437.55 417.3 495.5 417.3 495.5 287.95 555.1 287.95
Q 565.65546875 286.2205078125 572.9 279.95 Z"/>
</g>

<g id="Layer3_5_FILL">
<path fill="#E74228" stroke="none" d="
M 803.95 238.7
Q 826.5396484375 193.4548828125 814.85 136.6 803.1669921875 79.7921875 763.45 69.35
L 640 69.35 640.2 210.75
Q 640.2263671875 210.9966796875 640.2 211.2 640.23984375 224.965625 640.25 238.7
L 803.95 238.7
M 756.85 172.95
Q 756.75 181.95 754.95 188.75 750.55 205.6 736.05 209.4
L 700.85 209.4 700.85 138.9 740.45 138.9
Q 753.75 147.7 756.4 168.5 756.7 170.7 756.85 172.95 Z"/>
</g>

<g id="Layer3_6_FILL">
<path fill="#E74228" stroke="none" d="
M 701.1 276.15
L 714.75 276.15
Q 740.3501953125 315.68984375 753.7 367.95 754.82734375 372.404296875 755.85 376.95 760.3484375 396.2888671875 763.2 417.3
L 832.2 417.3
Q 827.7939453125 389.48515625 821.85 365.95 819.76171875 357.6857421875 817.45 349.95 799.8830078125 290.18125 770.95 261.9
L 640.25 261.9 640.25 417.3 701.25 417.3 701.1 276.15 Z"/>
</g>

<g id="Layer3_7_FILL">
<path fill="#E74228" stroke="none" d="
M 1015.1 139.4
L 1015.1 69.35 851.15 69.35 851.15 237.35 1008.85 237.35 1008.85 196.9 915.65 196.9 915.65 139.4 1015.1 139.4 Z"/>
</g>

<g id="Layer3_8_FILL">
<path fill="#E74228" stroke="none" d="
M 1008.85 270.35
L 1008.85 255.1 851.15 255.1 851.15 417.3 1018.1 417.3 1018.1 340.35 915.65 340.35 915.65 270.35 1008.85 270.35 Z"/>
</g>

<g id="Layer3_9_FILL">
<path fill="#E74228" stroke="none" d="
M 209.55 417.3
L 271.1 417.3 311.5 306.35 351.9 417.3 425.5 417.3 371.6 279.9 245.9 307.6 209.55 417.3
M 414.3 69.35
L 349.9 69.35 311.5 167.95 273.5 69.35 209.15 69.35 271.9 229.15 256.1 276.8 361.95 255.25 354.7 236.75 414.3 69.35 Z"/>
</g>

<g id="Layer2_0_FILL">
<path fill="#E74228" stroke="none" d="
M 209.55 417.3
L 271.1 417.3 311.5 306.35 351.9 417.3 425.5 417.3 371.6 279.9 245.9 307.6 209.55 417.3
M 87.2 339.55
L 87.2 315.15 25.35 315.15 25.35 417.3 190.8 417.3 190.8 339.55 87.2 339.55
M 185.6 149.15
L 185.6 69.35 25.35 69.35 25.35 288.35 87.2 288.35 87.2 269.1 178.8 269.1 178.8 197.95 87.2 197.95 87.2 149.15 185.6 149.15
M 572.9 279.95
Q 579.6271484375 274.106640625 583.5 264.35
L 437.55 264.35 437.55 417.3 495.5 417.3 495.5 287.95 555.1 287.95
Q 565.65546875 286.2205078125 572.9 279.95
M 414.3 69.35
L 349.9 69.35 311.5 167.95 273.5 69.35 209.15 69.35 271.9 229.15 256.1 276.8 361.95 255.25 354.7 236.75 414.3 69.35
M 608.4 175.15
Q 609.7453125 90.076171875 559.1 69.35
L 437.55 69.35 437.55 243.5 598 243.5 600.4 234.15
Q 607.9419921875 205.2505859375 608.4 175.15
M 535.1 137.15
Q 549.8087890625 148.5380859375 551.5 177.15 551.098828125 213.6685546875 530.7 219.95
L 495.5 219.95 495.5 137.15 535.1 137.15
M 803.95 238.7
Q 826.5396484375 193.4548828125 814.85 136.6 803.1669921875 79.7921875 763.45 69.35
L 640 69.35 640.2 210.75
Q 640.2263671875 210.9966796875 640.2 211.2 640.23984375 224.965625 640.25 238.7
L 803.95 238.7
M 756.85 172.95
Q 756.75 181.95 754.95 188.75 750.55 205.6 736.05 209.4
L 700.85 209.4 700.85 138.9 740.45 138.9
Q 753.75 147.7 756.4 168.5 756.7 170.7 756.85 172.95
M 701.1 276.15
L 714.75 276.15
Q 740.3501953125 315.68984375 753.7 367.95 754.82734375 372.404296875 755.85 376.95 760.3484375 396.2888671875 763.2 417.3
L 832.2 417.3
Q 827.7939453125 389.48515625 821.85 365.95 819.76171875 357.6857421875 817.45 349.95 799.8830078125 290.18125 770.95 261.9
L 640.25 261.9 640.25 417.3 701.25 417.3 701.1 276.15
M 1102.05 294.35
L 1041.05 301.85
Q 1049.4767578125 397.3181640625 1098.55 417.3
L 1164 417.3
Q 1207.3501953125 402.5017578125 1218.5 340.35 1228.7033203125 280.66015625 1209 243.4 1152.5248046875 263.0099609375 1096.05 259.9
L 1145.55 283.4
Q 1178.5578125 301.11328125 1161 338.35 1150.7716796875 357.593359375 1127.55 350.85 1106.2099609375 343.602734375 1102.05 294.35
M 1008.85 270.35
L 1008.85 255.1 851.15 255.1 851.15 417.3 1018.1 417.3 1018.1 340.35 915.65 340.35 915.65 270.35 1008.85 270.35
M 1015.1 139.4
L 1015.1 69.35 851.15 69.35 851.15 237.35 1008.85 237.35 1008.85 196.9 915.65 196.9 915.65 139.4 1015.1 139.4
M 1157.55 171.9
L 1213 165.9
Q 1218.8234375 101.7712890625 1168.55 69.35
L 1100.55 69.35
Q 1029.41484375 106.712890625 1068.55 228.9 1168.6498046875 232.5654296875 1193 215.4 1173.1240234375 196.2759765625 1141.55 186.9 1112.5298828125 179.7955078125 1105.05 162.9 1103.0724609375 127.326171875 1129.55 124.95 1158.473828125 129.521484375 1157.55 171.9
M 1409.4 243.4
Q 1401.55 224.75 1393.4 215.4 1385.369921875 207.6927734375 1375.45 201.55 1304.1515625 220.5341796875 1267.05 222.85 1267.9740234375 225.85390625 1268.95 228.9 1279.25 247.85 1296.45 259.9
L 1345.95 283.4
Q 1378.95 301.1 1361.4 338.35 1351.15 357.6 1327.95 350.85 1306.6 343.6 1302.45 294.35
L 1241.45 301.85
Q 1249.9 397.3 1298.95 417.3
L 1364.4 417.3
Q 1407.75 402.5 1418.9 340.35 1429.1 280.65 1409.4 243.4
M 1368.95 69.35
L 1300.95 69.35
Q 1236.5017578125 103.1818359375 1262.55 206.6 1293.7638671875 196.3880859375 1344.85 187.8 1343.4138671875 187.3361328125 1341.95 186.9 1312.95 179.8 1305.45 162.9 1303.45 127.35 1329.95 124.95 1358.85 129.5 1357.95 171.9
L 1413.4 165.9
Q 1419.2 101.75 1368.95 69.35 Z"/>
</g>

<g id="Layer1_0_FILL">
<path fill="#3D2B9B" stroke="none" d="
M 205.7 414
L 267.25 414 307.65 303.05 348.05 414 421.65 414 367.8 276.6 242.1 304.3 205.7 414
M 83.35 336.25
L 83.35 311.85 21.5 311.85 21.5 414 186.95 414 186.95 336.25 83.35 336.25
M 181.75 145.85
L 181.75 66.05 21.5 66.05 21.5 285.05 83.35 285.05 83.35 265.8 174.95 265.8 174.95 194.65 83.35 194.65 83.35 145.85 181.75 145.85
M 569.05 276.65
Q 575.8 270.8 579.65 261.05
L 433.7 261.05 433.7 414 491.65 414 491.65 284.65 551.25 284.65
Q 561.8 282.9 569.05 276.65
M 410.45 66.05
L 346.05 66.05 307.65 164.65 269.65 66.05 205.3 66.05 268.05 225.85 252.3 273.5 358.1 251.95 350.85 233.45 410.45 66.05
M 604.55 171.85
Q 605.9 86.8 555.25 66.05
L 433.7 66.05 433.7 240.2 594.15 240.2 596.55 230.9
Q 604.1 201.95 604.55 171.85
M 491.65 133.85
L 531.25 133.85
Q 545.95 145.25 547.65 173.85 547.25 210.35 526.85 216.65
L 491.65 216.65 491.65 133.85
M 800.1 235.4
Q 822.7 190.15 811 133.35 799.3 76.5 759.6 66.05
L 636.15 66.05 636.4 207.5
Q 636.4 207.7 636.4 207.95 636.4 221.65 636.4 235.4
L 800.1 235.4
M 753 169.65
Q 752.9 178.65 751.1 185.45 746.7 202.3 732.2 206.1
L 697 206.1 697 135.6 736.6 135.6
Q 749.9 144.4 752.55 165.2 752.85 167.4 753 169.65
M 697.25 272.85
L 710.9 272.85
Q 736.5 312.4 749.85 364.65 751 369.1 752.05 373.65 756.5 393 759.35 414
L 828.35 414
Q 823.95 386.2 818 362.65 815.9 354.4 813.65 346.65 796.05 286.9 767.1 258.6
L 636.4 258.6 636.4 414 697.4 414 697.25 272.85
M 1123.7 347.55
Q 1102.35 340.3 1098.2 291.05
L 1037.2 298.55
Q 1045.65 394 1094.7 414
L 1160.15 414
Q 1203.5 399.2 1214.65 337.05 1224.85 277.35 1205.15 240.1 1148.65 259.7 1092.2 256.6
L 1141.7 280.1
Q 1174.7 297.8 1157.15 335.05 1146.9 354.3 1123.7 347.55
M 1005 267.05
L 1005 251.8 847.3 251.8 847.3 414 1014.25 414 1014.25 337.05 911.8 337.05 911.8 267.05 1005 267.05
M 1011.25 136.1
L 1011.25 66.05 847.3 66.05 847.3 234.05 1005 234.05 1005 193.6 911.8 193.6 911.8 136.1 1011.25 136.1
M 1153.7 168.6
L 1209.15 162.6
Q 1214.95 98.45 1164.7 66.05
L 1096.7 66.05
Q 1025.55 103.4 1064.7 225.6 1164.8 229.25 1189.15 212.1 1169.25 193 1137.7 183.6 1108.7 176.5 1101.2 159.6 1099.2 124.05 1125.7 121.65 1154.6 126.2 1153.7 168.6
M 1405.55 240.1
Q 1397.7 221.45 1389.55 212.1 1381.5 204.4 1371.6 198.3 1300.3 217.25 1263.25 219.55 1264.1 222.55 1265.1 225.6 1275.4 244.55 1292.6 256.6
L 1342.1 280.1
Q 1375.1 297.8 1357.55 335.05 1347.3 354.3 1324.1 347.55 1302.75 340.3 1298.6 291.05
L 1237.6 298.55
Q 1246.05 394 1295.1 414
L 1360.55 414
Q 1403.9 399.2 1415.05 337.05 1425.25 277.35 1405.55 240.1
M 1365.1 66.05
L 1297.1 66.05
Q 1232.65 99.9 1258.7 203.35 1289.9 193.1 1341 184.5 1339.55 184.05 1338.1 183.6 1309.1 176.5 1301.6 159.6 1299.6 124.05 1326.1 121.65 1355 126.2 1354.1 168.6
L 1409.55 162.6
Q 1415.35 98.45 1365.1 66.05 Z"/>
</g>

<g id="Layer0_0_FILL">
<path fill="#821113" stroke="none" d="
M 205.7 414
L 267.25 414 307.65 303.05 348.05 414 421.65 414 367.8 276.6 242.1 304.3 205.7 414
M 83.35 336.25
L 83.35 311.85 21.5 311.85 21.5 414 186.95 414 186.95 336.25 83.35 336.25
M 181.75 145.85
L 181.75 66.05 21.5 66.05 21.5 285.05 83.35 285.05 83.35 265.8 174.95 265.8 174.95 194.65 83.35 194.65 83.35 145.85 181.75 145.85
M 569.05 276.65
Q 575.8 270.8 579.65 261.05
L 433.7 261.05 433.7 414 491.65 414 491.65 284.65 551.25 284.65
Q 561.8 282.9 569.05 276.65
M 410.45 66.05
L 346.05 66.05 307.65 164.65 269.65 66.05 205.3 66.05 268.05 225.85 252.3 273.5 358.1 251.95 350.85 233.45 410.45 66.05
M 604.55 171.85
Q 605.9 86.8 555.25 66.05
L 433.7 66.05 433.7 240.2 594.15 240.2 596.55 230.9
Q 604.1 201.95 604.55 171.85
M 491.65 133.85
L 531.25 133.85
Q 545.95 145.25 547.65 173.85 547.25 210.35 526.85 216.65
L 491.65 216.65 491.65 133.85
M 811 133.35
Q 799.3 76.5 759.6 66.05
L 636.15 66.05 636.4 207.5
Q 636.4 207.7 636.4 207.95 636.4 221.65 636.4 235.4
L 800.1 235.4
Q 822.7 190.15 811 133.35
M 752.55 165.2
Q 752.85 167.4 753 169.65 752.9 178.65 751.1 185.45 746.7 202.3 732.2 206.1
L 697 206.1 697 135.6 736.6 135.6
Q 749.9 144.4 752.55 165.2
M 697.25 272.85
L 710.9 272.85
Q 736.5 312.4 749.85 364.65 751 369.1 752.05 373.65 756.5 393 759.35 414
L 828.35 414
Q 823.95 386.2 818 362.65 815.9 354.4 813.65 346.65 796.05 286.9 767.1 258.6
L 636.4 258.6 636.4 414 697.4 414 697.25 272.85
M 1123.7 347.55
Q 1102.35 340.3 1098.2 291.05
L 1037.2 298.55
Q 1045.65 394 1094.7 414
L 1160.15 414
Q 1203.5 399.2 1214.65 337.05 1224.85 277.35 1205.15 240.1 1148.65 259.7 1092.2 256.6
L 1141.7 280.1
Q 1174.7 297.8 1157.15 335.05 1146.9 354.3 1123.7 347.55
M 1005 267.05
L 1005 251.8 847.3 251.8 847.3 414 1014.25 414 1014.25 337.05 911.8 337.05 911.8 267.05 1005 267.05
M 1011.25 136.1
L 1011.25 66.05 847.3 66.05 847.3 234.05 1005 234.05 1005 193.6 911.8 193.6 911.8 136.1 1011.25 136.1
M 1153.7 168.6
L 1209.15 162.6
Q 1214.95 98.45 1164.7 66.05
L 1096.7 66.05
Q 1025.55 103.4 1064.7 225.6 1164.8 229.25 1189.15 212.1 1169.25 193 1137.7 183.6 1108.7 176.5 1101.2 159.6 1099.2 124.05 1125.7 121.65 1154.6 126.2 1153.7 168.6
M 1405.55 240.1
Q 1397.7 221.45 1389.55 212.1 1381.5 204.4 1371.6 198.3 1300.3 217.25 1263.25 219.55 1264.1 222.55 1265.1 225.6 1275.4 244.55 1292.6 256.6
L 1342.1 280.1
Q 1375.1 297.8 1357.55 335.05 1347.3 354.3 1324.1 347.55 1302.75 340.3 1298.6 291.05
L 1237.6 298.55
Q 1246.05 394 1295.1 414
L 1360.55 414
Q 1403.9 399.2 1415.05 337.05 1425.25 277.35 1405.55 240.1
M 1365.1 66.05
L 1297.1 66.05
Q 1232.65 99.9 1258.7 203.35 1289.9 193.1 1341 184.5 1339.55 184.05 1338.1 183.6 1309.1 176.5 1301.6 159.6 1299.6 124.05 1326.1 121.65 1355 126.2 1354.1 168.6
L 1409.55 162.6
Q 1415.35 98.45 1365.1 66.05 Z"/>
</g>

<path id="Layer3_0_1_STROKES" stroke="#000000" stroke-width="1" stroke-linejoin="round" stroke-linecap="round" fill="none" d="
M 1299.35 69.35
L 1300.95 69.35 1368.95 69.35 1369.95 69.35
M 1300.95 69.35
Q 1236.5017578125 103.1818359375 1262.55 206.625 1293.7638671875 196.3880859375 1344.85 187.8 1343.4138671875 187.3361328125 1341.95 186.9 1312.95 179.8 1305.45 162.9 1303.45 127.35 1329.95 124.95 1358.85 129.5 1357.95 171.9
L 1413.4 165.9
Q 1419.2 101.75 1368.95 69.35
M 1298.95 417.3
Q 1249.9 397.3 1241.45 301.85
L 1302.45 294.35
Q 1306.6 343.6 1327.95 350.85 1351.15 357.6 1361.4 338.35 1378.95 301.1 1345.95 283.4
L 1296.45 259.9
Q 1279.25 247.85 1268.95 228.9 1267.9740234375 225.85390625 1267.075 222.85 1304.1515625 220.5341796875 1375.45 201.575 1385.369921875 207.6927734375 1393.4 215.4 1401.55 224.75 1409.4 243.4 1429.1 280.65 1418.9 340.35 1407.75 402.5 1364.4 417.3
L 1366.25 417.3
M 1298.05 417.3
L 1298.95 417.3 1364.4 417.3
M 1168.55 69.35
L 1169.525 69.35
M 1100.55 69.35
Q 1029.41484375 106.712890625 1068.55 228.9 1168.6498046875 232.5654296875 1193 215.4 1173.1240234375 196.2759765625 1141.55 186.9 1112.5298828125 179.7955078125 1105.05 162.9 1103.0724609375 127.326171875 1129.55 124.95 1158.473828125 129.521484375 1157.55 171.9
L 1213 165.9
Q 1218.8234375 101.7712890625 1168.55 69.35
L 1100.55 69.35 1098.95 69.35
M 1164 417.3
Q 1207.3501953125 402.5017578125 1218.5 340.35 1228.7033203125 280.66015625 1209 243.4 1152.5248046875 263.0099609375 1096.05 259.9
L 1145.55 283.4
Q 1178.5578125 301.11328125 1161 338.35 1150.7716796875 357.593359375 1127.55 350.85 1106.2099609375 343.602734375 1102.05 294.35
L 1041.05 301.85
Q 1049.4767578125 397.3181640625 1098.55 417.3
L 1164 417.3 1165.85 417.3
M 1098.55 417.3
L 1097.625 417.3"/>

<path id="Layer3_1_1_STROKES" stroke="#000000" stroke-width="1" stroke-linejoin="round" stroke-linecap="round" fill="none" d="
M 25.35 69.35
L 185.6 69.35 185.6 149.15 87.2 149.15 87.2 197.95 178.8 197.95 178.8 269.1 87.2 269.1 87.2 288.35 25.35 288.35 25.35 69.35 Z"/>

<path id="Layer3_2_1_STROKES" stroke="#000000" stroke-width="1" stroke-linejoin="round" stroke-linecap="round" fill="none" d="
M 87.2 315.15
L 25.35 315.15 25.35 417.3 190.8 417.3 190.8 339.55 87.2 339.55 87.2 315.15 Z"/>

<path id="Layer3_3_1_STROKES" stroke="#000000" stroke-width="1" stroke-linejoin="round" stroke-linecap="round" fill="none" d="
M 495.5 137.15
L 535.1 137.15
Q 549.8087890625 148.5380859375 551.5 177.15 551.098828125 213.6685546875 530.7 219.95
L 495.5 219.95 495.5 137.15 Z
M 437.55 69.35
L 559.1 69.35
Q 609.7453125 90.076171875 608.4 175.15 607.9419921875 205.2505859375 600.4 234.175
L 598 243.5 437.55 243.5 437.55 69.35 Z"/>

<path id="Layer3_4_1_STROKES" stroke="#000000" stroke-width="1" stroke-linejoin="round" stroke-linecap="round" fill="none" d="
M 583.5 264.35
Q 579.6271484375 274.106640625 572.9 279.95 565.65546875 286.2205078125 555.1 287.95
L 495.5 287.95 495.5 417.3 437.55 417.3 437.55 264.35 583.5 264.35 Z"/>

<path id="Layer3_5_1_STROKES" stroke="#000000" stroke-width="1" stroke-linejoin="round" stroke-linecap="round" fill="none" d="
M 700.85 138.9
L 740.45 138.9
Q 753.75 147.7 756.4 168.5 756.7 170.7 756.85 172.95 756.75 181.95 754.95 188.75 750.55 205.6 736.05 209.4
L 700.85 209.4 700.85 138.9 Z
M 640.25 238.7
Q 640.23984375 224.965625 640.225 211.225 640.2263671875 210.9966796875 640.225 210.775
L 640 69.35 763.45 69.35
Q 803.1669921875 79.7921875 814.85 136.625 826.5396484375 193.4548828125 803.95 238.7
L 640.25 238.7 Z"/>

<path id="Layer3_6_1_STROKES" stroke="#000000" stroke-width="1" stroke-linejoin="round" stroke-linecap="round" fill="none" d="
M 701.25 417.3
L 701.1 276.15 714.75 276.15
Q 740.3501953125 315.68984375 753.7 367.95 754.82734375 372.404296875 755.875 376.95 760.3484375 396.2888671875 763.2 417.3
L 832.2 417.3
Q 827.7939453125 389.48515625 821.85 365.95 819.76171875 357.6857421875 817.475 349.95 799.8830078125 290.18125 770.95 261.9
L 640.25 261.9 640.25 417.3 701.25 417.3 Z"/>

<path id="Layer3_7_1_STROKES" stroke="#000000" stroke-width="1" stroke-linejoin="round" stroke-linecap="round" fill="none" d="
M 1015.1 69.35
L 1015.1 139.4 915.65 139.4 915.65 196.9 1008.85 196.9 1008.85 237.35 851.15 237.35 851.15 69.35 1015.1 69.35 Z"/>

<path id="Layer3_8_1_STROKES" stroke="#000000" stroke-width="1" stroke-linejoin="round" stroke-linecap="round" fill="none" d="
M 1018.1 417.3
L 851.15 417.3 851.15 255.1 1008.85 255.1 1008.85 270.35 915.65 270.35 915.65 340.35 1018.1 340.35 1018.1 417.3 Z"/>

<path id="Layer3_9_1_STROKES" stroke="#000000" stroke-width="1" stroke-linejoin="round" stroke-linecap="round" fill="none" d="
M 414.8 69.35
L 414.3 69.35 354.7 236.75 361.95 255.25 256.125 276.8 271.9 229.15 209.15 69.35 273.5 69.35 311.5 167.95 349.9 69.35 414.3 69.35
M 425.5 417.3
L 371.625 279.9 245.925 307.6 209.55 417.3 271.1 417.3 311.5 306.35 351.9 417.3 425.5 417.3 Z"/>
</defs>

<g transform="matrix( 6.4683837890625, 0, 0, 6.4683837890625, 5,62) ">
<use xlink:href="#express_jpg"/>
</g>

<g transform="matrix( 1, 0, 0, 1, 0,0) ">
<use xlink:href="#Layer3_0_FILL"/>

<use xlink:href="#Layer3_0_1_STROKES"/>
</g>

<g transform="matrix( 1, 0, 0, 1, 0,0) ">
<use xlink:href="#Layer3_1_FILL"/>

<use xlink:href="#Layer3_1_1_STROKES"/>
</g>

<g transform="matrix( 1, 0, 0, 1, 0,0) ">
<use xlink:href="#Layer3_2_FILL"/>

<use xlink:href="#Layer3_2_1_STROKES"/>
</g>

<g transform="matrix( 1, 0, 0, 1, 0,0) ">
<use xlink:href="#Layer3_3_FILL"/>

<use xlink:href="#Layer3_3_1_STROKES"/>
</g>

<g transform="matrix( 1, 0, 0, 1, 0,0) ">
<use xlink:href="#Layer3_4_FILL"/>

<use xlink:href="#Layer3_4_1_STROKES"/>
</g>

<g transform="matrix( 1, 0, 0, 1, 0,0) ">
<use xlink:href="#Layer3_5_FILL"/>

<use xlink:href="#Layer3_5_1_STROKES"/>
</g>

<g transform="matrix( 1, 0, 0, 1, 0,0) ">
<use xlink:href="#Layer3_6_FILL"/>

<use xlink:href="#Layer3_6_1_STROKES"/>
</g>

<g transform="matrix( 1, 0, 0, 1, 0,0) ">
<use xlink:href="#Layer3_7_FILL"/>

<use xlink:href="#Layer3_7_1_STROKES"/>
</g>

<g transform="matrix( 1, 0, 0, 1, 0,0) ">
<use xlink:href="#Layer3_8_FILL"/>

<use xlink:href="#Layer3_8_1_STROKES"/>
</g>

<g transform="matrix( 1, 0, 0, 1, 0,0) ">
<use xlink:href="#Layer3_9_FILL"/>

<use xlink:href="#Layer3_9_1_STROKES"/>
</g>

<g transform="matrix( 1, 0, 0, 1, -3.85,-3.3) ">
<use xlink:href="#Layer2_0_FILL"/>
</g>

<g transform="matrix( 1, 0, 0, 1, 0,0) ">
<use xlink:href="#Layer1_0_FILL"/>
</g>

<g transform="matrix( 1, 0, 0, 1, 0,0) ">
<use xlink:href="#Layer0_0_FILL"/>
</g>
</svg>
