
<svg xmlns="http://www.w3.org/2000/svg" version="1.1" xmlns:xlink="http://www.w3.org/1999/xlink" preserveAspectRatio="none" x="0px" y="0px" width="1440px" height="480px" viewBox="0 0 1440 480">
<defs>
<g id="Layer0_0_FILL">
<path fill="#821113" stroke="none" d="
M 205.7 414
L 267.25 414 307.65 303.05 348.05 414 421.65 414 367.8 276.6 242.1 304.3 205.7 414
M 83.35 336.25
L 83.35 311.85 21.5 311.85 21.5 414 186.95 414 186.95 336.25 83.35 336.25
M 181.75 145.85
L 181.75 66.05 21.5 66.05 21.5 285.05 83.35 285.05 83.35 265.8 174.95 265.8 174.95 194.65 83.35 194.65 83.35 145.85 181.75 145.85
M 569.05 276.65
Q 575.8 270.8 579.65 261.05
L 433.7 261.05 433.7 414 491.65 414 491.65 284.65 551.25 284.65
Q 561.8 282.9 569.05 276.65
M 410.45 66.05
L 346.05 66.05 307.65 164.65 269.65 66.05 205.3 66.05 268.05 225.85 252.3 273.5 358.1 251.95 350.85 233.45 410.45 66.05
M 604.55 171.85
Q 605.9 86.8 555.25 66.05
L 433.7 66.05 433.7 240.2 594.15 240.2 596.55 230.9
Q 604.1 201.95 604.55 171.85
M 531.25 133.85
Q 545.95 145.25 547.65 173.85 547.25 210.35 526.85 216.65
L 491.65 216.65 491.65 133.85 531.25 133.85
M 800.1 235.4
Q 822.7 190.15 811 133.35 799.3 76.5 759.6 66.05
L 636.15 66.05 636.4 207.5
Q 636.4 207.7 636.4 207.95 636.4 221.65 636.4 235.4
L 800.1 235.4
M 753 169.65
Q 752.9 178.65 751.1 185.45 746.7 202.3 732.2 206.1
L 697 206.1 697 135.6 736.6 135.6
Q 749.9 144.4 752.55 165.2 752.85 167.4 753 169.65
M 697.25 272.85
L 710.9 272.85
Q 736.5 312.4 749.85 364.65 751 369.1 752.05 373.65 756.5 393 759.35 414
L 828.35 414
Q 823.95 386.2 818 362.65 815.9 354.4 813.65 346.65 796.05 286.9 767.1 258.6
L 636.4 258.6 636.4 414 697.4 414 697.25 272.85
M 1098.2 291.05
L 1037.2 298.55
Q 1045.65 394 1094.7 414
L 1160.15 414
Q 1203.5 399.2 1214.65 337.05 1224.85 277.35 1205.15 240.1 1148.65 259.7 1092.2 256.6
L 1141.7 280.1
Q 1174.7 297.8 1157.15 335.05 1146.9 354.3 1123.7 347.55 1102.35 340.3 1098.2 291.05
M 1005 267.05
L 1005 251.8 847.3 251.8 847.3 414 1014.25 414 1014.25 337.05 911.8 337.05 911.8 267.05 1005 267.05
M 1011.25 136.1
L 1011.25 66.05 847.3 66.05 847.3 234.05 1005 234.05 1005 193.6 911.8 193.6 911.8 136.1 1011.25 136.1
M 1153.7 168.6
L 1209.15 162.6
Q 1214.95 98.45 1164.7 66.05
L 1096.7 66.05
Q 1025.55 103.4 1064.7 225.6 1164.8 229.25 1189.15 212.1 1169.25 193 1137.7 183.6 1108.7 176.5 1101.2 159.6 1099.2 124.05 1125.7 121.65 1154.6 126.2 1153.7 168.6
M 1405.55 240.1
Q 1397.7 221.45 1389.55 212.1 1381.5 204.4 1371.6 198.3 1300.3 217.25 1263.25 219.55 1264.1 222.55 1265.1 225.6 1275.4 244.55 1292.6 256.6
L 1342.1 280.1
Q 1375.1 297.8 1357.55 335.05 1347.3 354.3 1324.1 347.55 1302.75 340.3 1298.6 291.05
L 1237.6 298.55
Q 1246.05 394 1295.1 414
L 1360.55 414
Q 1403.9 399.2 1415.05 337.05 1425.25 277.35 1405.55 240.1
M 1365.1 66.05
L 1297.1 66.05
Q 1232.65 99.9 1258.7 203.35 1289.9 193.1 1341 184.5 1339.55 184.05 1338.1 183.6 1309.1 176.5 1301.6 159.6 1299.6 124.05 1326.1 121.65 1355 126.2 1354.1 168.6
L 1409.55 162.6
Q 1415.35 98.45 1365.1 66.05 Z"/>
</g>
</defs>

<g transform="matrix( 1, 0, 0, 1, 0,0) ">
<use xlink:href="#Layer0_0_FILL"/>
</g>
</svg>
