<?xml version="1.0" standalone="no"?>
<!DOCTYPE svg PUBLIC "-//W3C//DTD SVG 20010904//EN"
 "http://www.w3.org/TR/2001/REC-SVG-20010904/DTD/svg10.dtd">
<svg version="1.0" xmlns="http://www.w3.org/2000/svg"
 width="512.000000pt" height="512.000000pt" viewBox="0 0 512.000000 512.000000"
 preserveAspectRatio="xMidYMid meet">
<metadata>
Created by potrace 1.16, written by Peter Selinger 2001-2019
</metadata>
<g transform="translate(0.000000,512.000000) scale(0.100000,-0.100000)"
fill="#000000" stroke="none">
<path d="M525 5105 c-268 -72 -460 -270 -515 -531 -7 -33 -10 -698 -8 -2044
l3 -1995 21 -56 c91 -237 216 -362 453 -453 56 -21 61 -21 1059 -24 l1002 -2
0 914 0 915 -252 3 c-276 3 -287 6 -319 65 -20 38 -21 647 0 686 28 52 56 57
325 57 l246 0 0 338 c0 440 20 574 111 757 138 275 384 441 719 485 41 5 205
10 363 10 326 0 347 -4 372 -64 21 -50 22 -531 1 -581 -24 -57 -46 -62 -291
-68 -238 -5 -295 -15 -365 -61 -22 -14 -51 -43 -64 -64 -49 -73 -56 -131 -56
-454 l0 -297 376 -3 376 -3 29 -33 c37 -42 37 -46 -6 -406 -37 -317 -41 -330
-106 -353 -23 -8 -133 -12 -351 -12 l-318 -1 0 -915 0 -916 628 3 627 3 83 32
c225 87 376 256 437 489 13 51 15 304 15 2034 0 1730 -2 1983 -15 2034 -61
233 -212 402 -437 489 l-83 32 -2005 2 c-1661 1 -2014 -1 -2055 -12z"/>
</g>
</svg>
