
<svg xmlns="http://www.w3.org/2000/svg" version="1.1" xmlns:xlink="http://www.w3.org/1999/xlink" preserveAspectRatio="none" x="0px" y="0px" width="512px" height="512px" viewBox="0 0 512 512">
<defs>
<g id="Layer0_0_FILL">
<path fill="#FFFFFF" stroke="none" d="
M 364.35 39.1
Q 363.2900390625 38.3107421875 362.05 37.6 258.95 -22.3 171.3 30.25
L 93.15 92.5
Q 86.25 101.2 91 109.85 100.95 123.5 89.9 132.45 81.6888671875 139.1005859375 73.45 133.6 70.6017578125 131.702734375 67.75 128.35 67.15390625 127.7490234375 66.5 127.25 60.623828125 122.5712890625 51.15 126
L 21.9 149.3
Q -4 176.25 11.05 204.1
L 55.95 260.75
Q 59.222265625 263.7724609375 62.55 266.1 86.6876953125 282.90546875 114.7 263.85
L 142.05 241.55
Q 149.75 233 143.95 221.65 142 218.6 140.95 215.5 139.5 209.2 142.35 205.15 150.2 195.5 161 199.35 162.56171875 200.14453125 164 201.25 165.219921875 202.169921875 166.35 203.3 167.9625 205.65546875 170.15 207.05 174.89609375 210.0703125 182.35 208.6
L 410.15 490.25
Q 411.1166015625 490.9853515625 412.1 491.65 412.55 492 413 492.3 421.9875 497.1375 430.95 501.95 458.116796875 511.1263671875 485.5 491.5 495.95 479.8 500.95 468.95 501.6 467.5 502.2 466.05 511.25 442.6 495.2 415.1
L 269.8 137.15 269.75 137.15
Q 273.5 131.35 269.05 120.9
L 250.55 98.05
Q 287.4 66.25 357.9 65.4 369.2 62.5 370.25 51.2 370.25 43.6458984375 364.35 39.1
M 256.05 252.25
L 297.35 218.3 473.3 435.75
Q 480.2 456.25 465.75 468.05 449.4181640625 478.7095703125 431.15 468.5 430.7623046875 468.2904296875 430.35 468.05
L 256.05 252.25
M 246.85 155.85
L 278.7 194.65 236.8 229.05 205.2 189.9 246.85 155.85
M 300.9 41.7
Q 300.4873046875 41.7869140625 300.05 41.85 259.6771484375 50.65703125 218.3 85.6 211.3 94.05 216.55 103.45
L 235.9 127 176.95 174.65
Q 150.6 161 127.25 177.65 104.8 195.35 112.8 226.3
L 93.05 242.55
Q 84.072265625 244.643359375 77.7 240.75 77.21328125 240.473828125 76.75 240.15
L 36.35 189.85
Q 33.35 184.2 37.5 175.75
L 57.65 159.2
Q 86.2 173.1 107.3 156.45 132.45 135.75 121.8 107.3
L 189.45 54.3
Q 240.4 22.85 300.9 41.7 Z"/>

<path fill="#000000" stroke="none" d="
M 67.75 128.35
Q 70.6017578125 131.702734375 73.45 133.6 71.1263671875 131.8349609375 68.8 129.1 67.7259765625 128.0171875 66.5 127.25 67.15390625 127.7490234375 67.75 128.35 Z"/>
</g>
</defs>

<g transform="matrix( 1, 0, 0, 1, 0,0) ">
<use xlink:href="#Layer0_0_FILL"/>
</g>
</svg>
