
<svg xmlns="http://www.w3.org/2000/svg" version="1.1" xmlns:xlink="http://www.w3.org/1999/xlink" preserveAspectRatio="none" x="0px" y="0px" width="512px" height="512px" viewBox="0 0 512 512">
<defs>
<g id="Layer0_0_FILL">
<path fill="#FFFFFF" stroke="none" d="
M 438.55 58.45
Q 447.4 56.3 447.55 51.05
L 447.55 13.85
Q 447.65 8.25 438.55 6
L 340.75 6
Q 276.65 16.75 265.05 76.65 263.85 91.9 273.65 92.95
L 292.7 92.95 292.7 114.7 265.05 141.45 265.05 186.8 248.2 186.8 248.2 116 211.65 72.8 211.65 71.7
Q 211.65 71.45 211.65 71.25 211.65 71 211.65 70.75 211.65 42.6 211.65 14.45 211.1 8.05 205.05 6.9
L 145.15 6.9
Q 139.1 8.05 138.55 14.45
L 138.55 72.8 101.95 116 101.95 186.8 64.85 186.8
Q 56.55 187.6 56.5 196.7
L 56.5 229.65
Q 56.7 238.45 64.85 239.25
L 84.85 239.25 119.35 494.85
Q 121.35 506.3 130.4 506
L 382.55 506
Q 391.6 506.3 393.65 494.85
L 428.1 239.25 448.1 239.25
Q 456.25 238.45 456.5 229.65
L 456.5 196.7
Q 456.45 187.6 448.1 186.8
L 411.9 186.8 411.9 159.55 365.45 114.55 365.45 88.5 379.15 78.05 403.1 123.15 420 114.7 394.15 66.55 404.7 58.45 438.55 58.45
M 411.3 23.75
L 429.25 23.75 429.25 40.75 411.3 40.75 411.3 23.75
M 392.8 23.75
L 392.8 45.05 352.8 75.15 284.8 75.15
Q 293.95 31.95 344.15 23.75
L 392.8 23.75
M 393.15 166.4
L 393.15 186.8 284.1 186.8 284.1 148.35 305.95 127.2 352.65 127.2 393.15 166.4
M 347.7 92.95
L 347.7 109.5 310.9 109.5 310.9 92.95 347.7 92.95
M 437.35 204.35
L 437.35 221.35 311.1 221.65 311.1 204.35 437.35 204.35
M 366.35 329.65
Q 375.65 320.35 377 307.75 378.4 295.15 364.35 284.3
L 311.1 259.05 311.1 239.25 409.05 239.25 375.45 488.25 137.55 488.25 103.9 239.25 147.4 239.25 147.4 395.4
Q 151.25 423.5 181.6 428.4
L 276.9 428.4
Q 307.25 423.5 311.1 395.4
L 311.1 322.05 338.45 334.55
Q 357.05 338.95 366.35 329.65
M 355.65 315.35
Q 351.65 320.05 345.1 318
L 311.1 301.95 304.5 299.3
Q 293.3 298.1 292.85 307.95
L 292.85 397.25
Q 288.5 409.85 275.45 410.45
L 275.45 332.95 256.35 332.95 256.35 410.45 238.95 410.45 238.95 332.95 219.9 332.95 219.9 410.45 202.65 410.45 202.65 332.95 183.6 332.95 183.6 410.45
Q 170.35 409.85 166.05 396.95
L 166.05 204.35 292.85 204.35 292.85 266.05
Q 292.45 270.8 297.75 272.7
L 354.05 299.3
Q 359.85 303.05 358.65 309.2
L 355.65 315.35
M 193.4 24.15
L 193.4 67.1 156.8 67.1 156.8 24.15 193.4 24.15
M 229.65 127.6
L 229.65 186.8 120.6 186.8 120.6 127.6 229.65 127.6
M 197.8 84.2
L 219.25 109.65 131 109.65 152.4 84.2 197.8 84.2
M 147.4 204.35
L 147.4 221.5 75.6 221.35 75.6 204.35 147.4 204.35 Z"/>
</g>
</defs>

<g transform="matrix( 1, 0, 0, 1, 0,0) ">
<use xlink:href="#Layer0_0_FILL"/>
</g>
</svg>
