
<svg xmlns="http://www.w3.org/2000/svg" version="1.1" xmlns:xlink="http://www.w3.org/1999/xlink" preserveAspectRatio="none" x="0px" y="0px" width="1920px" height="480px" viewBox="0 0 1920 480">
<defs>
<g id="Layer4_0_FILL">
<path fill="#E74228" stroke="none" d="
M 435.35 85
Q 435.53515625 71.1833984375 419.75 68.8
L 53.05 68.8
Q 37.480859375 71.851953125 36.65 84.6
L 36.65 390.75
Q 35.7587890625 405.071875 52.25 406.95
L 420 406.95 419.75 407.2
Q 435.8939453125 405.3142578125 435.35 391.5 435.365625 391.264453125 435.35 391
L 435.35 85
M 417.4 135
L 417.4 171 301.35 171 301.35 135 417.4 135
M 355.8 91.5
L 355.8 127.5 239.75 127.5 239.75 91.5 355.8 91.5
M 417.4 222.1
L 417.4 258.1 301.35 258.1 301.35 222.1 417.4 222.1
M 355.8 354.75
L 355.8 390.75 239.75 390.75 239.75 354.75 355.8 354.75
M 417.4 311.15
L 417.4 347.15 301.35 347.15 301.35 311.15 417.4 311.15
M 355.8 266.35
L 355.8 302.35 239.75 302.35 239.75 266.35 355.8 266.35
M 355.8 177.95
L 355.8 213.95 239.75 213.95 239.75 177.95 355.8 177.95
M 177.85 171
L 177.85 135 293.9 135 293.9 171 177.85 171
M 171.55 135
L 171.55 171 55.5 171 55.5 135 171.55 135
M 233.45 91.5
L 233.45 127.5 117.4 127.5 117.4 91.5 233.45 91.5
M 55.5 258.1
L 55.5 222.1 171.55 222.1 171.55 258.1 55.5 258.1
M 55.5 347.15
L 55.5 311.15 171.55 311.15 171.55 347.15 55.5 347.15
M 117.4 390.75
L 117.4 354.75 233.45 354.75 233.45 390.75 117.4 390.75
M 117.4 302.35
L 117.4 266.35 233.45 266.35 233.45 302.35 117.4 302.35
M 293.9 222.1
L 293.9 258.1 177.85 258.1 177.85 222.1 293.9 222.1
M 177.85 347.15
L 177.85 311.15 293.9 311.15 293.9 347.15 177.85 347.15
M 117.4 213.95
L 117.4 177.95 233.45 177.95 233.45 213.95 117.4 213.95 Z"/>

<path fill="#FFFFFF" stroke="none" d="
M 117.4 177.95
L 117.4 213.95 233.45 213.95 233.45 177.95 117.4 177.95
M 177.85 311.15
L 177.85 347.15 293.9 347.15 293.9 311.15 177.85 311.15
M 293.9 258.1
L 293.9 222.1 177.85 222.1 177.85 258.1 293.9 258.1
M 117.4 266.35
L 117.4 302.35 233.45 302.35 233.45 266.35 117.4 266.35
M 117.4 354.75
L 117.4 390.75 233.45 390.75 233.45 354.75 117.4 354.75
M 55.5 311.15
L 55.5 347.15 171.55 347.15 171.55 311.15 55.5 311.15
M 55.5 222.1
L 55.5 258.1 171.55 258.1 171.55 222.1 55.5 222.1
M 233.45 127.5
L 233.45 91.5 117.4 91.5 117.4 127.5 233.45 127.5
M 171.55 171
L 171.55 135 55.5 135 55.5 171 171.55 171
M 177.85 135
L 177.85 171 293.9 171 293.9 135 177.85 135
M 355.8 213.95
L 355.8 177.95 239.75 177.95 239.75 213.95 355.8 213.95
M 355.8 302.35
L 355.8 266.35 239.75 266.35 239.75 302.35 355.8 302.35
M 417.4 347.15
L 417.4 311.15 301.35 311.15 301.35 347.15 417.4 347.15
M 355.8 390.75
L 355.8 354.75 239.75 354.75 239.75 390.75 355.8 390.75
M 417.4 258.1
L 417.4 222.1 301.35 222.1 301.35 258.1 417.4 258.1
M 355.8 127.5
L 355.8 91.5 239.75 91.5 239.75 127.5 355.8 127.5
M 417.4 171
L 417.4 135 301.35 135 301.35 171 417.4 171 Z"/>
</g>

<g id="Layer3_0_FILL">
<path fill="#E74228" stroke="none" d="
M 539.4 338.15
L 539.4 313.75 477.55 313.75 477.55 415.9 643 415.9 643 338.15 539.4 338.15
M 539.4 196.55
L 539.4 147.75 637.8 147.75 637.8 67.95 477.55 67.95 477.55 286.95 539.4 286.95 539.4 267.7 631 267.7 631 196.55 539.4 196.55
M 823.85 278.5
L 698.15 306.2 661.75 415.9 723.3 415.9 763.7 304.95 804.1 415.9 877.7 415.9 823.85 278.5
M 725.7 67.95
L 661.35 67.95 724.1 227.75 708.35 275.4 814.15 253.85 806.9 235.35 866.5 67.95 802.1 67.95 763.7 166.55 725.7 67.95
M 1153.3 274.75
L 1166.95 274.75
Q 1192.55 314.3 1205.9 366.55 1207.05 371 1208.1 375.55 1212.55 394.9 1215.4 415.9
L 1284.4 415.9
Q 1280 388.1 1274.05 364.55 1271.95 356.3 1269.7 348.55 1252.1 288.8 1223.15 260.5
L 1092.45 260.5 1092.45 415.9 1153.45 415.9 1153.3 274.75
M 1025.1 278.55
Q 1031.85 272.7 1035.7 262.95
L 889.75 262.95 889.75 415.9 947.7 415.9 947.7 286.55 1007.3 286.55
Q 1017.85 284.8 1025.1 278.55
M 1060.6 173.75
Q 1061.95 88.7 1011.3 67.95
L 889.75 67.95 889.75 242.1 1050.2 242.1 1052.6 232.8
Q 1060.15 203.85 1060.6 173.75
M 987.3 135.75
Q 1002 147.15 1003.7 175.75 1003.3 212.25 982.9 218.55
L 947.7 218.55 947.7 135.75 987.3 135.75
M 1267.05 135.25
Q 1255.35 78.4 1215.65 67.95
L 1092.2 67.95 1092.45 209.4
Q 1092.45 209.6 1092.45 209.85 1092.45 223.55 1092.45 237.3
L 1256.15 237.3
Q 1278.75 192.05 1267.05 135.25
M 1209.05 171.55
Q 1208.95 180.55 1207.15 187.35 1202.75 204.2 1188.25 208
L 1153.05 208 1153.05 137.5 1192.65 137.5
Q 1205.95 146.3 1208.6 167.1 1208.9 169.3 1209.05 171.55
M 1367.85 338.95
L 1367.85 268.95 1461.05 268.95 1461.05 253.7 1303.35 253.7 1303.35 415.9 1470.3 415.9 1470.3 338.95 1367.85 338.95
M 1467.3 138
L 1467.3 67.95 1303.35 67.95 1303.35 235.95 1461.05 235.95 1461.05 195.5 1367.85 195.5 1367.85 138 1467.3 138
M 1670.7 338.95
Q 1680.9 279.25 1661.2 242 1604.7 261.6 1548.25 258.5
L 1597.75 282
Q 1630.75 299.7 1613.2 336.95 1602.95 356.2 1579.75 349.45 1558.4 342.2 1554.25 292.95
L 1493.25 300.45
Q 1501.7 395.9 1550.75 415.9
L 1616.2 415.9
Q 1659.55 401.1 1670.7 338.95
M 1719.3 221.45
Q 1720.15 224.45 1721.15 227.5 1731.45 246.45 1748.65 258.5
L 1798.15 282
Q 1831.15 299.7 1813.6 336.95 1803.35 356.2 1780.15 349.45 1758.8 342.2 1754.65 292.95
L 1693.65 300.45
Q 1702.1 395.9 1751.15 415.9
L 1816.6 415.9
Q 1859.95 401.1 1871.1 338.95 1881.3 279.25 1861.6 242 1853.75 223.35 1845.6 214 1837.55 206.3 1827.65 200.2 1756.35 219.15 1719.3 221.45
M 1665.2 164.5
Q 1671 100.35 1620.75 67.95
L 1552.75 67.95
Q 1481.6 105.3 1520.75 227.5 1620.85 231.15 1645.2 214 1625.3 194.9 1593.75 185.5 1564.75 178.4 1557.25 161.5 1555.25 125.95 1581.75 123.55 1610.65 128.1 1609.75 170.5
L 1665.2 164.5
M 1797.05 186.4
Q 1795.6 185.95 1794.15 185.5 1765.15 178.4 1757.65 161.5 1755.65 125.95 1782.15 123.55 1811.05 128.1 1810.15 170.5
L 1865.6 164.5
Q 1871.4 100.35 1821.15 67.95
L 1753.15 67.95
Q 1688.7 101.8 1714.75 205.25 1745.95 195 1797.05 186.4 Z"/>
</g>

<g id="Layer2_0_FILL">
<path fill="#E74228" stroke="none" d="
M 539.4 338.15
L 539.4 313.75 477.55 313.75 477.55 415.9 643 415.9 643 338.15 539.4 338.15
M 435.35 85
Q 435.53515625 71.1833984375 419.75 68.8
L 53.05 68.8
Q 37.480859375 71.851953125 36.65 84.6
L 36.65 390.75
Q 35.7587890625 405.071875 52.25 406.95
L 420 406.95 419.75 407.2
Q 435.8939453125 405.3142578125 435.35 391.5 435.365625 391.264453125 435.35 391
L 435.35 85
M 417.4 135
L 417.4 171 301.35 171 301.35 135 417.4 135
M 355.8 91.5
L 355.8 127.5 239.75 127.5 239.75 91.5 355.8 91.5
M 417.4 222.1
L 417.4 258.1 301.35 258.1 301.35 222.1 417.4 222.1
M 355.8 354.75
L 355.8 390.75 239.75 390.75 239.75 354.75 355.8 354.75
M 417.4 311.15
L 417.4 347.15 301.35 347.15 301.35 311.15 417.4 311.15
M 355.8 266.35
L 355.8 302.35 239.75 302.35 239.75 266.35 355.8 266.35
M 355.8 177.95
L 355.8 213.95 239.75 213.95 239.75 177.95 355.8 177.95
M 177.85 171
L 177.85 135 293.9 135 293.9 171 177.85 171
M 171.55 135
L 171.55 171 55.5 171 55.5 135 171.55 135
M 233.45 91.5
L 233.45 127.5 117.4 127.5 117.4 91.5 233.45 91.5
M 55.5 258.1
L 55.5 222.1 171.55 222.1 171.55 258.1 55.5 258.1
M 55.5 347.15
L 55.5 311.15 171.55 311.15 171.55 347.15 55.5 347.15
M 117.4 390.75
L 117.4 354.75 233.45 354.75 233.45 390.75 117.4 390.75
M 117.4 302.35
L 117.4 266.35 233.45 266.35 233.45 302.35 117.4 302.35
M 293.9 222.1
L 293.9 258.1 177.85 258.1 177.85 222.1 293.9 222.1
M 177.85 347.15
L 177.85 311.15 293.9 311.15 293.9 347.15 177.85 347.15
M 117.4 213.95
L 117.4 177.95 233.45 177.95 233.45 213.95 117.4 213.95
M 539.4 196.55
L 539.4 147.75 637.8 147.75 637.8 67.95 477.55 67.95 477.55 286.95 539.4 286.95 539.4 267.7 631 267.7 631 196.55 539.4 196.55
M 823.85 278.5
L 698.15 306.2 661.75 415.9 723.3 415.9 763.7 304.95 804.1 415.9 877.7 415.9 823.85 278.5
M 725.7 67.95
L 661.35 67.95 724.1 227.75 708.35 275.4 814.15 253.85 806.9 235.35 866.5 67.95 802.1 67.95 763.7 166.55 725.7 67.95
M 1153.3 274.75
L 1166.95 274.75
Q 1192.55 314.3 1205.9 366.55 1207.05 371 1208.1 375.55 1212.55 394.9 1215.4 415.9
L 1284.4 415.9
Q 1280 388.1 1274.05 364.55 1271.95 356.3 1269.7 348.55 1252.1 288.8 1223.15 260.5
L 1092.45 260.5 1092.45 415.9 1153.45 415.9 1153.3 274.75
M 1025.1 278.55
Q 1031.85 272.7 1035.7 262.95
L 889.75 262.95 889.75 415.9 947.7 415.9 947.7 286.55 1007.3 286.55
Q 1017.85 284.8 1025.1 278.55
M 1060.6 173.75
Q 1061.95 88.7 1011.3 67.95
L 889.75 67.95 889.75 242.1 1050.2 242.1 1052.6 232.8
Q 1060.15 203.85 1060.6 173.75
M 987.3 135.75
Q 1002 147.15 1003.7 175.75 1003.3 212.25 982.9 218.55
L 947.7 218.55 947.7 135.75 987.3 135.75
M 1267.05 135.25
Q 1255.35 78.4 1215.65 67.95
L 1092.2 67.95 1092.45 209.4
Q 1092.45 209.6 1092.45 209.85 1092.45 223.55 1092.45 237.3
L 1256.15 237.3
Q 1278.75 192.05 1267.05 135.25
M 1209.05 171.55
Q 1208.95 180.55 1207.15 187.35 1202.75 204.2 1188.25 208
L 1153.05 208 1153.05 137.5 1192.65 137.5
Q 1205.95 146.3 1208.6 167.1 1208.9 169.3 1209.05 171.55
M 1367.85 338.95
L 1367.85 268.95 1461.05 268.95 1461.05 253.7 1303.35 253.7 1303.35 415.9 1470.3 415.9 1470.3 338.95 1367.85 338.95
M 1467.3 138
L 1467.3 67.95 1303.35 67.95 1303.35 235.95 1461.05 235.95 1461.05 195.5 1367.85 195.5 1367.85 138 1467.3 138
M 1670.7 338.95
Q 1680.9 279.25 1661.2 242 1604.7 261.6 1548.25 258.5
L 1597.75 282
Q 1630.75 299.7 1613.2 336.95 1602.95 356.2 1579.75 349.45 1558.4 342.2 1554.25 292.95
L 1493.25 300.45
Q 1501.7 395.9 1550.75 415.9
L 1616.2 415.9
Q 1659.55 401.1 1670.7 338.95
M 1719.3 221.45
Q 1720.15 224.45 1721.15 227.5 1731.45 246.45 1748.65 258.5
L 1798.15 282
Q 1831.15 299.7 1813.6 336.95 1803.35 356.2 1780.15 349.45 1758.8 342.2 1754.65 292.95
L 1693.65 300.45
Q 1702.1 395.9 1751.15 415.9
L 1816.6 415.9
Q 1859.95 401.1 1871.1 338.95 1881.3 279.25 1861.6 242 1853.75 223.35 1845.6 214 1837.55 206.3 1827.65 200.2 1756.35 219.15 1719.3 221.45
M 1665.2 164.5
Q 1671 100.35 1620.75 67.95
L 1552.75 67.95
Q 1481.6 105.3 1520.75 227.5 1620.85 231.15 1645.2 214 1625.3 194.9 1593.75 185.5 1564.75 178.4 1557.25 161.5 1555.25 125.95 1581.75 123.55 1610.65 128.1 1609.75 170.5
L 1665.2 164.5
M 1797.05 186.4
Q 1795.6 185.95 1794.15 185.5 1765.15 178.4 1757.65 161.5 1755.65 125.95 1782.15 123.55 1811.05 128.1 1810.15 170.5
L 1865.6 164.5
Q 1871.4 100.35 1821.15 67.95
L 1753.15 67.95
Q 1688.7 101.8 1714.75 205.25 1745.95 195 1797.05 186.4 Z"/>

<path fill="#FFFFFF" stroke="none" d="
M 117.4 177.95
L 117.4 213.95 233.45 213.95 233.45 177.95 117.4 177.95
M 177.85 311.15
L 177.85 347.15 293.9 347.15 293.9 311.15 177.85 311.15
M 293.9 258.1
L 293.9 222.1 177.85 222.1 177.85 258.1 293.9 258.1
M 117.4 266.35
L 117.4 302.35 233.45 302.35 233.45 266.35 117.4 266.35
M 117.4 354.75
L 117.4 390.75 233.45 390.75 233.45 354.75 117.4 354.75
M 55.5 311.15
L 55.5 347.15 171.55 347.15 171.55 311.15 55.5 311.15
M 55.5 222.1
L 55.5 258.1 171.55 258.1 171.55 222.1 55.5 222.1
M 233.45 127.5
L 233.45 91.5 117.4 91.5 117.4 127.5 233.45 127.5
M 171.55 171
L 171.55 135 55.5 135 55.5 171 171.55 171
M 177.85 135
L 177.85 171 293.9 171 293.9 135 177.85 135
M 355.8 213.95
L 355.8 177.95 239.75 177.95 239.75 213.95 355.8 213.95
M 355.8 302.35
L 355.8 266.35 239.75 266.35 239.75 302.35 355.8 302.35
M 417.4 347.15
L 417.4 311.15 301.35 311.15 301.35 347.15 417.4 347.15
M 355.8 390.75
L 355.8 354.75 239.75 354.75 239.75 390.75 355.8 390.75
M 417.4 258.1
L 417.4 222.1 301.35 222.1 301.35 258.1 417.4 258.1
M 355.8 127.5
L 355.8 91.5 239.75 91.5 239.75 127.5 355.8 127.5
M 417.4 171
L 417.4 135 301.35 135 301.35 171 417.4 171 Z"/>
</g>

<g id="Layer1_0_FILL">
<path fill="#3D2B9B" stroke="none" d="
M 543.8 336.25
L 543.8 311.85 481.95 311.85 481.95 414 647.4 414 647.4 336.25 543.8 336.25
M 439.75 83.1
Q 439.95 69.3 424.15 66.9
L 57.45 66.9
Q 41.9 69.95 41.05 82.7
L 41.05 388.85
Q 40.15 403.15 56.65 405.05
L 424.4 405.05 424.15 405.3
Q 440.3 403.4 439.8 389.65 439.75 389.35 439.75 389.1
L 439.75 83.1
M 421.8 133.1
L 421.8 169.1 305.75 169.1 305.75 133.1 421.8 133.1
M 360.2 89.6
L 360.2 125.6 244.15 125.6 244.15 89.6 360.2 89.6
M 421.8 220.2
L 421.8 256.2 305.75 256.2 305.75 220.2 421.8 220.2
M 360.2 352.85
L 360.2 388.85 244.15 388.85 244.15 352.85 360.2 352.85
M 421.8 309.25
L 421.8 345.25 305.75 345.25 305.75 309.25 421.8 309.25
M 360.2 264.45
L 360.2 300.45 244.15 300.45 244.15 264.45 360.2 264.45
M 360.2 176.05
L 360.2 212.05 244.15 212.05 244.15 176.05 360.2 176.05
M 182.25 169.1
L 182.25 133.1 298.3 133.1 298.3 169.1 182.25 169.1
M 175.95 133.1
L 175.95 169.1 59.9 169.1 59.9 133.1 175.95 133.1
M 237.85 89.6
L 237.85 125.6 121.8 125.6 121.8 89.6 237.85 89.6
M 59.9 256.2
L 59.9 220.2 175.95 220.2 175.95 256.2 59.9 256.2
M 59.9 345.25
L 59.9 309.25 175.95 309.25 175.95 345.25 59.9 345.25
M 121.8 388.85
L 121.8 352.85 237.85 352.85 237.85 388.85 121.8 388.85
M 121.8 300.45
L 121.8 264.45 237.85 264.45 237.85 300.45 121.8 300.45
M 298.3 220.2
L 298.3 256.2 182.25 256.2 182.25 220.2 298.3 220.2
M 182.25 345.25
L 182.25 309.25 298.3 309.25 298.3 345.25 182.25 345.25
M 121.8 176.05
L 237.85 176.05 237.85 212.05 121.8 212.05 121.8 176.05
M 543.8 194.65
L 543.8 145.85 642.2 145.85 642.2 66.05 481.95 66.05 481.95 285.05 543.8 285.05 543.8 265.8 635.4 265.8 635.4 194.65 543.8 194.65
M 828.25 276.6
L 702.55 304.3 666.15 414 727.7 414 768.1 303.05 808.5 414 882.1 414 828.25 276.6
M 768.1 164.65
L 730.1 66.05 665.75 66.05 728.5 225.85 712.75 273.5 818.55 251.95 811.3 233.45 870.9 66.05 806.5 66.05 768.1 164.65
M 1157.7 272.85
L 1171.35 272.85
Q 1196.95 312.4 1210.3 364.65 1211.45 369.1 1212.5 373.65 1216.95 393 1219.8 414
L 1288.8 414
Q 1284.4 386.2 1278.45 362.65 1276.35 354.4 1274.1 346.65 1256.5 286.9 1227.55 258.6
L 1096.85 258.6 1096.85 414 1157.85 414 1157.7 272.85
M 1029.5 276.65
Q 1036.25 270.8 1040.1 261.05
L 894.15 261.05 894.15 414 952.1 414 952.1 284.65 1011.7 284.65
Q 1022.25 282.9 1029.5 276.65
M 1065 171.85
Q 1066.35 86.8 1015.7 66.05
L 894.15 66.05 894.15 240.2 1054.6 240.2 1057 230.9
Q 1064.55 201.95 1065 171.85
M 991.7 133.85
Q 1006.4 145.25 1008.1 173.85 1007.7 210.35 987.3 216.65
L 952.1 216.65 952.1 133.85 991.7 133.85
M 1271.45 133.35
Q 1259.75 76.5 1220.05 66.05
L 1096.6 66.05 1096.85 207.5
Q 1096.85 207.7 1096.85 207.95 1096.85 221.65 1096.85 235.4
L 1260.55 235.4
Q 1283.15 190.15 1271.45 133.35
M 1213 165.2
Q 1213.3 167.4 1213.45 169.65 1213.35 178.65 1211.55 185.45 1207.15 202.3 1192.65 206.1
L 1157.45 206.1 1157.45 135.6 1197.05 135.6
Q 1210.35 144.4 1213 165.2
M 1372.25 337.05
L 1372.25 267.05 1465.45 267.05 1465.45 251.8 1307.75 251.8 1307.75 414 1474.7 414 1474.7 337.05 1372.25 337.05
M 1471.7 136.1
L 1471.7 66.05 1307.75 66.05 1307.75 234.05 1465.45 234.05 1465.45 193.6 1372.25 193.6 1372.25 136.1 1471.7 136.1
M 1675.1 337.05
Q 1685.3 277.35 1665.6 240.1 1609.1 259.7 1552.65 256.6
L 1602.15 280.1
Q 1635.15 297.8 1617.6 335.05 1607.35 354.3 1584.15 347.55 1562.8 340.3 1558.65 291.05
L 1497.65 298.55
Q 1506.1 394 1555.15 414
L 1620.6 414
Q 1663.95 399.2 1675.1 337.05
M 1723.7 219.55
Q 1724.55 222.55 1725.55 225.6 1735.85 244.55 1753.05 256.6
L 1802.55 280.1
Q 1835.55 297.8 1818 335.05 1807.75 354.3 1784.55 347.55 1763.2 340.3 1759.05 291.05
L 1698.05 298.55
Q 1706.5 394 1755.55 414
L 1821 414
Q 1864.35 399.2 1875.5 337.05 1885.7 277.35 1866 240.1 1858.15 221.45 1850 212.1 1841.95 204.4 1832.05 198.3 1760.75 217.25 1723.7 219.55
M 1669.6 162.6
Q 1675.4 98.45 1625.15 66.05
L 1557.15 66.05
Q 1486 103.4 1525.15 225.6 1625.25 229.25 1649.6 212.1 1629.7 193 1598.15 183.6 1569.15 176.5 1561.65 159.6 1559.65 124.05 1586.15 121.65 1615.05 126.2 1614.15 168.6
L 1669.6 162.6
M 1801.45 184.5
Q 1800 184.05 1798.55 183.6 1769.55 176.5 1762.05 159.6 1760.05 124.05 1786.55 121.65 1815.45 126.2 1814.55 168.6
L 1870 162.6
Q 1875.8 98.45 1825.55 66.05
L 1757.55 66.05
Q 1693.1 99.9 1719.15 203.35 1750.35 193.1 1801.45 184.5 Z"/>

<path fill="#FFFFFF" stroke="none" d="
M 237.85 176.05
L 121.8 176.05 121.8 212.05 237.85 212.05 237.85 176.05
M 182.25 309.25
L 182.25 345.25 298.3 345.25 298.3 309.25 182.25 309.25
M 298.3 256.2
L 298.3 220.2 182.25 220.2 182.25 256.2 298.3 256.2
M 121.8 264.45
L 121.8 300.45 237.85 300.45 237.85 264.45 121.8 264.45
M 121.8 352.85
L 121.8 388.85 237.85 388.85 237.85 352.85 121.8 352.85
M 59.9 309.25
L 59.9 345.25 175.95 345.25 175.95 309.25 59.9 309.25
M 59.9 220.2
L 59.9 256.2 175.95 256.2 175.95 220.2 59.9 220.2
M 237.85 125.6
L 237.85 89.6 121.8 89.6 121.8 125.6 237.85 125.6
M 175.95 169.1
L 175.95 133.1 59.9 133.1 59.9 169.1 175.95 169.1
M 182.25 133.1
L 182.25 169.1 298.3 169.1 298.3 133.1 182.25 133.1
M 360.2 212.05
L 360.2 176.05 244.15 176.05 244.15 212.05 360.2 212.05
M 360.2 300.45
L 360.2 264.45 244.15 264.45 244.15 300.45 360.2 300.45
M 421.8 345.25
L 421.8 309.25 305.75 309.25 305.75 345.25 421.8 345.25
M 360.2 388.85
L 360.2 352.85 244.15 352.85 244.15 388.85 360.2 388.85
M 421.8 256.2
L 421.8 220.2 305.75 220.2 305.75 256.2 421.8 256.2
M 360.2 125.6
L 360.2 89.6 244.15 89.6 244.15 125.6 360.2 125.6
M 421.8 169.1
L 421.8 133.1 305.75 133.1 305.75 169.1 421.8 169.1 Z"/>
</g>

<g id="Layer0_0_FILL">
<path fill="#821113" stroke="none" d="
M 543.8 336.25
L 543.8 311.85 481.95 311.85 481.95 414 647.4 414 647.4 336.25 543.8 336.25
M 439.75 83.1
Q 439.95 69.3 424.15 66.9
L 57.45 66.9
Q 41.9 69.95 41.05 82.7
L 41.05 388.85
Q 40.15 403.15 56.65 405.05
L 424.4 405.05 424.15 405.3
Q 440.3 403.4 439.8 389.65 439.75 389.35 439.75 389.1
L 439.75 83.1
M 421.8 133.1
L 421.8 169.1 305.75 169.1 305.75 133.1 421.8 133.1
M 360.2 89.6
L 360.2 125.6 244.15 125.6 244.15 89.6 360.2 89.6
M 421.8 220.2
L 421.8 256.2 305.75 256.2 305.75 220.2 421.8 220.2
M 360.2 352.85
L 360.2 388.85 244.15 388.85 244.15 352.85 360.2 352.85
M 421.8 309.25
L 421.8 345.25 305.75 345.25 305.75 309.25 421.8 309.25
M 360.2 264.45
L 360.2 300.45 244.15 300.45 244.15 264.45 360.2 264.45
M 360.2 176.05
L 360.2 212.05 244.15 212.05 244.15 176.05 360.2 176.05
M 182.25 169.1
L 182.25 133.1 298.3 133.1 298.3 169.1 182.25 169.1
M 175.95 133.1
L 175.95 169.1 59.9 169.1 59.9 133.1 175.95 133.1
M 237.85 89.6
L 237.85 125.6 121.8 125.6 121.8 89.6 237.85 89.6
M 59.9 256.2
L 59.9 220.2 175.95 220.2 175.95 256.2 59.9 256.2
M 59.9 345.25
L 59.9 309.25 175.95 309.25 175.95 345.25 59.9 345.25
M 121.8 388.85
L 121.8 352.85 237.85 352.85 237.85 388.85 121.8 388.85
M 121.8 300.45
L 121.8 264.45 237.85 264.45 237.85 300.45 121.8 300.45
M 298.3 220.2
L 298.3 256.2 182.25 256.2 182.25 220.2 298.3 220.2
M 182.25 345.25
L 182.25 309.25 298.3 309.25 298.3 345.25 182.25 345.25
M 121.8 176.05
L 237.85 176.05 237.85 212.05 121.8 212.05 121.8 176.05
M 543.8 194.65
L 543.8 145.85 642.2 145.85 642.2 66.05 481.95 66.05 481.95 285.05 543.8 285.05 543.8 265.8 635.4 265.8 635.4 194.65 543.8 194.65
M 828.25 276.6
L 702.55 304.3 666.15 414 727.7 414 768.1 303.05 808.5 414 882.1 414 828.25 276.6
M 730.1 66.05
L 665.75 66.05 728.5 225.85 712.75 273.5 818.55 251.95 811.3 233.45 870.9 66.05 806.5 66.05 768.1 164.65 730.1 66.05
M 1157.7 272.85
L 1171.35 272.85
Q 1196.95 312.4 1210.3 364.65 1211.45 369.1 1212.5 373.65 1216.95 393 1219.8 414
L 1288.8 414
Q 1284.4 386.2 1278.45 362.65 1276.35 354.4 1274.1 346.65 1256.5 286.9 1227.55 258.6
L 1096.85 258.6 1096.85 414 1157.85 414 1157.7 272.85
M 1029.5 276.65
Q 1036.25 270.8 1040.1 261.05
L 894.15 261.05 894.15 414 952.1 414 952.1 284.65 1011.7 284.65
Q 1022.25 282.9 1029.5 276.65
M 1065 171.85
Q 1066.35 86.8 1015.7 66.05
L 894.15 66.05 894.15 240.2 1054.6 240.2 1057 230.9
Q 1064.55 201.95 1065 171.85
M 991.7 133.85
Q 1006.4 145.25 1008.1 173.85 1007.7 210.35 987.3 216.65
L 952.1 216.65 952.1 133.85 991.7 133.85
M 1271.45 133.35
Q 1259.75 76.5 1220.05 66.05
L 1096.6 66.05 1096.85 207.5
Q 1096.85 207.7 1096.85 207.95 1096.85 221.65 1096.85 235.4
L 1260.55 235.4
Q 1283.15 190.15 1271.45 133.35
M 1213 165.2
Q 1213.3 167.4 1213.45 169.65 1213.35 178.65 1211.55 185.45 1207.15 202.3 1192.65 206.1
L 1157.45 206.1 1157.45 135.6 1197.05 135.6
Q 1210.35 144.4 1213 165.2
M 1372.25 337.05
L 1372.25 267.05 1465.45 267.05 1465.45 251.8 1307.75 251.8 1307.75 414 1474.7 414 1474.7 337.05 1372.25 337.05
M 1471.7 136.1
L 1471.7 66.05 1307.75 66.05 1307.75 234.05 1465.45 234.05 1465.45 193.6 1372.25 193.6 1372.25 136.1 1471.7 136.1
M 1675.1 337.05
Q 1685.3 277.35 1665.6 240.1 1609.1 259.7 1552.65 256.6
L 1602.15 280.1
Q 1635.15 297.8 1617.6 335.05 1607.35 354.3 1584.15 347.55 1562.8 340.3 1558.65 291.05
L 1497.65 298.55
Q 1506.1 394 1555.15 414
L 1620.6 414
Q 1663.95 399.2 1675.1 337.05
M 1723.7 219.55
Q 1724.55 222.55 1725.55 225.6 1735.85 244.55 1753.05 256.6
L 1802.55 280.1
Q 1835.55 297.8 1818 335.05 1807.75 354.3 1784.55 347.55 1763.2 340.3 1759.05 291.05
L 1698.05 298.55
Q 1706.5 394 1755.55 414
L 1821 414
Q 1864.35 399.2 1875.5 337.05 1885.7 277.35 1866 240.1 1858.15 221.45 1850 212.1 1841.95 204.4 1832.05 198.3 1760.75 217.25 1723.7 219.55
M 1669.6 162.6
Q 1675.4 98.45 1625.15 66.05
L 1557.15 66.05
Q 1486 103.4 1525.15 225.6 1625.25 229.25 1649.6 212.1 1629.7 193 1598.15 183.6 1569.15 176.5 1561.65 159.6 1559.65 124.05 1586.15 121.65 1615.05 126.2 1614.15 168.6
L 1669.6 162.6
M 1801.45 184.5
Q 1800 184.05 1798.55 183.6 1769.55 176.5 1762.05 159.6 1760.05 124.05 1786.55 121.65 1815.45 126.2 1814.55 168.6
L 1870 162.6
Q 1875.8 98.45 1825.55 66.05
L 1757.55 66.05
Q 1693.1 99.9 1719.15 203.35 1750.35 193.1 1801.45 184.5 Z"/>

<path fill="#FFFFFF" stroke="none" d="
M 237.85 176.05
L 121.8 176.05 121.8 212.05 237.85 212.05 237.85 176.05
M 182.25 309.25
L 182.25 345.25 298.3 345.25 298.3 309.25 182.25 309.25
M 298.3 256.2
L 298.3 220.2 182.25 220.2 182.25 256.2 298.3 256.2
M 121.8 264.45
L 121.8 300.45 237.85 300.45 237.85 264.45 121.8 264.45
M 121.8 352.85
L 121.8 388.85 237.85 388.85 237.85 352.85 121.8 352.85
M 59.9 309.25
L 59.9 345.25 175.95 345.25 175.95 309.25 59.9 309.25
M 59.9 220.2
L 59.9 256.2 175.95 256.2 175.95 220.2 59.9 220.2
M 237.85 125.6
L 237.85 89.6 121.8 89.6 121.8 125.6 237.85 125.6
M 175.95 169.1
L 175.95 133.1 59.9 133.1 59.9 169.1 175.95 169.1
M 182.25 133.1
L 182.25 169.1 298.3 169.1 298.3 133.1 182.25 133.1
M 360.2 212.05
L 360.2 176.05 244.15 176.05 244.15 212.05 360.2 212.05
M 360.2 300.45
L 360.2 264.45 244.15 264.45 244.15 300.45 360.2 300.45
M 421.8 345.25
L 421.8 309.25 305.75 309.25 305.75 345.25 421.8 345.25
M 360.2 388.85
L 360.2 352.85 244.15 352.85 244.15 388.85 360.2 388.85
M 421.8 256.2
L 421.8 220.2 305.75 220.2 305.75 256.2 421.8 256.2
M 360.2 125.6
L 360.2 89.6 244.15 89.6 244.15 125.6 360.2 125.6
M 421.8 169.1
L 421.8 133.1 305.75 133.1 305.75 169.1 421.8 169.1 Z"/>
</g>
</defs>

<g transform="matrix( 1, 0, 0, 1, 0,0) ">
<use xlink:href="#Layer4_0_FILL"/>
</g>

<g transform="matrix( 1, 0, 0, 1, 0,0) ">
<use xlink:href="#Layer3_0_FILL"/>
</g>

<g transform="matrix( 1, 0, 0, 1, 4.4,-1.9) ">
<use xlink:href="#Layer2_0_FILL"/>
</g>

<g transform="matrix( 1, 0, 0, 1, 0,0) ">
<use xlink:href="#Layer1_0_FILL"/>
</g>

<g transform="matrix( 1, 0, 0, 1, 0,0) ">
<use xlink:href="#Layer0_0_FILL"/>
</g>
</svg>
