
<svg xmlns="http://www.w3.org/2000/svg" version="1.1" xmlns:xlink="http://www.w3.org/1999/xlink" preserveAspectRatio="none" x="0px" y="0px" width="1920px" height="480px" viewBox="0 0 1920 480">
<defs>
<g id="Layer2_0_FILL">
<path fill="#E74228" stroke="none" d="
M 435.35 85
Q 435.53515625 71.1833984375 419.75 68.8
L 53.05 68.8
Q 37.480859375 71.851953125 36.65 84.6
L 36.65 390.75
Q 35.7587890625 405.071875 52.25 406.95
L 420 406.95 419.75 407.2
Q 435.8939453125 405.3142578125 435.35 391.5 435.365625 391.264453125 435.35 391
L 435.35 85
M 417.4 135
L 417.4 171 301.35 171 301.35 135 417.4 135
M 355.8 91.5
L 355.8 127.5 239.75 127.5 239.75 91.5 355.8 91.5
M 417.4 222.1
L 417.4 258.1 301.35 258.1 301.35 222.1 417.4 222.1
M 355.8 354.75
L 355.8 390.75 239.75 390.75 239.75 354.75 355.8 354.75
M 417.4 311.15
L 417.4 347.15 301.35 347.15 301.35 311.15 417.4 311.15
M 355.8 266.35
L 355.8 302.35 239.75 302.35 239.75 266.35 355.8 266.35
M 355.8 177.95
L 355.8 213.95 239.75 213.95 239.75 177.95 355.8 177.95
M 171.55 135
L 171.55 171 55.5 171 55.5 135 171.55 135
M 177.85 171
L 177.85 135 293.9 135 293.9 171 177.85 171
M 233.45 91.5
L 233.45 127.5 117.4 127.5 117.4 91.5 233.45 91.5
M 55.5 258.1
L 55.5 222.1 171.55 222.1 171.55 258.1 55.5 258.1
M 55.5 347.15
L 55.5 311.15 171.55 311.15 171.55 347.15 55.5 347.15
M 117.4 390.75
L 117.4 354.75 233.45 354.75 233.45 390.75 117.4 390.75
M 117.4 302.35
L 117.4 266.35 233.45 266.35 233.45 302.35 117.4 302.35
M 293.9 222.1
L 293.9 258.1 177.85 258.1 177.85 222.1 293.9 222.1
M 177.85 347.15
L 177.85 311.15 293.9 311.15 293.9 347.15 177.85 347.15
M 117.4 177.95
L 233.45 177.95 233.45 213.95 117.4 213.95 117.4 177.95 Z"/>

<path fill="#FFFFFF" stroke="none" d="
M 233.45 177.95
L 117.4 177.95 117.4 213.95 233.45 213.95 233.45 177.95
M 177.85 311.15
L 177.85 347.15 293.9 347.15 293.9 311.15 177.85 311.15
M 293.9 258.1
L 293.9 222.1 177.85 222.1 177.85 258.1 293.9 258.1
M 117.4 266.35
L 117.4 302.35 233.45 302.35 233.45 266.35 117.4 266.35
M 117.4 354.75
L 117.4 390.75 233.45 390.75 233.45 354.75 117.4 354.75
M 55.5 311.15
L 55.5 347.15 171.55 347.15 171.55 311.15 55.5 311.15
M 55.5 222.1
L 55.5 258.1 171.55 258.1 171.55 222.1 55.5 222.1
M 233.45 127.5
L 233.45 91.5 117.4 91.5 117.4 127.5 233.45 127.5
M 177.85 135
L 177.85 171 293.9 171 293.9 135 177.85 135
M 171.55 171
L 171.55 135 55.5 135 55.5 171 171.55 171
M 355.8 213.95
L 355.8 177.95 239.75 177.95 239.75 213.95 355.8 213.95
M 355.8 302.35
L 355.8 266.35 239.75 266.35 239.75 302.35 355.8 302.35
M 417.4 347.15
L 417.4 311.15 301.35 311.15 301.35 347.15 417.4 347.15
M 355.8 390.75
L 355.8 354.75 239.75 354.75 239.75 390.75 355.8 390.75
M 417.4 258.1
L 417.4 222.1 301.35 222.1 301.35 258.1 417.4 258.1
M 355.8 127.5
L 355.8 91.5 239.75 91.5 239.75 127.5 355.8 127.5
M 417.4 171
L 417.4 135 301.35 135 301.35 171 417.4 171 Z"/>
</g>

<g id="Layer1_0_FILL">
<path fill="#E74228" stroke="none" d="
M 539.4 338.15
L 539.4 313.75 477.55 313.75 477.55 415.9 643 415.9 643 338.15 539.4 338.15
M 539.4 196.55
L 539.4 147.75 637.8 147.75 637.8 67.95 477.55 67.95 477.55 286.95 539.4 286.95 539.4 267.7 631 267.7 631 196.55 539.4 196.55
M 823.85 278.5
L 698.15 306.2 661.75 415.9 723.3 415.9 763.7 304.95 804.1 415.9 877.7 415.9 823.85 278.5
M 725.7 67.95
L 661.35 67.95 724.1 227.75 708.35 275.4 814.15 253.85 806.9 235.35 866.5 67.95 802.1 67.95 763.7 166.55 725.7 67.95
M 1153.3 274.75
L 1166.95 274.75
Q 1192.55 314.3 1205.9 366.55 1207.05 371 1208.1 375.55 1212.55 394.9 1215.4 415.9
L 1284.4 415.9
Q 1280 388.1 1274.05 364.55 1271.95 356.3 1269.7 348.55 1252.1 288.8 1223.15 260.5
L 1092.45 260.5 1092.45 415.9 1153.45 415.9 1153.3 274.75
M 1025.1 278.55
Q 1031.85 272.7 1035.7 262.95
L 889.75 262.95 889.75 415.9 947.7 415.9 947.7 286.55 1007.3 286.55
Q 1017.85 284.8 1025.1 278.55
M 1060.6 173.75
Q 1061.95 88.7 1011.3 67.95
L 889.75 67.95 889.75 242.1 1050.2 242.1 1052.6 232.8
Q 1060.15 203.85 1060.6 173.75
M 987.3 135.75
Q 1002 147.15 1003.7 175.75 1003.3 212.25 982.9 218.55
L 947.7 218.55 947.7 135.75 987.3 135.75
M 1267.05 135.25
Q 1255.35 78.4 1215.65 67.95
L 1092.2 67.95 1092.45 209.4
Q 1092.45 209.6 1092.45 209.85 1092.45 223.55 1092.45 237.3
L 1256.15 237.3
Q 1278.75 192.05 1267.05 135.25
M 1208.6 167.1
Q 1208.9 169.3 1209.05 171.55 1208.95 180.55 1207.15 187.35 1202.75 204.2 1188.25 208
L 1153.05 208 1153.05 137.5 1192.65 137.5
Q 1205.95 146.3 1208.6 167.1
M 1367.85 338.95
L 1367.85 268.95 1461.05 268.95 1461.05 253.7 1303.35 253.7 1303.35 415.9 1470.3 415.9 1470.3 338.95 1367.85 338.95
M 1467.3 138
L 1467.3 67.95 1303.35 67.95 1303.35 235.95 1461.05 235.95 1461.05 195.5 1367.85 195.5 1367.85 138 1467.3 138
M 1670.7 338.95
Q 1680.9 279.25 1661.2 242 1604.7 261.6 1548.25 258.5
L 1597.75 282
Q 1630.75 299.7 1613.2 336.95 1602.95 356.2 1579.75 349.45 1558.4 342.2 1554.25 292.95
L 1493.25 300.45
Q 1501.7 395.9 1550.75 415.9
L 1616.2 415.9
Q 1659.55 401.1 1670.7 338.95
M 1719.3 221.45
Q 1720.15 224.45 1721.15 227.5 1731.45 246.45 1748.65 258.5
L 1798.15 282
Q 1831.15 299.7 1813.6 336.95 1803.35 356.2 1780.15 349.45 1758.8 342.2 1754.65 292.95
L 1693.65 300.45
Q 1702.1 395.9 1751.15 415.9
L 1816.6 415.9
Q 1859.95 401.1 1871.1 338.95 1881.3 279.25 1861.6 242 1853.75 223.35 1845.6 214 1837.55 206.3 1827.65 200.2 1756.35 219.15 1719.3 221.45
M 1665.2 164.5
Q 1671 100.35 1620.75 67.95
L 1552.75 67.95
Q 1481.6 105.3 1520.75 227.5 1620.85 231.15 1645.2 214 1625.3 194.9 1593.75 185.5 1564.75 178.4 1557.25 161.5 1555.25 125.95 1581.75 123.55 1610.65 128.1 1609.75 170.5
L 1665.2 164.5
M 1797.05 186.4
Q 1795.6 185.95 1794.15 185.5 1765.15 178.4 1757.65 161.5 1755.65 125.95 1782.15 123.55 1811.05 128.1 1810.15 170.5
L 1865.6 164.5
Q 1871.4 100.35 1821.15 67.95
L 1753.15 67.95
Q 1688.7 101.8 1714.75 205.25 1745.95 195 1797.05 186.4 Z"/>
</g>

<g id="Layer0_0_FILL">
<path fill="#E74228" stroke="none" d="
M 539.4 338.15
L 539.4 313.75 477.55 313.75 477.55 415.9 643 415.9 643 338.15 539.4 338.15
M 435.35 85
Q 435.53515625 71.1833984375 419.75 68.8
L 53.05 68.8
Q 37.480859375 71.851953125 36.65 84.6
L 36.65 390.75
Q 35.7587890625 405.071875 52.25 406.95
L 420 406.95 419.75 407.2
Q 435.8939453125 405.3142578125 435.35 391.5 435.365625 391.264453125 435.35 391
L 435.35 85
M 417.4 135
L 417.4 171 301.35 171 301.35 135 417.4 135
M 355.8 91.5
L 355.8 127.5 239.75 127.5 239.75 91.5 355.8 91.5
M 417.4 222.1
L 417.4 258.1 301.35 258.1 301.35 222.1 417.4 222.1
M 355.8 354.75
L 355.8 390.75 239.75 390.75 239.75 354.75 355.8 354.75
M 417.4 311.15
L 417.4 347.15 301.35 347.15 301.35 311.15 417.4 311.15
M 355.8 266.35
L 355.8 302.35 239.75 302.35 239.75 266.35 355.8 266.35
M 355.8 177.95
L 355.8 213.95 239.75 213.95 239.75 177.95 355.8 177.95
M 171.55 135
L 171.55 171 55.5 171 55.5 135 171.55 135
M 177.85 171
L 177.85 135 293.9 135 293.9 171 177.85 171
M 233.45 91.5
L 233.45 127.5 117.4 127.5 117.4 91.5 233.45 91.5
M 55.5 258.1
L 55.5 222.1 171.55 222.1 171.55 258.1 55.5 258.1
M 55.5 347.15
L 55.5 311.15 171.55 311.15 171.55 347.15 55.5 347.15
M 117.4 390.75
L 117.4 354.75 233.45 354.75 233.45 390.75 117.4 390.75
M 117.4 302.35
L 117.4 266.35 233.45 266.35 233.45 302.35 117.4 302.35
M 293.9 222.1
L 293.9 258.1 177.85 258.1 177.85 222.1 293.9 222.1
M 177.85 347.15
L 177.85 311.15 293.9 311.15 293.9 347.15 177.85 347.15
M 117.4 213.95
L 117.4 177.95 233.45 177.95 233.45 213.95 117.4 213.95
M 539.4 196.55
L 539.4 147.75 637.8 147.75 637.8 67.95 477.55 67.95 477.55 286.95 539.4 286.95 539.4 267.7 631 267.7 631 196.55 539.4 196.55
M 823.85 278.5
L 698.15 306.2 661.75 415.9 723.3 415.9 763.7 304.95 804.1 415.9 877.7 415.9 823.85 278.5
M 725.7 67.95
L 661.35 67.95 724.1 227.75 708.35 275.4 814.15 253.85 806.9 235.35 866.5 67.95 802.1 67.95 763.7 166.55 725.7 67.95
M 1153.3 274.75
L 1166.95 274.75
Q 1192.55 314.3 1205.9 366.55 1207.05 371 1208.1 375.55 1212.55 394.9 1215.4 415.9
L 1284.4 415.9
Q 1280 388.1 1274.05 364.55 1271.95 356.3 1269.7 348.55 1252.1 288.8 1223.15 260.5
L 1092.45 260.5 1092.45 415.9 1153.45 415.9 1153.3 274.75
M 1025.1 278.55
Q 1031.85 272.7 1035.7 262.95
L 889.75 262.95 889.75 415.9 947.7 415.9 947.7 286.55 1007.3 286.55
Q 1017.85 284.8 1025.1 278.55
M 1060.6 173.75
Q 1061.95 88.7 1011.3 67.95
L 889.75 67.95 889.75 242.1 1050.2 242.1 1052.6 232.8
Q 1060.15 203.85 1060.6 173.75
M 987.3 135.75
Q 1002 147.15 1003.7 175.75 1003.3 212.25 982.9 218.55
L 947.7 218.55 947.7 135.75 987.3 135.75
M 1267.05 135.25
Q 1255.35 78.4 1215.65 67.95
L 1092.2 67.95 1092.45 209.4
Q 1092.45 209.6 1092.45 209.85 1092.45 223.55 1092.45 237.3
L 1256.15 237.3
Q 1278.75 192.05 1267.05 135.25
M 1209.05 171.55
Q 1208.95 180.55 1207.15 187.35 1202.75 204.2 1188.25 208
L 1153.05 208 1153.05 137.5 1192.65 137.5
Q 1205.95 146.3 1208.6 167.1 1208.9 169.3 1209.05 171.55
M 1367.85 338.95
L 1367.85 268.95 1461.05 268.95 1461.05 253.7 1303.35 253.7 1303.35 415.9 1470.3 415.9 1470.3 338.95 1367.85 338.95
M 1467.3 138
L 1467.3 67.95 1303.35 67.95 1303.35 235.95 1461.05 235.95 1461.05 195.5 1367.85 195.5 1367.85 138 1467.3 138
M 1670.7 338.95
Q 1680.9 279.25 1661.2 242 1604.7 261.6 1548.25 258.5
L 1597.75 282
Q 1630.75 299.7 1613.2 336.95 1602.95 356.2 1579.75 349.45 1558.4 342.2 1554.25 292.95
L 1493.25 300.45
Q 1501.7 395.9 1550.75 415.9
L 1616.2 415.9
Q 1659.55 401.1 1670.7 338.95
M 1719.3 221.45
Q 1720.15 224.45 1721.15 227.5 1731.45 246.45 1748.65 258.5
L 1798.15 282
Q 1831.15 299.7 1813.6 336.95 1803.35 356.2 1780.15 349.45 1758.8 342.2 1754.65 292.95
L 1693.65 300.45
Q 1702.1 395.9 1751.15 415.9
L 1816.6 415.9
Q 1859.95 401.1 1871.1 338.95 1881.3 279.25 1861.6 242 1853.75 223.35 1845.6 214 1837.55 206.3 1827.65 200.2 1756.35 219.15 1719.3 221.45
M 1665.2 164.5
Q 1671 100.35 1620.75 67.95
L 1552.75 67.95
Q 1481.6 105.3 1520.75 227.5 1620.85 231.15 1645.2 214 1625.3 194.9 1593.75 185.5 1564.75 178.4 1557.25 161.5 1555.25 125.95 1581.75 123.55 1610.65 128.1 1609.75 170.5
L 1665.2 164.5
M 1797.05 186.4
Q 1795.6 185.95 1794.15 185.5 1765.15 178.4 1757.65 161.5 1755.65 125.95 1782.15 123.55 1811.05 128.1 1810.15 170.5
L 1865.6 164.5
Q 1871.4 100.35 1821.15 67.95
L 1753.15 67.95
Q 1688.7 101.8 1714.75 205.25 1745.95 195 1797.05 186.4 Z"/>

<path fill="#FFFFFF" stroke="none" d="
M 117.4 177.95
L 117.4 213.95 233.45 213.95 233.45 177.95 117.4 177.95
M 177.85 311.15
L 177.85 347.15 293.9 347.15 293.9 311.15 177.85 311.15
M 293.9 258.1
L 293.9 222.1 177.85 222.1 177.85 258.1 293.9 258.1
M 117.4 266.35
L 117.4 302.35 233.45 302.35 233.45 266.35 117.4 266.35
M 117.4 354.75
L 117.4 390.75 233.45 390.75 233.45 354.75 117.4 354.75
M 55.5 311.15
L 55.5 347.15 171.55 347.15 171.55 311.15 55.5 311.15
M 55.5 222.1
L 55.5 258.1 171.55 258.1 171.55 222.1 55.5 222.1
M 233.45 127.5
L 233.45 91.5 117.4 91.5 117.4 127.5 233.45 127.5
M 177.85 135
L 177.85 171 293.9 171 293.9 135 177.85 135
M 171.55 171
L 171.55 135 55.5 135 55.5 171 171.55 171
M 355.8 213.95
L 355.8 177.95 239.75 177.95 239.75 213.95 355.8 213.95
M 355.8 302.35
L 355.8 266.35 239.75 266.35 239.75 302.35 355.8 302.35
M 417.4 347.15
L 417.4 311.15 301.35 311.15 301.35 347.15 417.4 347.15
M 355.8 390.75
L 355.8 354.75 239.75 354.75 239.75 390.75 355.8 390.75
M 417.4 258.1
L 417.4 222.1 301.35 222.1 301.35 258.1 417.4 258.1
M 355.8 127.5
L 355.8 91.5 239.75 91.5 239.75 127.5 355.8 127.5
M 417.4 171
L 417.4 135 301.35 135 301.35 171 417.4 171 Z"/>
</g>
</defs>

<g transform="matrix( 1, 0, 0, 1, 0,0) ">
<use xlink:href="#Layer2_0_FILL"/>
</g>

<g transform="matrix( 1, 0, 0, 1, 0,0) ">
<use xlink:href="#Layer1_0_FILL"/>
</g>

<g transform="matrix( 1, 0, 0, 1, 4.4,-1.9) ">
<use xlink:href="#Layer0_0_FILL"/>
</g>
</svg>
