
<svg xmlns="http://www.w3.org/2000/svg" version="1.1" xmlns:xlink="http://www.w3.org/1999/xlink" preserveAspectRatio="none" x="0px" y="0px" width="512px" height="512px" viewBox="0 0 512 512">
<defs>
<g id="Layer0_0_FILL">
<path fill="#000000" stroke="none" d="
M 350.35 326.4
Q 387.6 281.7 387.6 221.55 387.6 153.05 339.05 104.55 290.45 56 221.8 56 153.1 56 104.5 104.55 56 153.05 56 221.55 56 290.2 104.5 338.7 153.1 387.15 221.8 387.15 281.85 387.15 326.6 350.05
L 429.5 453.2
Q 440.85 459.95 451.05 450.3 459.45 441.4 453.65 430.1
L 350.35 326.4
M 221.85 87.95
Q 277.2 87.95 316.5 127.15 355.65 166.3 355.65 221.55 355.65 276.95 316.5 316.1 277.2 355.2 221.85 355.2 166.4 355.2 127.2 316.1 88 276.95 88 221.55 88 166.3 127.2 127.15 166.4 87.95 221.85 87.95 Z"/>
</g>
</defs>

<g transform="matrix( 1, 0, 0, 1, 0,0) ">
<use xlink:href="#Layer0_0_FILL"/>
</g>
</svg>
