
<svg xmlns="http://www.w3.org/2000/svg" version="1.1" xmlns:xlink="http://www.w3.org/1999/xlink" preserveAspectRatio="none" x="0px" y="0px" width="512px" height="512px" viewBox="0 0 512 512">
<defs>
<g id="Layer1_0_FILL">
<path fill="#000000" stroke="none" d="
M 504.4 125.35
Q 507.45 119.6 504.7 113.55
L 398.45 7.35
Q 392.35 4.55 386.65 7.65
L 7.6 386.7
Q 4.5 392.4 7.35 398.5
L 113.6 504.7
Q 119.6 507.45 125.35 504.4
L 504.4 125.35
M 337.55 84.65
L 357.85 64.35 390.75 97.2
Q 396.5 100.9 403.5 95.8 408.6 88.8 404.9 83.05
L 372 50.2 391.25 30.95 480.75 120.4 119.5 481.65 30 392.2 49.3 372.85 68.2 391.8
Q 73.95 395.55 80.9 390.4 86.1 383.45 82.4 377.6
L 63.45 358.7 83.8 338.4 116.7 371.25
Q 122.45 374.95 129.45 369.85 134.55 362.9 130.85 357.1
L 97.95 324.25 117.95 304.3 136.85 323.2
Q 142.6 326.9 149.55 321.75 154.7 314.8 150.95 309.05
L 132.05 290.15 152.4 269.8 185.3 302.65
Q 191 306.4 198 301.3 203.1 294.3 199.45 288.5
L 166.55 255.65 186.35 235.85 205.25 254.75
Q 211 258.5 217.95 253.35 223.1 246.4 219.4 240.6
L 200.5 221.7 220.8 201.4 253.75 234.25
Q 259.5 237.95 266.5 232.85 271.6 225.9 267.9 220.1
L 234.95 187.25 255 167.3 273.9 186.2
Q 279.65 189.9 286.6 184.75 291.75 177.8 288 172.05
L 269.1 153.15 289.45 132.8 322.35 165.65
Q 328.05 169.4 335.05 164.3 340.15 157.3 336.5 151.5
L 303.6 118.6 323.4 98.8 342.3 117.7
Q 348.05 121.45 355 116.3 360.15 109.35 356.45 103.55
L 337.55 84.65
M 174.05 394.9
Q 176.05 392.3 176.05 388.9 176.05 384.85 173.3 381.95
L 172.95 381.6
Q 170 378.85 166 378.85 162 378.85 159.05 381.6
L 107.85 432.8
Q 105.1 435.75 105.1 439.75 105.1 443.95 108 446.85 110.95 449.8 115.15 449.8 118.55 449.8 121.1 447.85
L 174.05 394.9
M 191.15 363.35
Q 188.25 360.6 184.2 360.6 180.2 360.6 177.25 363.35
L 176.9 363.7
Q 174.2 366.6 174.15 370.65 174.2 374.8 177.1 377.7 180.05 380.7 184.2 380.75 187.6 380.75 190.2 378.7
L 192.25 376.65
Q 194.25 374.05 194.25 370.65 194.3 366.6 191.5 363.7
L 191.15 363.35 Z"/>
</g>

<g id="Layer0_0_FILL">
<path fill="#FFFFFF" stroke="none" d="
M 504.4 125.35
Q 507.45 119.6 504.7 113.55
L 398.45 7.35
Q 392.35 4.55 386.65 7.65
L 7.6 386.7
Q 4.5 392.4 7.35 398.5
L 113.6 504.7
Q 119.6 507.45 125.35 504.4
L 504.4 125.35
M 337.55 84.65
L 357.85 64.35 390.75 97.2
Q 396.5 100.9 403.5 95.8 408.6 88.8 404.9 83.05
L 372 50.2 391.25 30.95 480.75 120.4 119.5 481.65 30 392.2 49.3 372.85 68.2 391.8
Q 73.95 395.55 80.9 390.4 86.1 383.45 82.4 377.6
L 63.45 358.7 83.8 338.4 116.7 371.25
Q 122.45 374.95 129.45 369.85 134.55 362.9 130.85 357.1
L 97.95 324.25 117.95 304.3 136.85 323.2
Q 142.6 326.9 149.55 321.75 154.7 314.8 150.95 309.05
L 132.05 290.15 152.4 269.8 185.3 302.65
Q 191 306.4 198 301.3 203.1 294.3 199.45 288.5
L 166.55 255.65 186.35 235.85 205.25 254.75
Q 211 258.5 217.95 253.35 223.1 246.4 219.4 240.6
L 200.5 221.7 220.8 201.4 253.75 234.25
Q 259.5 237.95 266.5 232.85 271.6 225.9 267.9 220.1
L 234.95 187.25 255 167.3 273.9 186.2
Q 279.65 189.9 286.6 184.75 291.75 177.8 288 172.05
L 269.1 153.15 289.45 132.8 322.35 165.65
Q 328.05 169.4 335.05 164.3 340.15 157.3 336.5 151.5
L 303.6 118.6 323.4 98.8 342.3 117.7
Q 348.05 121.45 355 116.3 360.15 109.35 356.45 103.55
L 337.55 84.65
M 174.05 394.9
Q 176.05 392.3 176.05 388.9 176.05 384.85 173.3 381.95
L 172.95 381.6
Q 170 378.85 166 378.85 162 378.85 159.05 381.6
L 107.85 432.8
Q 105.1 435.75 105.1 439.75 105.1 443.95 108 446.85 110.95 449.8 115.15 449.8 118.55 449.8 121.1 447.85
L 174.05 394.9
M 191.15 363.35
Q 188.25 360.6 184.2 360.6 180.2 360.6 177.25 363.35
L 176.9 363.7
Q 174.2 366.6 174.15 370.65 174.2 374.8 177.1 377.7 180.05 380.7 184.2 380.75 187.6 380.75 190.2 378.7
L 192.25 376.65
Q 194.25 374.05 194.25 370.65 194.3 366.6 191.5 363.7
L 191.15 363.35 Z"/>
</g>
</defs>

<g transform="matrix( 1, 0, 0, 1, 0,0) ">
<use xlink:href="#Layer1_0_FILL"/>
</g>

<g transform="matrix( 1, 0, 0, 1, 0,0) ">
<use xlink:href="#Layer0_0_FILL"/>
</g>
</svg>
