
<svg xmlns="http://www.w3.org/2000/svg" version="1.1" xmlns:xlink="http://www.w3.org/1999/xlink" preserveAspectRatio="none" x="0px" y="0px" width="480px" height="480px" viewBox="0 0 480 480">
<defs>
<image id="foto_jpg" x="0" y="0" width="68" height="56" xlink:href="./images/foto_jpg.jpg"/>

<g id="Layer1_0_FILL">
<path fill="#E74228" stroke="none" d="
M 435.35 85
Q 435.53515625 71.1833984375 419.75 68.8
L 53.05 68.8
Q 37.480859375 71.851953125 36.65 84.6
L 36.65 390.75
Q 35.7587890625 405.071875 52.25 406.95
L 420 406.95 419.75 407.2
Q 435.8939453125 405.3142578125 435.35 391.5 435.365625 391.264453125 435.35 391
L 435.35 85 Z"/>
</g>

<g id="Layer1_1_FILL">
<path fill="#FFFFFF" stroke="none" d="
M 233.45 127.5
L 233.45 91.5 117.4 91.5 117.4 127.5 233.45 127.5 Z"/>
</g>

<g id="Layer1_2_FILL">
<path fill="#FFFFFF" stroke="none" d="
M 355.8 127.5
L 355.8 91.5 239.75 91.5 239.75 127.5 355.8 127.5 Z"/>
</g>

<g id="Layer1_3_FILL">
<path fill="#FFFFFF" stroke="none" d="
M 417.4 171
L 417.4 135 301.35 135 301.35 171 417.4 171 Z"/>
</g>

<g id="Layer1_4_FILL">
<path fill="#FFFFFF" stroke="none" d="
M 177.85 135
L 177.85 171 293.9 171 293.9 135 177.85 135 Z"/>
</g>

<g id="Layer1_5_FILL">
<path fill="#FFFFFF" stroke="none" d="
M 171.55 171
L 171.55 135 55.5 135 55.5 171 171.55 171 Z"/>
</g>

<g id="Layer1_6_FILL">
<path fill="#FFFFFF" stroke="none" d="
M 355.8 213.95
L 355.8 177.95 239.75 177.95 239.75 213.95 355.8 213.95 Z"/>
</g>

<g id="Layer1_7_FILL">
<path fill="#FFFFFF" stroke="none" d="
M 117.4 177.95
L 117.4 213.95 233.45 213.95 233.45 177.95 117.4 177.95 Z"/>
</g>

<g id="Layer1_8_FILL">
<path fill="#FFFFFF" stroke="none" d="
M 417.4 258.1
L 417.4 222.1 301.35 222.1 301.35 258.1 417.4 258.1 Z"/>
</g>

<g id="Layer1_9_FILL">
<path fill="#FFFFFF" stroke="none" d="
M 293.9 258.1
L 293.9 222.1 177.85 222.1 177.85 258.1 293.9 258.1 Z"/>
</g>

<g id="Layer1_10_FILL">
<path fill="#FFFFFF" stroke="none" d="
M 55.5 222.1
L 55.5 258.1 171.55 258.1 171.55 222.1 55.5 222.1 Z"/>
</g>

<g id="Layer1_11_FILL">
<path fill="#FFFFFF" stroke="none" d="
M 117.4 266.35
L 117.4 302.35 233.45 302.35 233.45 266.35 117.4 266.35 Z"/>
</g>

<g id="Layer1_12_FILL">
<path fill="#FFFFFF" stroke="none" d="
M 355.8 302.35
L 355.8 266.35 239.75 266.35 239.75 302.35 355.8 302.35 Z"/>
</g>

<g id="Layer1_13_FILL">
<path fill="#FFFFFF" stroke="none" d="
M 417.4 347.15
L 417.4 311.15 301.35 311.15 301.35 347.15 417.4 347.15 Z"/>
</g>

<g id="Layer1_14_FILL">
<path fill="#FFFFFF" stroke="none" d="
M 177.85 311.15
L 177.85 347.15 293.9 347.15 293.9 311.15 177.85 311.15 Z"/>
</g>

<g id="Layer1_15_FILL">
<path fill="#FFFFFF" stroke="none" d="
M 55.5 311.15
L 55.5 347.15 171.55 347.15 171.55 311.15 55.5 311.15 Z"/>
</g>

<g id="Layer1_16_FILL">
<path fill="#FFFFFF" stroke="none" d="
M 355.8 390.75
L 355.8 354.75 239.75 354.75 239.75 390.75 355.8 390.75 Z"/>
</g>

<g id="Layer1_17_FILL">
<path fill="#FFFFFF" stroke="none" d="
M 117.4 354.75
L 117.4 390.75 233.45 390.75 233.45 354.75 117.4 354.75 Z"/>
</g>

<g id="Layer0_0_FILL">
<path fill="#E74228" stroke="none" d="
M 435.35 85
Q 435.53515625 71.1833984375 419.75 68.8
L 53.05 68.8
Q 37.480859375 71.851953125 36.65 84.6
L 36.65 390.75
Q 35.7587890625 405.071875 52.25 406.95
L 420 406.95 419.75 407.2
Q 435.8939453125 405.3142578125 435.35 391.5 435.365625 391.264453125 435.35 391
L 435.35 85
M 417.4 135
L 417.4 171 301.35 171 301.35 135 417.4 135
M 355.8 91.5
L 355.8 127.5 239.75 127.5 239.75 91.5 355.8 91.5
M 417.4 222.1
L 417.4 258.1 301.35 258.1 301.35 222.1 417.4 222.1
M 355.8 354.75
L 355.8 390.75 239.75 390.75 239.75 354.75 355.8 354.75
M 417.4 311.15
L 417.4 347.15 301.35 347.15 301.35 311.15 417.4 311.15
M 355.8 266.35
L 355.8 302.35 239.75 302.35 239.75 266.35 355.8 266.35
M 355.8 177.95
L 355.8 213.95 239.75 213.95 239.75 177.95 355.8 177.95
M 177.85 171
L 177.85 135 293.9 135 293.9 171 177.85 171
M 171.55 135
L 171.55 171 55.5 171 55.5 135 171.55 135
M 233.45 91.5
L 233.45 127.5 117.4 127.5 117.4 91.5 233.45 91.5
M 55.5 258.1
L 55.5 222.1 171.55 222.1 171.55 258.1 55.5 258.1
M 55.5 347.15
L 55.5 311.15 171.55 311.15 171.55 347.15 55.5 347.15
M 117.4 390.75
L 117.4 354.75 233.45 354.75 233.45 390.75 117.4 390.75
M 117.4 302.35
L 117.4 266.35 233.45 266.35 233.45 302.35 117.4 302.35
M 293.9 222.1
L 293.9 258.1 177.85 258.1 177.85 222.1 293.9 222.1
M 177.85 347.15
L 177.85 311.15 293.9 311.15 293.9 347.15 177.85 347.15
M 233.45 213.95
L 117.4 213.95 117.4 177.95 233.45 177.95 233.45 213.95 Z"/>

<path fill="#FFFFFF" stroke="none" d="
M 117.4 213.95
L 233.45 213.95 233.45 177.95 117.4 177.95 117.4 213.95
M 177.85 311.15
L 177.85 347.15 293.9 347.15 293.9 311.15 177.85 311.15
M 293.9 258.1
L 293.9 222.1 177.85 222.1 177.85 258.1 293.9 258.1
M 117.4 266.35
L 117.4 302.35 233.45 302.35 233.45 266.35 117.4 266.35
M 117.4 354.75
L 117.4 390.75 233.45 390.75 233.45 354.75 117.4 354.75
M 55.5 311.15
L 55.5 347.15 171.55 347.15 171.55 311.15 55.5 311.15
M 55.5 222.1
L 55.5 258.1 171.55 258.1 171.55 222.1 55.5 222.1
M 233.45 127.5
L 233.45 91.5 117.4 91.5 117.4 127.5 233.45 127.5
M 171.55 171
L 171.55 135 55.5 135 55.5 171 171.55 171
M 177.85 135
L 177.85 171 293.9 171 293.9 135 177.85 135
M 355.8 213.95
L 355.8 177.95 239.75 177.95 239.75 213.95 355.8 213.95
M 355.8 302.35
L 355.8 266.35 239.75 266.35 239.75 302.35 355.8 302.35
M 417.4 347.15
L 417.4 311.15 301.35 311.15 301.35 347.15 417.4 347.15
M 355.8 390.75
L 355.8 354.75 239.75 354.75 239.75 390.75 355.8 390.75
M 417.4 258.1
L 417.4 222.1 301.35 222.1 301.35 258.1 417.4 258.1
M 355.8 127.5
L 355.8 91.5 239.75 91.5 239.75 127.5 355.8 127.5
M 417.4 171
L 417.4 135 301.35 135 301.35 171 417.4 171 Z"/>
</g>

<path id="Layer1_0_1_STROKES" stroke="#000000" stroke-width="1" stroke-linejoin="round" stroke-linecap="round" fill="none" d="
M 53.05 68.8
Q 37.480859375 71.851953125 36.65 84.6
L 36.65 390.75
Q 35.7587890625 405.071875 52.25 406.95
L 420 406.95 419.75 407.2
Q 435.8939453125 405.3142578125 435.375 391.525 435.365625 391.264453125 435.35 391
L 435.35 85
Q 435.53515625 71.1833984375 419.75 68.8
L 53.05 68.8 Z"/>

<path id="Layer1_1_1_STROKES" stroke="#000000" stroke-width="1" stroke-linejoin="round" stroke-linecap="round" fill="none" d="
M 117.4 91.5
L 233.45 91.5 233.45 127.5 117.4 127.5 117.4 91.5 Z"/>

<path id="Layer1_2_1_STROKES" stroke="#000000" stroke-width="1" stroke-linejoin="round" stroke-linecap="round" fill="none" d="
M 239.75 91.5
L 355.8 91.5 355.8 127.5 239.75 127.5 239.75 91.5 Z"/>

<path id="Layer1_3_1_STROKES" stroke="#000000" stroke-width="1" stroke-linejoin="round" stroke-linecap="round" fill="none" d="
M 301.35 135
L 417.4 135 417.4 171 301.35 171 301.35 135 Z"/>

<path id="Layer1_4_1_STROKES" stroke="#000000" stroke-width="1" stroke-linejoin="round" stroke-linecap="round" fill="none" d="
M 177.85 135
L 293.9 135 293.9 171 177.85 171 177.85 135 Z"/>

<path id="Layer1_5_1_STROKES" stroke="#000000" stroke-width="1" stroke-linejoin="round" stroke-linecap="round" fill="none" d="
M 55.5 135
L 171.55 135 171.55 171 55.5 171 55.5 135 Z"/>

<path id="Layer1_6_1_STROKES" stroke="#000000" stroke-width="1" stroke-linejoin="round" stroke-linecap="round" fill="none" d="
M 239.75 177.95
L 355.8 177.95 355.8 213.95 239.75 213.95 239.75 177.95 Z"/>

<path id="Layer1_7_1_STROKES" stroke="#000000" stroke-width="1" stroke-linejoin="round" stroke-linecap="round" fill="none" d="
M 117.4 177.95
L 233.45 177.95 233.45 213.95 117.4 213.95 117.4 177.95 Z"/>

<path id="Layer1_8_1_STROKES" stroke="#000000" stroke-width="1" stroke-linejoin="round" stroke-linecap="round" fill="none" d="
M 301.35 222.1
L 417.4 222.1 417.4 258.1 301.35 258.1 301.35 222.1 Z"/>

<path id="Layer1_9_1_STROKES" stroke="#000000" stroke-width="1" stroke-linejoin="round" stroke-linecap="round" fill="none" d="
M 177.85 222.1
L 293.9 222.1 293.9 258.1 177.85 258.1 177.85 222.1 Z"/>

<path id="Layer1_10_1_STROKES" stroke="#000000" stroke-width="1" stroke-linejoin="round" stroke-linecap="round" fill="none" d="
M 55.5 222.1
L 171.55 222.1 171.55 258.1 55.5 258.1 55.5 222.1 Z"/>

<path id="Layer1_11_1_STROKES" stroke="#000000" stroke-width="1" stroke-linejoin="round" stroke-linecap="round" fill="none" d="
M 117.4 266.35
L 233.45 266.35 233.45 302.35 117.4 302.35 117.4 266.35 Z"/>

<path id="Layer1_12_1_STROKES" stroke="#000000" stroke-width="1" stroke-linejoin="round" stroke-linecap="round" fill="none" d="
M 239.75 266.35
L 355.8 266.35 355.8 302.35 239.75 302.35 239.75 266.35 Z"/>

<path id="Layer1_13_1_STROKES" stroke="#000000" stroke-width="1" stroke-linejoin="round" stroke-linecap="round" fill="none" d="
M 301.35 311.15
L 417.4 311.15 417.4 347.15 301.35 347.15 301.35 311.15 Z"/>

<path id="Layer1_14_1_STROKES" stroke="#000000" stroke-width="1" stroke-linejoin="round" stroke-linecap="round" fill="none" d="
M 177.85 311.15
L 293.9 311.15 293.9 347.15 177.85 347.15 177.85 311.15 Z"/>

<path id="Layer1_15_1_STROKES" stroke="#000000" stroke-width="1" stroke-linejoin="round" stroke-linecap="round" fill="none" d="
M 55.5 311.15
L 171.55 311.15 171.55 347.15 55.5 347.15 55.5 311.15 Z"/>

<path id="Layer1_16_1_STROKES" stroke="#000000" stroke-width="1" stroke-linejoin="round" stroke-linecap="round" fill="none" d="
M 239.75 354.75
L 355.8 354.75 355.8 390.75 239.75 390.75 239.75 354.75 Z"/>

<path id="Layer1_17_1_STROKES" stroke="#000000" stroke-width="1" stroke-linejoin="round" stroke-linecap="round" fill="none" d="
M 117.4 354.75
L 233.45 354.75 233.45 390.75 117.4 390.75 117.4 354.75 Z"/>
</defs>

<g transform="matrix( 6.3409423828125, 0, 0, 6.3409423828125, 24,62) ">
<use xlink:href="#foto_jpg"/>
</g>

<g transform="matrix( 1, 0, 0, 1, 0,0) ">
<use xlink:href="#Layer1_0_FILL"/>

<use xlink:href="#Layer1_0_1_STROKES"/>
</g>

<g transform="matrix( 1, 0, 0, 1, 0,0) ">
<use xlink:href="#Layer1_1_FILL"/>

<use xlink:href="#Layer1_1_1_STROKES"/>
</g>

<g transform="matrix( 1, 0, 0, 1, 0,0) ">
<use xlink:href="#Layer1_2_FILL"/>

<use xlink:href="#Layer1_2_1_STROKES"/>
</g>

<g transform="matrix( 1, 0, 0, 1, 0,0) ">
<use xlink:href="#Layer1_3_FILL"/>

<use xlink:href="#Layer1_3_1_STROKES"/>
</g>

<g transform="matrix( 1, 0, 0, 1, 0,0) ">
<use xlink:href="#Layer1_4_FILL"/>

<use xlink:href="#Layer1_4_1_STROKES"/>
</g>

<g transform="matrix( 1, 0, 0, 1, 0,0) ">
<use xlink:href="#Layer1_5_FILL"/>

<use xlink:href="#Layer1_5_1_STROKES"/>
</g>

<g transform="matrix( 1, 0, 0, 1, 0,0) ">
<use xlink:href="#Layer1_6_FILL"/>

<use xlink:href="#Layer1_6_1_STROKES"/>
</g>

<g transform="matrix( 1, 0, 0, 1, 0,0) ">
<use xlink:href="#Layer1_7_FILL"/>

<use xlink:href="#Layer1_7_1_STROKES"/>
</g>

<g transform="matrix( 1, 0, 0, 1, 0,0) ">
<use xlink:href="#Layer1_8_FILL"/>

<use xlink:href="#Layer1_8_1_STROKES"/>
</g>

<g transform="matrix( 1, 0, 0, 1, 0,0) ">
<use xlink:href="#Layer1_9_FILL"/>

<use xlink:href="#Layer1_9_1_STROKES"/>
</g>

<g transform="matrix( 1, 0, 0, 1, 0,0) ">
<use xlink:href="#Layer1_10_FILL"/>

<use xlink:href="#Layer1_10_1_STROKES"/>
</g>

<g transform="matrix( 1, 0, 0, 1, 0,0) ">
<use xlink:href="#Layer1_11_FILL"/>

<use xlink:href="#Layer1_11_1_STROKES"/>
</g>

<g transform="matrix( 1, 0, 0, 1, 0,0) ">
<use xlink:href="#Layer1_12_FILL"/>

<use xlink:href="#Layer1_12_1_STROKES"/>
</g>

<g transform="matrix( 1, 0, 0, 1, 0,0) ">
<use xlink:href="#Layer1_13_FILL"/>

<use xlink:href="#Layer1_13_1_STROKES"/>
</g>

<g transform="matrix( 1, 0, 0, 1, 0,0) ">
<use xlink:href="#Layer1_14_FILL"/>

<use xlink:href="#Layer1_14_1_STROKES"/>
</g>

<g transform="matrix( 1, 0, 0, 1, 0,0) ">
<use xlink:href="#Layer1_15_FILL"/>

<use xlink:href="#Layer1_15_1_STROKES"/>
</g>

<g transform="matrix( 1, 0, 0, 1, 0,0) ">
<use xlink:href="#Layer1_16_FILL"/>

<use xlink:href="#Layer1_16_1_STROKES"/>
</g>

<g transform="matrix( 1, 0, 0, 1, 0,0) ">
<use xlink:href="#Layer1_17_FILL"/>

<use xlink:href="#Layer1_17_1_STROKES"/>
</g>

<g transform="matrix( 1, 0, 0, 1, 4,2) ">
<use xlink:href="#Layer0_0_FILL"/>
</g>
</svg>
