
<svg xmlns="http://www.w3.org/2000/svg" version="1.1" xmlns:xlink="http://www.w3.org/1999/xlink" preserveAspectRatio="none" x="0px" y="0px" width="480px" height="480px" viewBox="0 0 480 480">
<defs>
<image id="foto_jpg" x="0" y="0" width="68" height="56" xlink:href="./images/foto_jpg.jpg"/>

<g id="Layer3_0_FILL">
<path fill="#E74228" stroke="none" d="
M 435.35 85
Q 435.53515625 71.1833984375 419.75 68.8
L 53.05 68.8
Q 37.480859375 71.851953125 36.65 84.6
L 36.65 390.75
Q 35.7587890625 405.071875 52.25 406.95
L 420 406.95 419.75 407.2
Q 435.8939453125 405.3142578125 435.35 391.5 435.365625 391.264453125 435.35 391
L 435.35 85 Z"/>
</g>

<g id="Layer3_1_FILL">
<path fill="#FFFFFF" stroke="none" d="
M 233.45 127.5
L 233.45 91.5 117.4 91.5 117.4 127.5 233.45 127.5 Z"/>
</g>

<g id="Layer3_2_FILL">
<path fill="#FFFFFF" stroke="none" d="
M 355.8 127.5
L 355.8 91.5 239.75 91.5 239.75 127.5 355.8 127.5 Z"/>
</g>

<g id="Layer3_3_FILL">
<path fill="#FFFFFF" stroke="none" d="
M 417.4 171
L 417.4 135 301.35 135 301.35 171 417.4 171 Z"/>
</g>

<g id="Layer3_4_FILL">
<path fill="#FFFFFF" stroke="none" d="
M 177.85 135
L 177.85 171 293.9 171 293.9 135 177.85 135 Z"/>
</g>

<g id="Layer3_5_FILL">
<path fill="#FFFFFF" stroke="none" d="
M 171.55 171
L 171.55 135 55.5 135 55.5 171 171.55 171 Z"/>
</g>

<g id="Layer3_6_FILL">
<path fill="#FFFFFF" stroke="none" d="
M 355.8 213.95
L 355.8 177.95 239.75 177.95 239.75 213.95 355.8 213.95 Z"/>
</g>

<g id="Layer3_7_FILL">
<path fill="#FFFFFF" stroke="none" d="
M 117.4 177.95
L 117.4 213.95 233.45 213.95 233.45 177.95 117.4 177.95 Z"/>
</g>

<g id="Layer3_8_FILL">
<path fill="#FFFFFF" stroke="none" d="
M 417.4 258.1
L 417.4 222.1 301.35 222.1 301.35 258.1 417.4 258.1 Z"/>
</g>

<g id="Layer3_9_FILL">
<path fill="#FFFFFF" stroke="none" d="
M 293.9 258.1
L 293.9 222.1 177.85 222.1 177.85 258.1 293.9 258.1 Z"/>
</g>

<g id="Layer3_10_FILL">
<path fill="#FFFFFF" stroke="none" d="
M 55.5 222.1
L 55.5 258.1 171.55 258.1 171.55 222.1 55.5 222.1 Z"/>
</g>

<g id="Layer3_11_FILL">
<path fill="#FFFFFF" stroke="none" d="
M 117.4 266.35
L 117.4 302.35 233.45 302.35 233.45 266.35 117.4 266.35 Z"/>
</g>

<g id="Layer3_12_FILL">
<path fill="#FFFFFF" stroke="none" d="
M 355.8 302.35
L 355.8 266.35 239.75 266.35 239.75 302.35 355.8 302.35 Z"/>
</g>

<g id="Layer3_13_FILL">
<path fill="#FFFFFF" stroke="none" d="
M 417.4 347.15
L 417.4 311.15 301.35 311.15 301.35 347.15 417.4 347.15 Z"/>
</g>

<g id="Layer3_14_FILL">
<path fill="#FFFFFF" stroke="none" d="
M 177.85 311.15
L 177.85 347.15 293.9 347.15 293.9 311.15 177.85 311.15 Z"/>
</g>

<g id="Layer3_15_FILL">
<path fill="#FFFFFF" stroke="none" d="
M 55.5 311.15
L 55.5 347.15 171.55 347.15 171.55 311.15 55.5 311.15 Z"/>
</g>

<g id="Layer3_16_FILL">
<path fill="#FFFFFF" stroke="none" d="
M 355.8 390.75
L 355.8 354.75 239.75 354.75 239.75 390.75 355.8 390.75 Z"/>
</g>

<g id="Layer3_17_FILL">
<path fill="#FFFFFF" stroke="none" d="
M 117.4 354.75
L 117.4 390.75 233.45 390.75 233.45 354.75 117.4 354.75 Z"/>
</g>

<g id="Layer2_0_FILL">
<path fill="#E74228" stroke="none" d="
M 435.35 85
Q 435.53515625 71.1833984375 419.75 68.8
L 53.05 68.8
Q 37.480859375 71.851953125 36.65 84.6
L 36.65 390.75
Q 35.7587890625 405.071875 52.25 406.95
L 420 406.95 419.75 407.2
Q 435.8939453125 405.3142578125 435.35 391.5 435.365625 391.264453125 435.35 391
L 435.35 85
M 417.4 135
L 417.4 171 301.35 171 301.35 135 417.4 135
M 355.8 91.5
L 355.8 127.5 239.75 127.5 239.75 91.5 355.8 91.5
M 417.4 222.1
L 417.4 258.1 301.35 258.1 301.35 222.1 417.4 222.1
M 355.8 354.75
L 355.8 390.75 239.75 390.75 239.75 354.75 355.8 354.75
M 417.4 311.15
L 417.4 347.15 301.35 347.15 301.35 311.15 417.4 311.15
M 355.8 266.35
L 355.8 302.35 239.75 302.35 239.75 266.35 355.8 266.35
M 355.8 177.95
L 355.8 213.95 239.75 213.95 239.75 177.95 355.8 177.95
M 171.55 135
L 171.55 171 55.5 171 55.5 135 171.55 135
M 177.85 171
L 177.85 135 293.9 135 293.9 171 177.85 171
M 233.45 91.5
L 233.45 127.5 117.4 127.5 117.4 91.5 233.45 91.5
M 55.5 258.1
L 55.5 222.1 171.55 222.1 171.55 258.1 55.5 258.1
M 55.5 347.15
L 55.5 311.15 171.55 311.15 171.55 347.15 55.5 347.15
M 117.4 390.75
L 117.4 354.75 233.45 354.75 233.45 390.75 117.4 390.75
M 117.4 302.35
L 117.4 266.35 233.45 266.35 233.45 302.35 117.4 302.35
M 293.9 222.1
L 293.9 258.1 177.85 258.1 177.85 222.1 293.9 222.1
M 177.85 347.15
L 177.85 311.15 293.9 311.15 293.9 347.15 177.85 347.15
M 117.4 213.95
L 117.4 177.95 233.45 177.95 233.45 213.95 117.4 213.95 Z"/>

<path fill="#FFFFFF" stroke="none" d="
M 117.4 177.95
L 117.4 213.95 233.45 213.95 233.45 177.95 117.4 177.95
M 177.85 311.15
L 177.85 347.15 293.9 347.15 293.9 311.15 177.85 311.15
M 293.9 258.1
L 293.9 222.1 177.85 222.1 177.85 258.1 293.9 258.1
M 117.4 266.35
L 117.4 302.35 233.45 302.35 233.45 266.35 117.4 266.35
M 117.4 354.75
L 117.4 390.75 233.45 390.75 233.45 354.75 117.4 354.75
M 55.5 311.15
L 55.5 347.15 171.55 347.15 171.55 311.15 55.5 311.15
M 55.5 222.1
L 55.5 258.1 171.55 258.1 171.55 222.1 55.5 222.1
M 233.45 127.5
L 233.45 91.5 117.4 91.5 117.4 127.5 233.45 127.5
M 177.85 135
L 177.85 171 293.9 171 293.9 135 177.85 135
M 171.55 171
L 171.55 135 55.5 135 55.5 171 171.55 171
M 355.8 213.95
L 355.8 177.95 239.75 177.95 239.75 213.95 355.8 213.95
M 355.8 302.35
L 355.8 266.35 239.75 266.35 239.75 302.35 355.8 302.35
M 417.4 347.15
L 417.4 311.15 301.35 311.15 301.35 347.15 417.4 347.15
M 355.8 390.75
L 355.8 354.75 239.75 354.75 239.75 390.75 355.8 390.75
M 417.4 258.1
L 417.4 222.1 301.35 222.1 301.35 258.1 417.4 258.1
M 355.8 127.5
L 355.8 91.5 239.75 91.5 239.75 127.5 355.8 127.5
M 417.4 171
L 417.4 135 301.35 135 301.35 171 417.4 171 Z"/>
</g>

<g id="Layer1_0_FILL">
<path fill="#3D2B9B" stroke="none" d="
M 439.35 87
Q 439.55 73.2 423.75 70.8
L 57.05 70.8
Q 41.5 73.85 40.65 86.6
L 40.65 392.75
Q 39.75 407.05 56.25 408.95
L 424 408.95 423.75 409.2
Q 439.9 407.3 439.4 393.55 439.35 393.25 439.35 393
L 439.35 87
M 421.4 137
L 421.4 173 305.35 173 305.35 137 421.4 137
M 359.8 93.5
L 359.8 129.5 243.75 129.5 243.75 93.5 359.8 93.5
M 421.4 224.1
L 421.4 260.1 305.35 260.1 305.35 224.1 421.4 224.1
M 359.8 356.75
L 359.8 392.75 243.75 392.75 243.75 356.75 359.8 356.75
M 421.4 313.15
L 421.4 349.15 305.35 349.15 305.35 313.15 421.4 313.15
M 359.8 268.35
L 359.8 304.35 243.75 304.35 243.75 268.35 359.8 268.35
M 359.8 179.95
L 359.8 215.95 243.75 215.95 243.75 179.95 359.8 179.95
M 181.85 173
L 181.85 137 297.9 137 297.9 173 181.85 173
M 175.55 137
L 175.55 173 59.5 173 59.5 137 175.55 137
M 237.45 93.5
L 237.45 129.5 121.4 129.5 121.4 93.5 237.45 93.5
M 59.5 260.1
L 59.5 224.1 175.55 224.1 175.55 260.1 59.5 260.1
M 59.5 349.15
L 59.5 313.15 175.55 313.15 175.55 349.15 59.5 349.15
M 121.4 392.75
L 121.4 356.75 237.45 356.75 237.45 392.75 121.4 392.75
M 121.4 304.35
L 121.4 268.35 237.45 268.35 237.45 304.35 121.4 304.35
M 297.9 224.1
L 297.9 260.1 181.85 260.1 181.85 224.1 297.9 224.1
M 181.85 349.15
L 181.85 313.15 297.9 313.15 297.9 349.15 181.85 349.15
M 121.4 215.95
L 121.4 179.95 237.45 179.95 237.45 215.95 121.4 215.95 Z"/>

<path fill="#FFFFFF" stroke="none" d="
M 121.4 179.95
L 121.4 215.95 237.45 215.95 237.45 179.95 121.4 179.95
M 181.85 313.15
L 181.85 349.15 297.9 349.15 297.9 313.15 181.85 313.15
M 297.9 260.1
L 297.9 224.1 181.85 224.1 181.85 260.1 297.9 260.1
M 121.4 268.35
L 121.4 304.35 237.45 304.35 237.45 268.35 121.4 268.35
M 121.4 356.75
L 121.4 392.75 237.45 392.75 237.45 356.75 121.4 356.75
M 59.5 313.15
L 59.5 349.15 175.55 349.15 175.55 313.15 59.5 313.15
M 59.5 224.1
L 59.5 260.1 175.55 260.1 175.55 224.1 59.5 224.1
M 237.45 129.5
L 237.45 93.5 121.4 93.5 121.4 129.5 237.45 129.5
M 175.55 173
L 175.55 137 59.5 137 59.5 173 175.55 173
M 181.85 137
L 181.85 173 297.9 173 297.9 137 181.85 137
M 359.8 215.95
L 359.8 179.95 243.75 179.95 243.75 215.95 359.8 215.95
M 359.8 304.35
L 359.8 268.35 243.75 268.35 243.75 304.35 359.8 304.35
M 421.4 349.15
L 421.4 313.15 305.35 313.15 305.35 349.15 421.4 349.15
M 359.8 392.75
L 359.8 356.75 243.75 356.75 243.75 392.75 359.8 392.75
M 421.4 260.1
L 421.4 224.1 305.35 224.1 305.35 260.1 421.4 260.1
M 359.8 129.5
L 359.8 93.5 243.75 93.5 243.75 129.5 359.8 129.5
M 421.4 173
L 421.4 137 305.35 137 305.35 173 421.4 173 Z"/>
</g>

<g id="Layer0_0_FILL">
<path fill="#821113" stroke="none" d="
M 439.35 87
Q 439.55 73.2 423.75 70.8
L 57.05 70.8
Q 41.5 73.85 40.65 86.6
L 40.65 392.75
Q 39.75 407.05 56.25 408.95
L 424 408.95 423.75 409.2
Q 439.9 407.3 439.4 393.55 439.35 393.25 439.35 393
L 439.35 87
M 421.4 137
L 421.4 173 305.35 173 305.35 137 421.4 137
M 359.8 93.5
L 359.8 129.5 243.75 129.5 243.75 93.5 359.8 93.5
M 421.4 224.1
L 421.4 260.1 305.35 260.1 305.35 224.1 421.4 224.1
M 359.8 356.75
L 359.8 392.75 243.75 392.75 243.75 356.75 359.8 356.75
M 421.4 313.15
L 421.4 349.15 305.35 349.15 305.35 313.15 421.4 313.15
M 359.8 268.35
L 359.8 304.35 243.75 304.35 243.75 268.35 359.8 268.35
M 359.8 179.95
L 359.8 215.95 243.75 215.95 243.75 179.95 359.8 179.95
M 181.85 173
L 181.85 137 297.9 137 297.9 173 181.85 173
M 175.55 137
L 175.55 173 59.5 173 59.5 137 175.55 137
M 237.45 93.5
L 237.45 129.5 121.4 129.5 121.4 93.5 237.45 93.5
M 59.5 260.1
L 59.5 224.1 175.55 224.1 175.55 260.1 59.5 260.1
M 59.5 349.15
L 59.5 313.15 175.55 313.15 175.55 349.15 59.5 349.15
M 121.4 392.75
L 121.4 356.75 237.45 356.75 237.45 392.75 121.4 392.75
M 121.4 304.35
L 121.4 268.35 237.45 268.35 237.45 304.35 121.4 304.35
M 297.9 224.1
L 297.9 260.1 181.85 260.1 181.85 224.1 297.9 224.1
M 181.85 349.15
L 181.85 313.15 297.9 313.15 297.9 349.15 181.85 349.15
M 121.4 215.95
L 121.4 179.95 237.45 179.95 237.45 215.95 121.4 215.95 Z"/>

<path fill="#FFFFFF" stroke="none" d="
M 121.4 179.95
L 121.4 215.95 237.45 215.95 237.45 179.95 121.4 179.95
M 181.85 313.15
L 181.85 349.15 297.9 349.15 297.9 313.15 181.85 313.15
M 297.9 260.1
L 297.9 224.1 181.85 224.1 181.85 260.1 297.9 260.1
M 121.4 268.35
L 121.4 304.35 237.45 304.35 237.45 268.35 121.4 268.35
M 121.4 356.75
L 121.4 392.75 237.45 392.75 237.45 356.75 121.4 356.75
M 59.5 313.15
L 59.5 349.15 175.55 349.15 175.55 313.15 59.5 313.15
M 59.5 224.1
L 59.5 260.1 175.55 260.1 175.55 224.1 59.5 224.1
M 237.45 129.5
L 237.45 93.5 121.4 93.5 121.4 129.5 237.45 129.5
M 175.55 173
L 175.55 137 59.5 137 59.5 173 175.55 173
M 181.85 137
L 181.85 173 297.9 173 297.9 137 181.85 137
M 359.8 215.95
L 359.8 179.95 243.75 179.95 243.75 215.95 359.8 215.95
M 359.8 304.35
L 359.8 268.35 243.75 268.35 243.75 304.35 359.8 304.35
M 421.4 349.15
L 421.4 313.15 305.35 313.15 305.35 349.15 421.4 349.15
M 359.8 392.75
L 359.8 356.75 243.75 356.75 243.75 392.75 359.8 392.75
M 421.4 260.1
L 421.4 224.1 305.35 224.1 305.35 260.1 421.4 260.1
M 359.8 129.5
L 359.8 93.5 243.75 93.5 243.75 129.5 359.8 129.5
M 421.4 173
L 421.4 137 305.35 137 305.35 173 421.4 173 Z"/>
</g>

<path id="Layer3_0_1_STROKES" stroke="#000000" stroke-width="1" stroke-linejoin="round" stroke-linecap="round" fill="none" d="
M 53.05 68.8
Q 37.480859375 71.851953125 36.65 84.6
L 36.65 390.75
Q 35.7587890625 405.071875 52.25 406.95
L 420 406.95 419.75 407.2
Q 435.8939453125 405.3142578125 435.375 391.525 435.365625 391.264453125 435.35 391
L 435.35 85
Q 435.53515625 71.1833984375 419.75 68.8
L 53.05 68.8 Z"/>

<path id="Layer3_1_1_STROKES" stroke="#000000" stroke-width="1" stroke-linejoin="round" stroke-linecap="round" fill="none" d="
M 117.4 91.5
L 233.45 91.5 233.45 127.5 117.4 127.5 117.4 91.5 Z"/>

<path id="Layer3_2_1_STROKES" stroke="#000000" stroke-width="1" stroke-linejoin="round" stroke-linecap="round" fill="none" d="
M 239.75 91.5
L 355.8 91.5 355.8 127.5 239.75 127.5 239.75 91.5 Z"/>

<path id="Layer3_3_1_STROKES" stroke="#000000" stroke-width="1" stroke-linejoin="round" stroke-linecap="round" fill="none" d="
M 301.35 135
L 417.4 135 417.4 171 301.35 171 301.35 135 Z"/>

<path id="Layer3_4_1_STROKES" stroke="#000000" stroke-width="1" stroke-linejoin="round" stroke-linecap="round" fill="none" d="
M 177.85 135
L 293.9 135 293.9 171 177.85 171 177.85 135 Z"/>

<path id="Layer3_5_1_STROKES" stroke="#000000" stroke-width="1" stroke-linejoin="round" stroke-linecap="round" fill="none" d="
M 55.5 135
L 171.55 135 171.55 171 55.5 171 55.5 135 Z"/>

<path id="Layer3_6_1_STROKES" stroke="#000000" stroke-width="1" stroke-linejoin="round" stroke-linecap="round" fill="none" d="
M 239.75 177.95
L 355.8 177.95 355.8 213.95 239.75 213.95 239.75 177.95 Z"/>

<path id="Layer3_7_1_STROKES" stroke="#000000" stroke-width="1" stroke-linejoin="round" stroke-linecap="round" fill="none" d="
M 117.4 177.95
L 233.45 177.95 233.45 213.95 117.4 213.95 117.4 177.95 Z"/>

<path id="Layer3_8_1_STROKES" stroke="#000000" stroke-width="1" stroke-linejoin="round" stroke-linecap="round" fill="none" d="
M 301.35 222.1
L 417.4 222.1 417.4 258.1 301.35 258.1 301.35 222.1 Z"/>

<path id="Layer3_9_1_STROKES" stroke="#000000" stroke-width="1" stroke-linejoin="round" stroke-linecap="round" fill="none" d="
M 177.85 222.1
L 293.9 222.1 293.9 258.1 177.85 258.1 177.85 222.1 Z"/>

<path id="Layer3_10_1_STROKES" stroke="#000000" stroke-width="1" stroke-linejoin="round" stroke-linecap="round" fill="none" d="
M 55.5 222.1
L 171.55 222.1 171.55 258.1 55.5 258.1 55.5 222.1 Z"/>

<path id="Layer3_11_1_STROKES" stroke="#000000" stroke-width="1" stroke-linejoin="round" stroke-linecap="round" fill="none" d="
M 117.4 266.35
L 233.45 266.35 233.45 302.35 117.4 302.35 117.4 266.35 Z"/>

<path id="Layer3_12_1_STROKES" stroke="#000000" stroke-width="1" stroke-linejoin="round" stroke-linecap="round" fill="none" d="
M 239.75 266.35
L 355.8 266.35 355.8 302.35 239.75 302.35 239.75 266.35 Z"/>

<path id="Layer3_13_1_STROKES" stroke="#000000" stroke-width="1" stroke-linejoin="round" stroke-linecap="round" fill="none" d="
M 301.35 311.15
L 417.4 311.15 417.4 347.15 301.35 347.15 301.35 311.15 Z"/>

<path id="Layer3_14_1_STROKES" stroke="#000000" stroke-width="1" stroke-linejoin="round" stroke-linecap="round" fill="none" d="
M 177.85 311.15
L 293.9 311.15 293.9 347.15 177.85 347.15 177.85 311.15 Z"/>

<path id="Layer3_15_1_STROKES" stroke="#000000" stroke-width="1" stroke-linejoin="round" stroke-linecap="round" fill="none" d="
M 55.5 311.15
L 171.55 311.15 171.55 347.15 55.5 347.15 55.5 311.15 Z"/>

<path id="Layer3_16_1_STROKES" stroke="#000000" stroke-width="1" stroke-linejoin="round" stroke-linecap="round" fill="none" d="
M 239.75 354.75
L 355.8 354.75 355.8 390.75 239.75 390.75 239.75 354.75 Z"/>

<path id="Layer3_17_1_STROKES" stroke="#000000" stroke-width="1" stroke-linejoin="round" stroke-linecap="round" fill="none" d="
M 117.4 354.75
L 233.45 354.75 233.45 390.75 117.4 390.75 117.4 354.75 Z"/>
</defs>

<g transform="matrix( 6.3409423828125, 0, 0, 6.3409423828125, 24,62) ">
<use xlink:href="#foto_jpg"/>
</g>

<g transform="matrix( 1, 0, 0, 1, 0,0) ">
<use xlink:href="#Layer3_0_FILL"/>

<use xlink:href="#Layer3_0_1_STROKES"/>
</g>

<g transform="matrix( 1, 0, 0, 1, 0,0) ">
<use xlink:href="#Layer3_1_FILL"/>

<use xlink:href="#Layer3_1_1_STROKES"/>
</g>

<g transform="matrix( 1, 0, 0, 1, 0,0) ">
<use xlink:href="#Layer3_2_FILL"/>

<use xlink:href="#Layer3_2_1_STROKES"/>
</g>

<g transform="matrix( 1, 0, 0, 1, 0,0) ">
<use xlink:href="#Layer3_3_FILL"/>

<use xlink:href="#Layer3_3_1_STROKES"/>
</g>

<g transform="matrix( 1, 0, 0, 1, 0,0) ">
<use xlink:href="#Layer3_4_FILL"/>

<use xlink:href="#Layer3_4_1_STROKES"/>
</g>

<g transform="matrix( 1, 0, 0, 1, 0,0) ">
<use xlink:href="#Layer3_5_FILL"/>

<use xlink:href="#Layer3_5_1_STROKES"/>
</g>

<g transform="matrix( 1, 0, 0, 1, 0,0) ">
<use xlink:href="#Layer3_6_FILL"/>

<use xlink:href="#Layer3_6_1_STROKES"/>
</g>

<g transform="matrix( 1, 0, 0, 1, 0,0) ">
<use xlink:href="#Layer3_7_FILL"/>

<use xlink:href="#Layer3_7_1_STROKES"/>
</g>

<g transform="matrix( 1, 0, 0, 1, 0,0) ">
<use xlink:href="#Layer3_8_FILL"/>

<use xlink:href="#Layer3_8_1_STROKES"/>
</g>

<g transform="matrix( 1, 0, 0, 1, 0,0) ">
<use xlink:href="#Layer3_9_FILL"/>

<use xlink:href="#Layer3_9_1_STROKES"/>
</g>

<g transform="matrix( 1, 0, 0, 1, 0,0) ">
<use xlink:href="#Layer3_10_FILL"/>

<use xlink:href="#Layer3_10_1_STROKES"/>
</g>

<g transform="matrix( 1, 0, 0, 1, 0,0) ">
<use xlink:href="#Layer3_11_FILL"/>

<use xlink:href="#Layer3_11_1_STROKES"/>
</g>

<g transform="matrix( 1, 0, 0, 1, 0,0) ">
<use xlink:href="#Layer3_12_FILL"/>

<use xlink:href="#Layer3_12_1_STROKES"/>
</g>

<g transform="matrix( 1, 0, 0, 1, 0,0) ">
<use xlink:href="#Layer3_13_FILL"/>

<use xlink:href="#Layer3_13_1_STROKES"/>
</g>

<g transform="matrix( 1, 0, 0, 1, 0,0) ">
<use xlink:href="#Layer3_14_FILL"/>

<use xlink:href="#Layer3_14_1_STROKES"/>
</g>

<g transform="matrix( 1, 0, 0, 1, 0,0) ">
<use xlink:href="#Layer3_15_FILL"/>

<use xlink:href="#Layer3_15_1_STROKES"/>
</g>

<g transform="matrix( 1, 0, 0, 1, 0,0) ">
<use xlink:href="#Layer3_16_FILL"/>

<use xlink:href="#Layer3_16_1_STROKES"/>
</g>

<g transform="matrix( 1, 0, 0, 1, 0,0) ">
<use xlink:href="#Layer3_17_FILL"/>

<use xlink:href="#Layer3_17_1_STROKES"/>
</g>

<g transform="matrix( 1, 0, 0, 1, 4,2) ">
<use xlink:href="#Layer2_0_FILL"/>
</g>

<g transform="matrix( 1, 0, 0, 1, 0,0) ">
<use xlink:href="#Layer1_0_FILL"/>
</g>

<g transform="matrix( 1, 0, 0, 1, 0,0) ">
<use xlink:href="#Layer0_0_FILL"/>
</g>
</svg>
