
<svg xmlns="http://www.w3.org/2000/svg" version="1.1" xmlns:xlink="http://www.w3.org/1999/xlink" preserveAspectRatio="none" x="0px" y="0px" width="512px" height="512px" viewBox="0 0 512 512">
<defs>
<g id="Layer0_0_FILL">
<path fill="#FFFFFF" stroke="none" d="
M 506 256
Q 506 152.4 432.8 79.15 359.55 6 256 6 152.4 6 79.2 79.15 6 152.4 6 256 6 359.5 79.2 432.75 152.4 506 256 506 359.55 506 432.8 432.75 506 359.5 506 256
M 411.35 102.45
Q 475.7 166.9 475.7 257.9 475.7 346.2 415.2 409.35 362.65 307.8 256.95 303.4 256.5 303.35 256.05 303.35 255.55 303.35 255.1 303.4 149.3 307.8 96.85 409.35 36.25 346.2 36.25 257.9 36.25 166.9 100.65 102.45 165 38.15 256 38.15 347.05 38.15 411.35 102.45
M 121.4 431.8
L 121.4 431.2
Q 161.2 337.5 256.95 334.05 352.35 337.5 392.2 430.5 333.85 477.6 256 477.6 179.2 477.6 121.4 431.8
M 190.9 111.7
Q 163.95 138.7 163.95 176.8 163.95 214.95 190.9 241.85 217.9 268.8 256 268.8 294.1 268.8 321.1 241.85 348 214.95 348 176.8 348 138.7 321.1 111.7 294.1 84.7 256 84.7 217.9 84.7 190.9 111.7
M 193.45 176.8
Q 193.45 150.9 211.8 132.6 230.15 114.25 256.05 114.25 281.85 114.25 300.2 132.6 318.45 150.9 318.45 176.8 318.45 202.7 300.2 221.05 281.85 239.25 256.05 239.25 230.15 239.25 211.8 221.05 193.45 202.7 193.45 176.8 Z"/>
</g>

<path id="Layer0_0_1_STROKES" stroke="#00FFFF" stroke-width="1" stroke-linejoin="round" stroke-linecap="round" fill="none" d="
M 121.4 431.2
L 121.4 431.8"/>
</defs>

<g transform="matrix( 1, 0, 0, 1, 0,0) ">
<use xlink:href="#Layer0_0_FILL"/>

<use xlink:href="#Layer0_0_1_STROKES"/>
</g>
</svg>
