
<svg xmlns="http://www.w3.org/2000/svg" version="1.1" xmlns:xlink="http://www.w3.org/1999/xlink" preserveAspectRatio="none" x="0px" y="0px" width="512px" height="512px" viewBox="0 0 512 512">
<defs>
<g id="Layer0_0_FILL">
<path fill="#FFFFFF" stroke="none" d="
M 506.5 124.25
Q 506.3 116.35 498.3 114.15
L 472.45 114.15 472.45 76.2
Q 469 61.55 455.3 50.95 399.45 7 256.5 6 113.6 7 57.75 50.95 44.05 61.55 40.6 76.2
L 40.6 114.15 14.75 114.15
Q 6.75 116.35 6.5 124.25
L 6.5 174.8
Q 11 238.7 40.6 288.65
L 40.6 435.4
Q 57.4 500.65 256.5 506 455.65 500.65 472.45 435.4
L 472.45 288.65
Q 502.05 238.7 506.5 174.8
L 506.5 124.25
M 488.8 131.7
L 488.8 177.5
Q 485 217.7 472.45 250.95
L 472.45 131.7 488.8 131.7
M 455.3 76.95
Q 456.4 81.6 455.3 86.3 422.85 134.75 256.5 139.8 90.2 134.75 57.75 86.3 56.65 81.6 57.75 76.95 90.2 28.5 256.5 23.45 422.85 28.5 455.3 76.95
M 389.25 167.5
Q 387.15 183.6 370.9 189
L 359.85 189
Q 327.7 195.45 322.75 226.1
L 322.75 249.8
Q 318.6 277.65 289.7 281.25 260.55 277.65 256.6 249.4
L 256.6 229.85
Q 254.25 215.6 248.1 206.6 244.35 201.1 239.05 197.3 229.3 190.35 214.3 189 177.5 192.25 172.5 229.3
L 172.5 284.35
Q 168.15 311.35 139.85 314.35 111.6 311.35 107.25 284.35
L 107.25 137.3
Q 163.35 156.2 256.5 156.8 336.5 156.25 389.25 142.25
L 389.25 167.5
M 406.3 170.2
L 406.3 137.15
Q 436 127 455.3 111.85
L 455.3 285.35
Q 413.7 350.4 347.55 378.4 347.25 371.9 339.85 372
L 173.2 372
Q 165.8 371.9 165.5 378.4 127.05 362.1 96.85 333.3 96.75 333.2 96.65 333.1 95.85 332.35 95.1 331.6 92.6 329.15 90.15 326.65 88.05 324.4 85.9 322.1 82.35 318.25 78.9 314.15 67.6 300.8 57.75 285.35
L 57.75 111.85
Q 71.35 122.55 90.15 130.75
L 90.15 286.05
Q 98.15 328.45 139.85 331.6 164.4 329.75 177.25 314.35 186.3 303.55 189.6 286.05
L 189.6 230.35
Q 192.75 208.9 214.3 206.6 235.85 208.9 239.05 230.35
L 239.05 252.25
Q 246.3 295.25 289.5 298.2 289.6 298.2 289.7 298.2 310.4 296.75 322.75 286.05 336.15 274.5 339.95 252.25
L 339.95 229.4
Q 342 210.45 361.25 206.6
L 368.9 206.6
Q 399.6 203.35 406.3 170.2
M 24.25 177.5
L 24.25 131.7 40.6 131.7 40.6 250.95
Q 28.05 217.7 24.25 177.5
M 165.5 397.8
L 165.5 416.25
Q 165.65 422.8 172.55 423
L 340.5 423
Q 347.4 422.8 347.55 416.25
L 347.55 397.8
Q 417.6 367.3 455.3 315.1
L 455.3 435.4
Q 424.05 485.55 256.5 488.05 89 485.55 57.75 435.4
L 57.75 315.1
Q 95.4 367.3 165.5 397.8
M 182 389.4
L 331.05 389.4 331.05 405.3 182 405.3 182 389.4
M 90.2 81.7
Q 92.35 120.55 256.5 122.9 420.7 120.55 422.85 81.7 420.7 42.85 256.5 40.55 92.35 42.85 90.2 81.7
M 256.5 106.25
Q 135.3 104 107.75 81.7 135.3 59.45 256.5 57.2 377.75 59.45 405.3 81.7 377.75 104 256.5 106.25 Z"/>
</g>
</defs>

<g transform="matrix( 1, 0, 0, 1, 0,0) ">
<use xlink:href="#Layer0_0_FILL"/>
</g>
</svg>
