
<svg xmlns="http://www.w3.org/2000/svg" version="1.1" xmlns:xlink="http://www.w3.org/1999/xlink" preserveAspectRatio="none" x="0px" y="0px" width="512px" height="512px" viewBox="0 0 512 512">
<defs>
<g id="Layer0_0_FILL">
<path fill="#FFFFFF" stroke="none" d="
M 477.65 318
L 477.65 250.6
Q 458.3 113 325.15 60.7 317.1 24.5 256.5 21 195.9 24.5 187.85 60.7 54.75 113 35.35 250.6
L 35.35 318
Q 6.45 328.4 6.5 359.15 6.45 392.05 39.55 401.7 74.9 480.8 158.2 491
L 354.8 491
Q 438.1 480.8 473.45 401.7 506.55 392.05 506.5 359.15 506.55 328.4 477.65 318
M 386.75 132.1
Q 386.9 132.25 387.05 132.45 396.1 141.55 403.75 151.15 406.6 154.65 409.25 158.3 446.65 209.1 448.55 272.9
L 448.55 314.95 271.05 314.95 271.05 227.05 325.2 227.05
Q 354.1 224.85 365.35 197.25
L 386.75 132.1
M 336.85 188.35
Q 334.4 195.65 325.8 197.25
L 303.95 197.25 324 92.75
Q 348.3 103.05 361.8 112.6
L 336.85 188.35
M 461.6 344.75
Q 462.1 344.7 462.55 344.7 462.7 344.7 462.9 344.7 468.85 344.7 473.1 348.9 477.3 353.15 477.3 359.1
L 477.3 359.15
Q 477.3 365.05 473.1 369.3 471.6 370.8 469.9 371.75 466.9 373.45 463.25 373.55
L 49.8 373.55
Q 46.1 373.45 43.1 371.75 41.4 370.8 39.9 369.3 35.7 365.05 35.7 359.15
L 35.7 359.1
Q 35.7 353.15 39.9 348.9 44.15 344.7 50.15 344.7 50.35 344.7 50.5 344.7 50.95 344.7 51.45 344.75
L 461.6 344.75
M 256.5 50.95
Q 295.9 54.95 297.65 71.75
L 273.4 197.25 239.65 197.25 215.4 71.75
Q 217.1 54.95 256.5 50.95
M 187.2 197.25
Q 178.65 195.65 176.2 188.35
L 151.25 112.6
Q 164.7 103.05 189 92.75
L 209.1 197.25 187.2 197.25
M 125.95 132.45
Q 126.1 132.25 126.25 132.1
L 147.7 197.25
Q 158.9 224.85 187.8 227.05
L 242 227.05 242 314.95 64.45 314.95 64.45 272.9
Q 66.35 209.1 103.75 158.3 106.4 154.65 109.25 151.15 116.95 141.55 125.95 132.45
M 168.95 461.65
Q 104.35 456.45 72.9 402.7
L 440.1 402.7
Q 408.65 456.45 344.05 461.65
L 168.95 461.65 Z"/>
</g>
</defs>

<g transform="matrix( 1, 0, 0, 1, 0,0) ">
<use xlink:href="#Layer0_0_FILL"/>
</g>
</svg>
