
<svg xmlns="http://www.w3.org/2000/svg" version="1.1" xmlns:xlink="http://www.w3.org/1999/xlink" preserveAspectRatio="none" x="0px" y="0px" width="512px" height="512px" viewBox="0 0 512 512">
<defs>
<g id="Layer0_0_FILL">
<path fill="#FFFFFF" stroke="none" d="
M 70.55 299.5
L 70.5 299.5
Q 56.2 287.65 39.95 290.25
L 13.6 302.35
Q 3.85 312.1 6.55 318.5
L 96.95 500.05
Q 104.35 508.75 115.95 504.95 127.55 501.2 140.45 492.4 153.4 483.6 150.55 460.2
L 70.55 299.5
M 313.15 23.45
Q 295.8 6.1 271.2 6.1 246.6 6.1 229.25 23.45 211.9 40.9 211.9 65.5 211.9 90.15 229.25 107.5 246.6 124.95 271.2 124.95 295.8 124.95 313.15 107.5 330.55 90.15 330.55 65.5 330.55 40.9 313.15 23.45
M 374.65 351.7
Q 362.75 360.5 347.4 359.55
L 283.8 359.55
Q 272.05 357.8 272.05 346.05 272.1 332.4 284.15 330.8
L 348.4 330.8
Q 375.45 322.15 375.45 301.2 375.45 279.85 348.4 271.2
L 261.95 271.2
Q 179.6 199.15 93.5 280.25
L 177 447.9 347.4 447.9
Q 385.35 446.3 413.1 415.5
L 501.4 290.15
Q 512.8 264.2 496.1 250.15 479.35 236.1 456.85 250.7
L 374.65 351.7
M 347.15 213.15
Q 355.5 212.95 359 201.4 364.05 158.65 336.45 125.3 307.7 154.9 270.85 155.5 234.05 154.9 205.3 125.3 177.7 158.65 182.75 201.4 186.3 213.15 194.9 213.15
L 347.15 213.15 Z"/>
</g>

<path id="Layer0_0_1_STROKES" stroke="#00FFFF" stroke-width="1" stroke-linejoin="round" stroke-linecap="round" fill="none" d="
M 70.5 299.5
L 70.55 299.5"/>
</defs>

<g transform="matrix( 1, 0, 0, 1, -0.1,0.1) ">
<use xlink:href="#Layer0_0_FILL"/>

<use xlink:href="#Layer0_0_1_STROKES"/>
</g>
</svg>
