
<svg xmlns="http://www.w3.org/2000/svg" version="1.1" xmlns:xlink="http://www.w3.org/1999/xlink" preserveAspectRatio="none" x="0px" y="0px" width="512px" height="512px" viewBox="0 0 512 512">
<defs>
<g id="Layer0_0_FILL">
<path fill="#FFFFFF" stroke="none" d="
M 350.25 337.15
Q 350.1 331.65 344.8 330.05
L 298.4 330.05
Q 293 331.7 292.95 337.35
L 292.95 352.6 223.8 352.6
Q 175.25 344.45 160.3 296.2
L 160.3 219 175.65 219
Q 181.3 218.95 182.95 213.55
L 182.95 167.25
Q 181.35 162 175.85 161.85
L 160.3 161.85 160.3 63.15 175.65 63.15
Q 181.3 63.1 182.95 57.7
L 182.95 11.45
Q 181.35 6.15 175.85 6
L 13.6 6
Q 8.1 6.15 6.5 11.45
L 6.5 57.7
Q 8.1 63 13.6 63.15
L 28.6 63.15 28.6 161.85 13.6 161.85
Q 8.1 162 6.5 167.25
L 6.5 213.55
Q 8.1 218.85 13.6 219
L 28.6 219 28.6 302.3
Q 54.5 461.25 220.6 484
L 292.95 484 292.95 498.9
Q 293.1 504.4 298.4 506
L 344.8 506
Q 350.1 504.4 350.25 498.9
L 350.25 484 449.2 484 449.2 498.9
Q 449.35 504.4 454.65 506
L 501.05 506
Q 506.35 504.4 506.5 498.9
L 506.5 337.15
Q 506.35 331.65 501.05 330.05
L 454.65 330.05
Q 449.25 331.7 449.2 337.35
L 449.2 352.6 350.25 352.6 350.25 337.15
M 350.25 392.1
L 350.25 366.95 449.2 366.95 449.2 392.1 350.25 392.1
M 463.45 344.25
L 493 344.25 493 492.25 463.45 492.25 463.45 344.25
M 168.65 19.45
L 168.65 48.9 20.25 48.9 20.25 19.45 168.65 19.45
M 120.7 63.15
L 145.95 63.15 145.95 161.85 120.7 161.85 120.7 63.15
M 106.7 161.85
L 42.6 161.85 42.6 63.15 106.7 63.15 106.7 161.85
M 106.7 219
L 106.7 296.2
Q 125.15 394.45 223.8 406.05
L 292.95 406.05 292.95 470 220.6 470
Q 71.3 450.95 42.6 301.3
L 42.6 219 106.7 219
M 120.7 219
L 145.95 219 145.95 296.2
Q 160.2 357.5 223.8 366.95
L 292.95 366.95 292.95 392.1 223.8 392.1
Q 140 381.05 120.7 296.2
L 120.7 219
M 20.25 176
L 168.65 176 168.65 205.45 20.25 205.45 20.25 176
M 449.2 406.05
L 449.2 470 350.25 470 350.25 406.05 449.2 406.05
M 306.5 492.25
L 306.5 344.25 336.05 344.25 336.05 492.25 306.5 492.25 Z"/>
</g>
</defs>

<g transform="matrix( 1, 0, 0, 1, 0,0) ">
<use xlink:href="#Layer0_0_FILL"/>
</g>
</svg>
