
<svg xmlns="http://www.w3.org/2000/svg" version="1.1" xmlns:xlink="http://www.w3.org/1999/xlink" preserveAspectRatio="none" x="0px" y="0px" width="512px" height="512px" viewBox="0 0 512 512">
<defs>
<g id="Layer1_0_FILL">
<path fill="#000000" stroke="none" d="
M 367.85 24.25
Q 372 11.15 361.4 6
L 150.55 6
Q 139.95 11.15 144.2 24.2
L 210.95 113.4 210.95 454.25 247.15 502.2
Q 251.25 505.8 256.2 506 261.15 505.8 265.45 502.2
L 302.1 453.7 302.1 112.1 367.85 24.25
M 256.2 64
Q 264.4 62.65 267.9 53.8
L 267.9 29.05 334.85 29.05 278.85 103.9 278.85 125.3 233.85 155.1 233.85 104.25 177.55 29.05 244.15 29.05 244.15 53.8
Q 247.7 62.75 256.05 64.05 256.1 64 256.2 64
M 278.85 152.6
L 278.85 193.35 233.85 223.1 233.85 182.6 278.85 152.6
M 278.85 220.6
L 278.85 261.65 233.85 291.4 233.85 250.65 278.85 220.6
M 233.85 359.45
L 233.85 318.9 278.85 288.9 278.85 329.65 233.85 359.45
M 233.85 386.95
L 278.85 356.95 278.85 398.2 233.85 427.95 233.85 386.95
M 278.9 425.4
L 278.9 444.9 256.25 475.55 256.2 475.5 246.85 462.9 246.8 462.75 238.95 452.2 238.95 452.15 277.95 426.05
Q 278.15 425.9 278.4 425.75 278.45 425.7 278.5 425.65
L 278.85 425.45 278.9 425.4 Z"/>
</g>

<g id="Layer0_0_FILL">
<path fill="#FFFFFF" stroke="none" d="
M 367.85 24.25
Q 372 11.15 361.4 6
L 150.55 6
Q 139.95 11.15 144.2 24.2
L 210.95 113.4 210.95 454.25 247.15 502.2
Q 251.25 505.8 256.2 506 261.15 505.8 265.45 502.2
L 302.1 453.7 302.1 112.1 367.85 24.25
M 244.15 53.8
Q 247.7 62.75 256.05 64.05 256.1 64 256.2 64 264.4 62.65 267.9 53.8
L 267.9 29.05 334.85 29.05 278.85 103.9 278.85 125.3 233.85 155.1 233.85 104.25 177.55 29.05 244.15 29.05 244.15 53.8
M 278.85 152.6
L 278.85 193.35 233.85 223.1 233.85 182.6 278.85 152.6
M 278.85 220.6
L 278.85 261.65 233.85 291.4 233.85 250.65 278.85 220.6
M 233.85 359.45
L 233.85 318.9 278.85 288.9 278.85 329.65 233.85 359.45
M 233.85 386.95
L 278.85 356.95 278.85 398.2 233.85 427.95 233.85 386.95
M 277.95 426.05
Q 278.15 425.9 278.4 425.75 278.45 425.7 278.5 425.65
L 278.85 425.45 278.9 425.4 278.9 444.9 256.25 475.55 256.2 475.5 246.85 462.9 246.8 462.75 238.95 452.2 238.95 452.15 277.95 426.05 Z"/>
</g>
</defs>

<g transform="matrix( 1, 0, 0, 1, 0,0) ">
<use xlink:href="#Layer1_0_FILL"/>
</g>

<g transform="matrix( 1, 0, 0, 1, 0,0) ">
<use xlink:href="#Layer0_0_FILL"/>
</g>
</svg>
