<?xml version="1.0" standalone="no"?>
<!DOCTYPE svg PUBLIC "-//W3C//DTD SVG 20010904//EN"
 "http://www.w3.org/TR/2001/REC-SVG-20010904/DTD/svg10.dtd">
<svg version="1.0" xmlns="http://www.w3.org/2000/svg"
 width="1700.000000pt" height="531.000000pt" viewBox="0 0 1700.000000 531.000000"
 preserveAspectRatio="xMidYMid meet">
<metadata>
Created by potrace 1.16, written by Peter Selinger 2001-2019
</metadata>
<g transform="translate(0.000000,531.000000) scale(0.100000,-0.100000)"
fill="#000000" stroke="none">
<path d="M5470 4128 c-322 -589 -597 -1094 -612 -1122 -65 -122 -76 -283 -25
-382 53 -104 168 -188 291 -214 34 -7 308 -9 811 -8 l760 3 68 32 c85 40 157
113 213 214 23 41 99 178 169 304 69 127 282 503 473 838 l346 607 204 0 203
0 -29 -52 c-65 -115 -1062 -1948 -1062 -1953 0 -3 216 -4 481 -3 l481 3 569
995 569 995 472 5 472 5 221 390 222 390 -446 6 c-245 3 -784 7 -1197 8 l-752
1 -208 -385 -209 -385 -476 0 -477 0 -338 -625 -339 -624 -173 -1 c-173 0
-173 0 -199 26 -34 34 -27 64 37 171 103 171 1000 1808 1000 1824 0 5 -194 9
-467 9 l-468 0 -585 -1072z"/>
<path d="M10075 3954 c-93 -168 -172 -310 -174 -316 -6 -18 189 -5 226 15 18
10 67 52 110 95 143 142 226 171 522 179 l203 6 -12 -24 c-71 -133 -729 -1261
-749 -1282 -38 -41 -70 -56 -179 -78 -53 -12 -107 -27 -120 -35 -23 -15 -82
-90 -82 -106 0 -4 276 -8 614 -8 l614 0 23 46 c29 61 21 73 -75 105 -42 14
-79 29 -83 32 -3 4 -2 20 3 37 5 16 176 318 379 671 l370 641 205 -5 c113 -3
222 -10 242 -16 20 -6 49 -26 63 -43 29 -34 29 -32 9 -169 -9 -66 12 -79 126
-79 l85 0 173 314 c94 173 172 317 172 320 0 3 -29 6 -65 6 -37 0 -65 -4 -65
-10 0 -7 -380 -10 -1120 -10 -740 0 -1120 3 -1120 10 0 6 -27 10 -62 10 l-63
0 -170 -306z"/>
<path d="M11480 2710 c0 -113 1 -120 20 -120 18 0 20 7 21 58 l1 57 12 -55
c10 -48 14 -55 36 -55 21 0 26 7 36 50 l12 50 1 -52 c1 -50 3 -53 26 -53 l25
0 0 120 0 120 -34 0 c-37 0 -39 -3 -52 -72 -6 -38 -24 -53 -24 -20 0 9 -5 34
-11 55 -9 32 -14 37 -39 37 l-30 0 0 -120z"/>
<path d="M11690 2710 l0 -120 25 0 c23 0 25 3 25 50 0 61 15 59 50 -5 20 -37
30 -45 52 -45 34 0 34 4 3 59 -23 40 -24 46 -10 61 8 9 15 33 15 53 0 49 -28
67 -102 67 l-58 0 0 -120z"/>
<path d="M9334 1525 l-32 -85 47 0 c45 0 48 2 86 53 21 28 49 67 63 85 l24 32
-78 0 -79 0 -31 -85z"/>
<path d="M15509 1583 c-40 -104 -49 -129 -49 -135 0 -5 20 -8 43 -8 43 0 45 2
105 79 34 44 62 82 62 85 0 4 -34 6 -75 6 -73 0 -76 -1 -86 -27z"/>
<path d="M902 1277 l3 -323 26 -49 c35 -68 87 -104 175 -117 133 -20 238 23
285 119 24 47 24 54 27 371 l4 322 -71 0 -71 0 0 -277 c0 -164 -4 -294 -11
-316 -18 -67 -93 -95 -164 -61 -62 29 -65 48 -65 368 l0 286 -71 0 -70 0 3
-323z"/>
<path d="M2100 1525 l0 -75 65 0 65 0 0 75 0 75 -65 0 -65 0 0 -75z"/>
<path d="M4210 1525 l0 -75 65 0 65 0 0 75 0 75 -65 0 -65 0 0 -75z"/>
<path d="M4760 1464 l0 -136 -31 26 c-38 32 -67 40 -125 33 -98 -11 -162 -105
-171 -251 -12 -187 45 -314 156 -347 49 -14 109 2 150 40 l31 29 0 -29 0 -29
65 0 65 0 0 400 0 400 -70 0 -70 0 0 -136z m-46 -223 c31 -26 46 -76 46 -153
0 -82 -18 -129 -62 -161 -40 -29 -84 -9 -110 51 -28 62 -23 197 8 239 39 52
76 60 118 24z"/>
<path d="M5820 1464 l0 -135 -36 27 c-67 51 -166 43 -225 -19 -82 -85 -102
-313 -39 -437 60 -118 179 -150 270 -74 l30 26 0 -26 c0 -25 2 -26 65 -26 l65
0 0 400 0 400 -65 0 -65 0 0 -136z m-64 -213 c40 -25 58 -75 58 -166 0 -83
-23 -139 -65 -160 -70 -37 -129 41 -129 171 0 83 28 145 75 165 28 11 26 11
61 -10z"/>
<path d="M6270 1525 l0 -75 95 0 95 0 0 -325 0 -325 70 0 70 0 0 325 0 325 95
0 95 0 0 75 0 75 -260 0 -260 0 0 -75z"/>
<path d="M8907 1593 c-4 -3 -7 -183 -7 -400 l0 -393 70 0 70 0 0 400 0 400
-63 0 c-35 0 -67 -3 -70 -7z"/>
<path d="M10260 1525 l0 -75 65 0 65 0 0 75 0 75 -65 0 -65 0 0 -75z"/>
<path d="M12070 1463 l0 -136 -22 20 c-35 32 -63 43 -108 43 -88 0 -157 -60
-187 -159 -20 -69 -14 -257 10 -312 58 -132 187 -175 278 -92 l39 35 0 -31 0
-31 60 0 60 0 0 400 0 400 -65 0 -65 0 0 -137z m-43 -225 c46 -43 56 -202 16
-270 -28 -48 -64 -63 -103 -43 -42 22 -62 72 -63 160 -2 89 16 141 56 166 35
21 60 17 94 -13z"/>
<path d="M13020 1525 l0 -75 95 0 95 0 0 -325 0 -325 75 0 75 0 0 325 0 325
95 0 95 0 0 75 0 75 -265 0 -265 0 0 -75z"/>
<path d="M1742 1373 c-18 -9 -42 -27 -52 -41 l-20 -25 0 37 0 36 -60 0 -60 0
0 -290 0 -290 64 0 64 0 4 193 c4 214 9 236 66 263 33 15 36 15 60 -3 15 -11
30 -31 33 -44 4 -13 7 -111 8 -216 l1 -193 65 0 65 0 0 233 c0 262 -8 298 -72
337 -41 25 -119 26 -166 3z"/>
<path d="M2960 1379 c-38 -15 -79 -58 -108 -114 -25 -47 -27 -59 -27 -180 0
-122 2 -133 27 -182 33 -62 77 -97 141 -114 62 -15 144 1 189 39 30 25 81 119
73 133 -3 3 -24 9 -47 13 -24 4 -53 9 -65 13 -16 3 -23 1 -23 -10 0 -26 -40
-67 -66 -67 -50 0 -81 33 -98 103 l-6 27 156 0 157 0 -5 83 c-7 126 -57 220
-135 253 -37 16 -126 17 -163 3z m129 -133 c16 -13 41 -68 41 -91 0 -12 -15
-15 -85 -15 -85 0 -85 0 -85 26 0 33 27 80 54 92 23 11 53 6 75 -12z"/>
<path d="M3504 1354 l-34 -35 0 30 0 31 -60 0 -60 0 0 -290 0 -290 63 0 64 0
6 178 c7 199 12 228 49 255 24 18 27 18 57 3 35 -19 31 -22 56 59 20 66 19 70
-10 83 -51 23 -95 15 -131 -24z"/>
<path d="M3774 1371 c-58 -26 -87 -72 -92 -143 -8 -109 37 -162 175 -204 104
-32 115 -39 111 -73 -4 -37 -70 -60 -114 -40 -16 8 -36 29 -44 46 -8 18 -23
33 -32 33 -34 0 -118 -22 -118 -31 0 -20 32 -85 53 -107 43 -46 96 -66 177
-66 147 0 230 83 218 216 -9 87 -56 126 -205 173 -91 28 -115 51 -84 79 18 16
75 21 106 10 8 -4 22 -19 30 -34 l14 -28 57 14 c66 15 68 16 60 46 -12 46 -47
89 -89 108 -57 26 -167 26 -223 1z"/>
<path d="M5095 1376 c-17 -7 -43 -27 -57 -44 -27 -33 -54 -99 -44 -109 3 -3
29 -11 58 -18 52 -11 52 -11 73 19 25 36 62 50 99 37 26 -11 51 -54 42 -76 -2
-7 -50 -25 -105 -40 -112 -30 -146 -52 -167 -101 -18 -44 -18 -138 1 -173 48
-94 171 -115 254 -45 l30 25 7 -25 c6 -25 9 -26 75 -26 l69 0 -12 28 c-7 16
-14 116 -17 242 -7 245 -13 265 -86 300 -49 24 -172 27 -220 6z m170 -373
c-13 -88 -91 -132 -134 -77 -26 33 -26 55 -3 83 18 23 135 63 141 49 1 -5 0
-30 -4 -55z"/>
<path d="M6879 1362 c-137 -88 -161 -385 -40 -515 41 -45 79 -61 151 -61 106
-1 188 59 206 150 6 30 5 31 -38 38 -23 4 -52 9 -64 12 -16 4 -24 -1 -34 -26
-32 -76 -117 -63 -149 23 -22 58 -25 57 145 57 l157 0 -6 78 c-14 182 -89 271
-228 272 -44 0 -64 -6 -100 -28z m140 -107 c26 -13 40 -36 56 -92 6 -23 5 -23
-85 -23 l-92 0 7 33 c11 53 41 87 83 96 2 1 16 -6 31 -14z"/>
<path d="M7415 1376 c-47 -21 -84 -61 -112 -124 -23 -49 -27 -71 -27 -157 -1
-109 15 -172 61 -233 53 -70 140 -96 235 -68 75 21 120 74 146 168 l10 37 -56
12 c-31 6 -62 13 -68 16 -6 2 -14 -10 -18 -28 -21 -106 -138 -103 -165 5 -33
133 7 256 84 256 34 0 75 -34 75 -63 0 -9 3 -18 8 -21 8 -5 120 19 129 28 8 8
-15 67 -43 109 -15 23 -42 46 -67 58 -50 22 -147 25 -192 5z"/>
<path d="M8005 1378 c-11 -6 -32 -22 -47 -36 l-28 -26 0 32 0 32 -65 0 -65 0
0 -290 0 -290 70 0 70 0 0 193 c0 174 2 195 20 225 36 58 98 64 125 11 12 -22
15 -72 15 -229 l0 -200 71 0 71 0 -4 238 c-3 265 -8 282 -78 329 -36 25 -119
31 -155 11z"/>
<path d="M8475 1371 c-108 -49 -167 -188 -145 -344 24 -167 137 -264 281 -241
70 12 129 60 169 138 33 65 35 75 35 165 0 82 -4 104 -26 151 -29 63 -79 117
-126 136 -46 20 -140 17 -188 -5z m136 -127 c83 -42 94 -234 18 -298 -87 -73
-182 27 -165 173 7 61 34 112 68 129 32 15 44 14 79 -4z"/>
<path d="M9280 1374 c-49 -21 -87 -60 -118 -119 -34 -65 -43 -204 -18 -287 34
-118 117 -183 231 -182 111 1 189 64 225 183 50 160 -6 343 -122 400 -53 25
-146 28 -198 5z m153 -142 c31 -27 47 -76 47 -142 0 -101 -43 -170 -105 -170
-67 0 -108 64 -107 171 0 74 17 115 59 149 31 25 73 22 106 -8z"/>
<path d="M9797 1370 c-122 -67 -159 -338 -67 -484 38 -60 82 -86 143 -86 51 0
78 10 115 43 l22 20 0 -60 c0 -73 -18 -101 -72 -110 -41 -6 -88 16 -88 41 0
13 -11 16 -107 31 l-43 7 0 -45 c0 -49 26 -96 73 -131 22 -17 47 -22 113 -25
47 -1 100 0 119 3 47 9 94 51 119 106 19 42 21 66 24 373 l4 327 -66 0 -66 0
0 -32 0 -32 -35 34 c-30 29 -43 34 -92 37 -44 2 -67 -2 -96 -17z m170 -132
c35 -32 45 -71 42 -155 -4 -88 -30 -138 -76 -150 -65 -16 -113 52 -113 159 0
144 71 215 147 146z"/>
<path d="M10613 1369 c-48 -24 -87 -70 -110 -131 -23 -62 -23 -227 0 -293 20
-58 66 -119 106 -139 70 -37 175 -28 240 21 34 27 81 112 81 150 0 22 -6 25
-65 38 -16 3 -37 8 -46 11 -12 3 -18 -4 -23 -28 -14 -71 -77 -99 -129 -58 -32
25 -47 75 -47 157 0 102 36 163 96 163 33 0 74 -36 74 -66 0 -7 3 -15 8 -18 7
-4 120 19 128 27 7 7 -25 87 -47 119 -47 66 -180 90 -266 47z"/>
<path d="M11094 1371 c-23 -10 -50 -32 -61 -47 -21 -31 -46 -94 -39 -101 2 -3
29 -10 60 -17 l57 -14 15 30 c26 50 92 59 129 18 9 -10 15 -29 13 -42 -3 -20
-15 -27 -93 -49 -124 -35 -153 -52 -176 -102 -53 -117 4 -246 116 -263 38 -5
54 -2 102 22 32 16 61 30 65 32 5 2 8 -6 8 -17 0 -19 6 -21 70 -21 39 0 70 2
70 4 0 3 -5 17 -12 33 -7 17 -14 116 -17 243 -6 202 -7 217 -28 246 -13 18
-41 39 -63 48 -56 22 -164 21 -216 -3z m164 -408 c-7 -14 -25 -35 -40 -47 -35
-25 -77 -14 -96 27 -23 47 1 78 78 103 l65 21 3 -38 c2 -22 -3 -51 -10 -66z"/>
<path d="M12408 1370 c-109 -58 -160 -256 -108 -421 34 -111 101 -163 210
-163 72 0 109 15 151 61 33 35 62 91 56 107 -6 14 -114 39 -128 30 -5 -3 -9
-11 -9 -18 0 -23 -40 -56 -69 -56 -36 0 -80 46 -88 93 l-6 37 158 0 158 0 -7
75 c-12 133 -55 218 -128 254 -57 27 -139 27 -190 1z m142 -127 c20 -18 33
-41 37 -65 l6 -38 -87 0 c-83 0 -86 1 -86 23 0 44 50 103 92 106 4 1 21 -11
38 -26z"/>
<path d="M13674 1371 c-52 -24 -109 -91 -130 -153 -12 -37 -15 -75 -12 -151 3
-90 7 -109 33 -157 68 -126 216 -164 333 -86 36 24 55 48 82 100 33 65 35 75
35 165 -1 104 -16 155 -70 225 -55 72 -180 98 -271 57z m137 -127 c83 -42 94
-234 18 -298 -81 -68 -162 1 -163 139 -1 81 19 131 62 157 34 22 45 22 83 2z"/>
<path d="M14259 1361 l-29 -29 0 24 c0 23 -3 24 -65 24 l-65 0 0 -290 0 -290
63 0 64 0 7 181 c7 194 18 243 58 258 16 6 32 4 51 -6 16 -8 30 -13 31 -11 5
5 36 124 36 135 0 15 -46 33 -86 33 -26 0 -44 -8 -65 -29z"/>
<path d="M14610 1362 l-30 -30 0 24 c0 23 -3 24 -65 24 l-65 0 0 -290 0 -290
69 0 69 0 4 193 c2 160 6 197 20 219 21 32 49 40 84 22 15 -8 28 -13 30 -12 1
2 10 33 20 70 22 81 17 89 -55 96 -46 4 -53 2 -81 -26z"/>
<path d="M14895 1367 c-50 -28 -100 -108 -116 -186 -16 -76 -6 -197 21 -257
42 -97 101 -138 201 -138 88 0 144 31 183 104 15 28 25 57 23 64 -3 8 -23 17
-44 20 -21 4 -47 10 -59 12 -16 4 -24 -2 -34 -26 -14 -34 -37 -50 -73 -50 -36
0 -87 64 -87 109 0 20 5 21 156 21 l157 0 -6 73 c-9 94 -20 132 -57 190 -53
84 -177 114 -265 64z m134 -111 c30 -16 51 -53 51 -91 0 -25 -1 -25 -86 -25
l-86 0 6 32 c10 52 42 88 84 97 2 1 15 -5 31 -13z"/>
<path d="M15435 1376 c-51 -22 -93 -65 -122 -124 -25 -51 -28 -68 -28 -162 0
-88 4 -113 23 -155 45 -98 118 -148 217 -149 96 0 166 46 216 144 34 66 39
214 10 290 -27 71 -74 128 -125 151 -48 22 -147 24 -191 5z m139 -137 c53 -42
74 -119 55 -207 -21 -102 -92 -142 -158 -87 -39 34 -54 82 -49 166 4 74 24
113 69 136 34 18 52 16 83 -8z"/>
<path d="M16050 1369 c-19 -11 -43 -31 -52 -42 -17 -22 -18 -22 -18 16 l0 37
-60 0 -60 0 0 -290 0 -290 65 0 65 0 0 138 c1 235 16 299 78 323 29 11 67 -6
81 -38 7 -15 11 -99 11 -223 l0 -200 71 0 71 0 -4 233 c-3 260 -10 290 -77
334 -45 30 -122 31 -171 2z"/>
<path d="M2100 1090 l0 -290 65 0 65 0 0 290 0 290 -65 0 -65 0 0 -290z"/>
<path d="M2290 1372 c0 -4 42 -133 93 -287 l94 -280 62 0 63 0 94 285 c51 157
94 286 94 288 0 1 -31 2 -70 2 l-69 0 -41 -132 c-23 -73 -46 -149 -51 -168 -6
-19 -13 -42 -16 -50 -2 -8 -17 28 -33 80 -15 52 -39 134 -54 183 l-27 87 -70
0 c-38 0 -69 -3 -69 -8z"/>
<path d="M4210 1090 l0 -290 65 0 65 0 0 290 0 290 -65 0 -65 0 0 -290z"/>
<path d="M10260 1090 l0 -290 65 0 65 0 0 290 0 290 -65 0 -65 0 0 -290z"/>
<path d="M170 250 l0 -100 8370 0 8370 0 0 100 0 100 -8370 0 -8370 0 0 -100z"/>
</g>
</svg>
